<?xml version="1.0" encoding="UTF-8"?>
<svg width="1098px" height="75px" viewBox="0 0 1098 75" version="1.1" xmlns="http://www.w3.org/2000/svg" xmlns:xlink="http://www.w3.org/1999/xlink">
    <!-- Generator: Sketch 51.3 (57544) - http://www.bohemiancoding.com/sketch -->
    <title>ikonit</title>
    <desc>Created with Sketch.</desc>
    <defs></defs>
    <g id="Page-1" stroke="none" stroke-width="1" fill="none" fill-rule="evenodd">
        <g id="ikonit" fill-rule="nonzero">
            <path d="M67.32,18 C69.7181749,18.5094333 72.1870337,17.523681 73.5748396,15.5026022 C74.9626456,13.4815233 74.9959434,10.8233543 73.6591993,8.76814611 C72.3224553,6.71293795 69.8790635,5.66565195 67.4688802,6.11485301 C65.0586969,6.56405407 63.1566282,8.42123094 62.65,10.82 C61.96481,14.0908075 64.0522795,17.300236 67.32,18" id="Shape" fill="#000000"></path>
            <g id="INVA-WC" transform="translate(0.000000, 4.000000)" fill="#000000">
                <path d="M70.87,49 C70.4717446,55.8162036 65.3165655,61.4031619 58.5543154,62.3472022 C51.7920652,63.2912424 45.3038799,59.3297495 43.0540886,52.883225 C40.8042973,46.4367005 43.4187514,39.2984511 49.3,35.83 L49.08,39.28 L54.08,38.89 L54.45,33.99 C55.4428073,33.8425771 56.4485896,33.8023458 57.45,33.87 C65.3261962,34.3579565 71.3256477,41.1218687 70.87,49 Z M55.1,25.76 L58.67,25.35 L58.06,29.04 L57.73,29.04 C56.7712832,28.9698049 55.8087168,28.9698049 54.85,29.04 L55.1,25.76 Z M83.56,42.65 C82.651058,40.5192355 80.6300718,39.0729191 78.32,38.9 L73.22,38.67 C73.2027288,38.6236661 73.1791754,38.579924 73.15,38.54 C72.0934018,36.7137044 70.7418023,35.0748901 69.15,33.69 L69.84,29.5 L70.84,23.32 C71.3292472,20.2578723 69.4045077,17.327413 66.4,16.56 C65.2888189,16.3087842 64.1286295,16.3852038 63.06,16.78 L54.54,19.34 C52.2118042,20.0222241 50.4645835,21.9549904 50.02,24.34 L49.64,30.26 C40.7493962,33.703072 35.7401994,43.1564265 37.8837716,52.4463499 C40.0273438,61.7362734 48.6721437,68.0390822 58.1725014,67.2385935 C67.6728592,66.4381048 75.1411295,58.777628 75.7,49.26 C75.7653867,48.2301109 75.745318,47.1965745 75.64,46.17 L78.23,46.17 L82.79,63.75 L88.23,62.41 L83.56,42.65 Z" id="Shape"></path>
                <path d="M19.49,15.09 C19.76,16.45 20.09,18.94 20.09,18.94 L20.19,18.94 C20.19,18.94 20.35,16.78 20.55,15.39 L22.71,1.09 L27.82,1.09 L23.51,24.09 L17.51,24.09 L14.69,10.92 C14.29,9.06 14.06,6.92 14.06,6.92 L14,6.92 C14,6.92 13.74,9.07 13.34,10.92 L10.5,24.05 L4.5,24.05 L0.22,1.05 L5.36,1.05 L7.52,15.35 C7.72,16.74 7.88,18.9 7.88,18.9 L8,18.9 C8,18.9 8.33,16.41 8.6,15.05 L11.49,1.05 L16.63,1.05 L19.49,15.09 Z" id="Shape"></path>
                <path d="M44.32,16.16 C43.73,18.42 42.2,20.16 39.66,20.16 C35.84,20.16 34.12,16.71 34.12,12.53 C34.12,8.35 35.84,5 39.66,5 C42.24,5 43.77,6.68 44.35,9 L48.55,6.25 C46.8825163,2.86458868 43.4337866,0.723195199 39.66,0.73 C33.79,0.73 29.14,5.1 29.14,12.53 C29.14,19.96 33.79,24.47 39.66,24.47 C43.4186264,24.4303132 46.8375275,22.2862566 48.51,18.92 L44.32,16.16 Z" id="Shape"></path>
                <path d="M177.11,56.12 C178.851579,56.1071302 180.370015,54.9324912 180.82,53.25 L179,52.14 C179,53.36 178.33,54.43 177.07,54.43 C175.58,54.43 174.9,53.08 174.9,51.43 C174.9,49.78 175.58,48.5 177.07,48.5 C178.33,48.5 178.95,49.5 179,50.74 L180.78,49.63 C180.329375,47.9551171 178.804387,46.7959623 177.07,46.81 C174.77,46.81 172.96,48.52 172.96,51.43 C172.96,54.34 174.77,56.1 177.07,56.1 L177.11,56.12 Z M168.07,46.97 L166.07,46.97 L165,52.46 C164.89,52.99 164.76,53.97 164.76,53.97 C164.76,53.97 164.69,53.12 164.61,52.58 L163.7,47 L161.7,47 L163.37,56 L165.72,56 L166.81,50.85 C166.96,50.13 167.07,49.29 167.07,49.29 C167.07,49.29 167.16,50.13 167.31,50.85 L168.42,56 L170.76,56 L172.45,47 L170.45,47 L169.61,52.59 C169.53,53.13 169.47,53.98 169.47,53.98 C169.47,53.98 169.34,52.98 169.23,52.47 L168.07,46.97 Z M155.56,50.57 C155.909043,50.5794853 156.238499,50.7333866 156.469769,50.9949872 C156.701039,51.2565877 156.813383,51.6024281 156.78,51.95 L154.2,51.95 C154.35,51.05 154.89,50.57 155.56,50.57 Z M158.39,53.17 C158.45231,52.8741144 158.482485,52.5723651 158.48,52.27 C158.531495,51.4737207 158.243237,50.6928998 157.686682,50.1210966 C157.130126,49.5492935 156.35738,49.2400408 155.56,49.27 C153.911716,49.2499462 152.482265,50.4052303 152.156091,52.0210435 C151.829917,53.6368566 152.699274,55.2561869 154.226264,55.8771061 C155.753255,56.4980253 157.50599,55.9449146 158.4,54.56 L156.86,53.69 C156.7827,54.3217841 156.236174,54.7902356 155.6,54.77 C154.84,54.77 154.24,54.25 154.16,53.19 L158.39,53.17 Z M149.39,55.94 L151.23,55.94 L151.23,46.55 L149.39,46.55 L149.39,55.94 Z M143.75,52.67 C143.75,51.51 144.22,50.67 145.06,50.67 C145.9,50.67 146.37,51.46 146.37,52.67 C146.37,53.88 145.9,54.67 145.06,54.67 C144.22,54.67 143.75,53.88 143.75,52.67 Z M143.75,54.93 L143.8,54.93 C144.149749,55.6488814 144.880562,56.1036955 145.68,56.1 C147.07,56.1 148.23,54.76 148.23,52.67 C148.23,50.58 147.07,49.25 145.68,49.25 C144.853756,49.2465835 144.102297,49.7279873 143.76,50.48 C143.76,50.48 143.85,49.69 143.85,48.88 L143.85,46.55 L142,46.55 L142,56 L143.77,56 L143.75,54.93 Z M139.56,46.58 C139.016729,46.612656 138.599327,47.0737836 138.620779,47.6176126 C138.64223,48.1614416 139.094656,48.5882589 139.638812,48.5780214 C140.182968,48.5677838 140.619019,48.124251 140.62,47.58 C140.620497,47.3040529 140.506945,47.0401655 140.306222,46.8508046 C140.1055,46.6614438 139.83545,46.5634427 139.56,46.58 Z M138.7,56 L140.54,56 L140.54,49.47 L138.7,49.47 L138.7,56 Z M134.92,54.82 C134.149939,54.8431789 133.467556,54.327231 133.28,53.58 L131.68,54.47 C132.36351,55.6055264 133.628349,56.2592201 134.95,56.16 C136.36,56.16 137.58,55.38 137.58,54.07 C137.58,52.76 136.65,52.41 135.58,52.07 C134.51,51.73 133.76,51.7 133.76,51.21 C133.76,50.72 134.14,50.63 134.61,50.63 C135.241536,50.6038508 135.806669,51.0193902 135.97,51.63 L137.54,50.75 C136.859265,49.7745381 135.728577,49.2129631 134.54,49.26 C133.14,49.26 131.96,50.04 131.96,51.26 C131.96,52.48 133.19,53 134.17,53.26 C135.15,53.52 135.74,53.61 135.74,54.13 C135.74,54.65 135.38,54.76 134.87,54.76 L134.92,54.82 Z M128.38,54.76 C127.607456,54.7841454 126.921682,54.2687756 126.73,53.52 L125.14,54.41 C125.818526,55.5456772 127.080854,56.2000742 128.4,56.1 C129.82,56.1 131.04,55.32 131.04,54.01 C131.04,52.7 130.1,52.35 129.04,52.01 C127.98,51.67 127.21,51.64 127.21,51.15 C127.21,50.66 127.6,50.57 128.06,50.57 C128.692917,50.5465859 129.259382,50.9600644 129.43,51.57 L131,50.69 C130.316772,49.7174347 129.187774,49.1566991 128,49.2 C126.6,49.2 125.42,49.98 125.42,51.2 C125.42,52.42 126.65,52.94 127.64,53.2 C128.63,53.46 129.21,53.55 129.21,54.07 C129.21,54.59 128.84,54.7 128.34,54.7 L128.38,54.76 Z M121.52,50.51 C121.867278,50.5221893 122.194105,50.6772577 122.423197,50.9385371 C122.65229,51.1998165 122.763308,51.5441084 122.73,51.89 L120.15,51.89 C120.3,50.99 120.84,50.51 121.52,50.51 Z M124.34,53.11 C124.40231,52.8141144 124.432485,52.5123651 124.43,52.21 C124.481277,51.4155198 124.194342,50.6363809 123.640028,50.064923 C123.085714,49.4934652 122.315673,49.1829385 121.52,49.21 C119.871716,49.1899462 118.442265,50.3452303 118.116091,51.9610435 C117.789917,53.5768566 118.659274,55.1961869 120.186264,55.8171061 C121.713255,56.4380253 123.46599,55.8849146 124.36,54.5 L122.81,53.63 C122.7327,54.2617841 122.186174,54.7302356 121.55,54.71 C120.79,54.71 120.19,54.19 120.12,53.13 L124.34,53.11 Z M114.85,50.59 C115.65,50.59 115.99,51.3 115.99,52.17 L117.66,51.32 C117.365268,50.0215659 116.179776,49.122954 114.85,49.19 C113.082203,49.3556295 111.730897,50.839461 111.730897,52.615 C111.730897,54.390539 113.082203,55.8743705 114.85,56.04 C116.179776,56.107046 117.365268,55.2084341 117.66,53.91 L115.99,53.06 C115.99,53.92 115.65,54.64 114.85,54.64 C114.05,54.64 113.59,53.78 113.59,52.64 C113.59,51.5 113.97,50.64 114.85,50.64 L114.85,50.59 Z M108.2,50.64 C109,50.64 109.34,51.35 109.34,52.22 L111.01,51.37 C110.711637,50.0739109 109.528499,49.1770835 108.2,49.24 C106.432203,49.4056295 105.080897,50.889461 105.080897,52.665 C105.080897,54.440539 106.432203,55.9243705 108.2,56.09 C109.549377,56.2022873 110.779694,55.3156108 111.1,54 L109.43,53.15 C109.43,54.01 109.09,54.73 108.29,54.73 C107.49,54.73 107.03,53.87 107.03,52.73 C107.03,51.59 107.41,50.73 108.29,50.73 L108.2,50.64 Z M100.12,50.04 C100.29,49.54 100.46,48.86 100.46,48.86 C100.46,48.86 100.63,49.54 100.8,50.04 L101.58,52.4 L99.3,52.4 L100.12,50.04 Z M102.82,56.04 L104.82,56.04 L101.69,47.04 L99.38,47.04 L96.26,56.04 L98.15,56.04 L98.84,53.99 L102.16,53.99 L102.82,56.04 Z" id="Shape"></path>
                <path d="M190.74,38.66 C190.66,38.83 190.5,39.08 190.23,39.08 C189.96,39.08 189.78,38.91 189.78,38.4 L189.78,35.27 L191,35.27 L191,33.87 L189.77,33.87 L189.77,31.53 L187.95,32.53 L187.95,33.86 L186.9,33.86 L186.9,35.26 L188,35.26 L188,38.58 C187.909091,39.1115842 188.072774,39.6550314 188.442147,40.0479815 C188.81152,40.4409315 189.343814,40.6378849 189.88,40.58 C190.456067,40.574676 191.013213,40.3736803 191.46,40.01 L190.74,38.66 Z M195.26,38.66 C195.197986,38.8910542 194.99829,39.0587982 194.76,39.08 C194.47,39.08 194.3,38.91 194.3,38.4 L194.3,35.27 L195.8,35.27 L195.8,33.87 L194.3,33.87 L194.3,31.53 L192.5,32.53 L192.5,33.86 L191.55,33.86 L191.55,35.26 L192.5,35.26 L192.5,38.58 C192.409091,39.1115842 192.572774,39.6550314 192.942147,40.0479815 C193.31152,40.4409315 193.843814,40.6378849 194.38,40.58 C194.971034,40.5810345 195.543927,40.3759246 196,40 L195.26,38.66 Z M183.5,35 C183.848016,35.0123822 184.175681,35.1671256 184.406332,35.4280257 C184.636982,35.6889257 184.750382,36.0330914 184.72,36.38 L182.14,36.38 C182.28,35.48 182.83,35 183.5,35 Z M186.33,37.6 C186.39231,37.3041144 186.422485,37.0023651 186.42,36.7 C186.471495,35.9037207 186.183237,35.1228998 185.626682,34.5510966 C185.070126,33.9792935 184.29738,33.6700408 183.5,33.7 C181.851716,33.6799462 180.422265,34.8352303 180.096091,36.4510435 C179.769917,38.0668566 180.639274,39.6861869 182.166264,40.3071061 C183.693255,40.9280253 185.44599,40.3749146 186.34,38.99 L184.8,38.12 C184.718294,38.7494122 184.174504,39.2155181 183.54,39.2 C182.78,39.2 182.18,38.68 182.1,37.62 L186.33,37.6 Z M177.33,40.37 L179.17,40.37 L179.17,31 L177.33,31 L177.33,40.37 Z M174.18,37.91 C174.194314,38.2430506 174.068274,38.5668349 173.832555,38.8025546 C173.596835,39.0382744 173.273051,39.1643141 172.94,39.15 C172.37,39.15 172.09,38.88 172.09,38.48 C172.09,38.08 172.59,37.82 173.15,37.67 C173.524087,37.6017862 173.870977,37.4283417 174.15,37.17 L174.18,37.91 Z M173.18,35.08 C173.71,35.08 174.11,35.37 174.11,35.79 C174.11,36.21 173.61,36.36 172.71,36.56 C171.81,36.76 170.31,37.14 170.31,38.56 C170.305297,39.097279 170.527111,39.6116907 170.921044,39.9770777 C171.314977,40.3424648 171.844591,40.52503 172.38,40.48 C173.129215,40.4935521 173.830943,40.1142398 174.23,39.48 C174.294864,39.7743623 174.417203,40.0530232 174.59,40.3 L175.97,40.3 C175.842323,39.7597617 175.788499,39.204704 175.81,38.65 L175.81,36.05 C175.838413,35.3586296 175.561977,34.6896215 175.053822,34.2199632 C174.545667,33.7503049 173.856997,33.5273202 173.17,33.61 C171.866253,33.5562997 170.653981,34.2781706 170.08,35.45 L171.69,36.31 C171.7841,35.5770605 172.401174,35.0238218 173.14,35.01 L173.18,35.08 Z M164.87,37.01 C164.87,35.85 165.27,35.01 166.18,35.01 C167.09,35.01 167.47,35.87 167.47,37.01 C167.47,38.15 167.07,39.01 166.18,39.01 C165.29,39.01 164.87,38.15 164.87,37.01 Z M166.18,40.44 C167.591559,40.5511338 168.927026,39.7860026 169.545034,38.5120659 C170.163042,37.2381293 169.937336,35.7156462 168.976311,34.6757996 C168.015287,33.635953 166.515277,33.2911785 165.196673,33.8070564 C163.878068,34.3229342 163.010252,35.5940732 163.01,37.01 C162.92764,37.8970193 163.225927,38.7772733 163.830558,39.4314959 C164.435189,40.0857185 165.289251,40.4523265 166.18,40.44 Z M161.9,38.54 C161.82,38.71 161.66,38.96 161.39,38.96 C161.12,38.96 160.94,38.79 160.94,38.28 L160.94,35.15 L162.42,35.15 L162.42,33.75 L161,33.75 L161,31.41 L159.18,32.41 L159.18,33.74 L158.13,33.74 L158.13,35.14 L159.18,35.14 L159.18,38.46 C159.089091,38.9915842 159.252774,39.5350314 159.622147,39.9279815 C159.99152,40.3209315 160.523814,40.5178849 161.06,40.46 C161.636067,40.454676 162.193213,40.2536803 162.64,39.89 L161.9,38.54 Z M150.41,36 C150.360257,35.5383867 150.600478,35.0939435 151.013912,34.8826764 C151.427346,34.6714093 151.928262,34.7371267 152.273208,35.0478891 C152.618154,35.3586514 152.735602,35.8500188 152.56847,36.2831793 C152.401338,36.7163398 151.984283,37.0014731 151.52,37 C151.236304,37.0314024 150.95271,36.940079 150.740647,36.7490317 C150.528585,36.5579844 150.408267,36.2854235 150.41,36 Z M149.67,41.24 C149.67,40.63 151.2,40.56 151.99,40.56 C152.78,40.56 153.4,40.7 153.4,41.13 C153.4,41.56 152.7,41.91 151.5,41.91 C150.3,41.91 149.67,41.7 149.67,41.24 Z M148.75,35.91 C148.722838,36.7528149 149.257295,37.5116617 150.06,37.77 C149.29,37.93 148.54,38.33 148.54,39.07 C148.597105,39.5712361 148.974218,39.9767335 149.47,40.07 C148.81,40.19 148.1,40.61 148.1,41.31 C148.1,42.46 149.73,42.97 151.52,42.97 C153.31,42.97 155.17,42.36 155.17,40.83 C155.17,39.56 154.23,38.99 152.82,38.99 C152.11,38.99 151.5,39.09 150.94,39.09 C150.38,39.09 150.16,38.97 150.16,38.7 C150.16,38.43 150.77,38.13 151.48,38.13 C153.03,38.13 154.27,37.31 154.27,36.02 C154.259092,35.4179683 153.961976,34.8571617 153.47,34.51 L153.47,34.46 C153.638756,34.5107796 153.813785,34.5377071 153.99,34.54 C154.73,34.54 155.11,34.14 155.14,33.28 L153.47,32.28 C153.503319,32.4851604 153.523361,32.6922576 153.53,32.9 C153.53,33.4 153.32,33.71 152.78,33.71 C152.24,33.71 152,33.59 151.42,33.59 C149.88,33.59 148.75,34.47 148.75,35.76 L148.75,35.91 Z M146.46,31 C145.918463,31.0380024 145.506153,31.5011225 145.531056,32.0434198 C145.555959,32.5857171 146.008979,33.0091 146.551719,32.997311 C147.09446,32.9855219 147.528668,32.5428671 147.53,32 C147.530682,31.7221975 147.415771,31.4566312 147.212808,31.2669458 C147.009844,31.0772604 146.737122,30.9805529 146.46,31 Z M145.54,40.36 L147.39,40.36 L147.39,33.83 L145.54,33.83 L145.54,40.36 Z M142.2,40.36 L144,40.36 L144,31 L142.2,31 L142.2,40.36 Z M136.71,36 C136.764518,35.4249711 137.247392,34.9857119 137.825,34.9857119 C138.402608,34.9857119 138.885482,35.4249711 138.94,36 C138.885482,36.5750289 138.402608,37.0142881 137.825,37.0142881 C137.247392,37.0142881 136.764518,36.5750289 136.71,36 Z M135.97,41.24 C135.97,40.63 137.5,40.56 138.3,40.56 C139.1,40.56 139.71,40.7 139.71,41.13 C139.71,41.56 139.01,41.91 137.8,41.91 C136.59,41.91 135.97,41.7 135.97,41.24 Z M135.05,35.91 C135.029524,36.7508004 135.561444,37.5060452 136.36,37.77 C135.6,37.93 134.85,38.33 134.85,39.07 C134.907105,39.5712361 135.284218,39.9767335 135.78,40.07 C135.12,40.19 134.4,40.61 134.4,41.31 C134.4,42.46 136.04,42.97 137.83,42.97 C139.62,42.97 141.47,42.36 141.47,40.83 C141.47,39.56 140.54,38.99 139.13,38.99 C138.41,38.99 137.8,39.09 137.24,39.09 C136.68,39.09 136.47,38.97 136.47,38.7 C136.47,38.43 137.08,38.13 137.79,38.13 C139.33,38.13 140.58,37.31 140.58,36.02 C140.570063,35.415298 140.268292,34.8527369 139.77,34.51 L139.77,34.46 C139.939054,34.5094482 140.1139,34.5363476 140.29,34.54 C141.03,34.54 141.42,34.14 141.45,33.28 L139.77,32.28 C139.812121,32.4841108 139.835551,32.6916359 139.84,32.9 C139.84,33.4 139.63,33.71 139.09,33.71 C138.55,33.71 138.31,33.59 137.72,33.59 C136.18,33.59 135.05,34.47 135.05,35.76 L135.05,35.91 Z M133.73,36.09 C133.73,34.47 132.94,33.59 131.73,33.59 C130.87714,33.562373 130.090105,34.0463996 129.73,34.82 L129.82,33.75 L128,33.75 L128,40.28 L129.83,40.28 L129.83,36.4 C129.793169,36.0792978 129.894029,35.7580158 130.107544,35.5159049 C130.321059,35.273794 130.627209,35.1335553 130.95,35.13 C131.64,35.13 131.95,35.59 131.95,36.46 L131.95,40.28 L133.79,40.28 L133.73,36.09 Z M125.03,31.02 C124.477715,31.02 124.03,31.4677153 124.03,32.02 C124.03,32.5722847 124.477715,33.02 125.03,33.02 C125.582285,33.02 126.03,32.5722847 126.03,32.02 C126.03,31.4677153 125.582285,31.02 125.03,31.02 Z M122.45,31.02 C121.897715,31.02 121.45,31.4677153 121.45,32.02 C121.45,32.5722847 121.897715,33.02 122.45,33.02 C123.002285,33.02 123.45,32.5722847 123.45,32.02 C123.464596,31.7505734 123.363935,31.4876502 123.173142,31.2968575 C122.98235,31.1060648 122.719427,31.0054038 122.45,31.02 Z M124.8,37.82 C124.814314,38.1530506 124.688274,38.4768349 124.452555,38.7125546 C124.216835,38.9482744 123.893051,39.0743141 123.56,39.06 C122.99,39.06 122.71,38.79 122.71,38.39 C122.71,37.99 123.21,37.73 123.77,37.58 C124.144087,37.5117862 124.490977,37.3383417 124.77,37.08 L124.8,37.82 Z M123.8,34.99 C124.33,34.99 124.73,35.28 124.73,35.7 C124.73,36.12 124.23,36.27 123.33,36.47 C122.28,36.68 120.93,37.05 120.93,38.47 C120.925297,39.007279 121.147111,39.5216907 121.541044,39.8870777 C121.934977,40.2524648 122.464591,40.43503 123,40.39 C123.749215,40.4035521 124.450943,40.0242398 124.85,39.39 C124.914864,39.6843623 125.037203,39.9630232 125.21,40.21 L126.59,40.21 C126.462323,39.6697617 126.408499,39.114704 126.43,38.56 L126.43,35.96 C126.454952,35.269659 126.177467,34.6027888 125.670165,34.1339194 C125.162864,33.6650499 124.476243,33.4408514 123.79,33.52 C122.486253,33.4662997 121.273981,34.1881706 120.7,35.36 L122.31,36.22 C122.4041,35.4870605 123.021174,34.9338218 123.76,34.92 L123.8,34.99 Z M115.76,35.78 C115.814518,35.2049711 116.297392,34.7657119 116.875,34.7657119 C117.452608,34.7657119 117.935482,35.2049711 117.99,35.78 C117.935482,36.3550289 117.452608,36.7942881 116.875,36.7942881 C116.297392,36.7942881 115.814518,36.3550289 115.76,35.78 Z M115.02,41.02 C115.02,40.41 116.55,40.34 117.35,40.34 C118.15,40.34 118.76,40.48 118.76,40.91 C118.76,41.34 118.06,41.69 116.85,41.69 C115.79,41.69 115.02,41.48 115.02,41.02 Z M114.1,35.69 C114.079524,36.5308004 114.611444,37.2860452 115.41,37.55 C114.65,37.71 113.9,38.11 113.9,38.85 C113.957105,39.3512361 114.334218,39.7567335 114.83,39.85 C114.17,39.97 113.46,40.39 113.46,41.09 C113.46,42.24 115.09,42.75 116.88,42.75 C118.67,42.75 120.52,42.14 120.52,40.61 C120.52,39.34 119.59,38.77 118.18,38.77 C117.46,38.77 116.85,38.87 116.3,38.87 C115.75,38.87 115.52,38.75 115.52,38.48 C115.52,38.21 116.13,37.91 116.84,37.91 C118.38,37.91 119.63,37.09 119.63,35.8 C119.620063,35.195298 119.318292,34.6327369 118.82,34.29 L118.82,34.24 C118.989054,34.2894482 119.1639,34.3163476 119.34,34.32 C120.08,34.32 120.47,33.92 120.5,33.06 L118.82,32.06 C118.862121,32.2641108 118.885551,32.4716359 118.89,32.68 C118.89,33.18 118.68,33.49 118.14,33.49 C117.6,33.49 117.36,33.37 116.77,33.37 C115.23,33.37 114.1,34.25 114.1,35.54 L114.1,35.69 Z M110.9,40.06 L112.74,40.06 L112.74,31 L110.9,31 L110.9,40.06 Z M107.55,40.06 L109.4,40.06 L109.4,31 L107.55,31 L107.55,40.06 Z M105.15,31 C104.606729,31.032656 104.189327,31.4937836 104.210779,32.0376126 C104.23223,32.5814416 104.684656,33.0082589 105.228812,32.9980214 C105.772968,32.9877838 106.209019,32.544251 106.21,32 C106.210497,31.7240529 106.096945,31.4601655 105.896222,31.2708046 C105.6955,31.0814438 105.42545,30.9834427 105.15,31 Z M104.23,40.36 L106.07,40.36 L106.07,33.83 L104.23,33.83 L104.23,40.36 Z M96.23,33.09 L98.85,33.09 L98.85,40.36 L100.77,40.36 L100.77,33.09 L103.39,33.09 L103.39,31.39 L96.23,31.39 L96.23,33.09 Z" id="Shape"></path>
                <path d="M165.84,25 C167.581579,24.9871302 169.100015,23.8124912 169.55,22.13 L167.77,21 C167.72,22.22 167.1,23.3 165.84,23.3 C164.35,23.3 163.67,21.95 163.67,20.3 C163.67,18.65 164.35,17.37 165.84,17.37 C167.1,17.37 167.72,18.37 167.77,19.61 L169.55,18.49 C169.092522,16.8211546 167.570374,15.6682605 165.84,15.68 C163.54,15.68 161.73,17.39 161.73,20.3 C161.73,23.21 163.54,24.97 165.84,24.97 L165.84,25 Z M156.84,15.84 L154.84,15.84 L153.71,21.31 C153.61,21.84 153.48,22.81 153.48,22.81 C153.48,22.81 153.41,21.97 153.33,21.42 L152.49,15.84 L150.49,15.84 L152.16,24.84 L154.51,24.84 L155.6,19.69 C155.76,18.96 155.86,18.12 155.86,18.12 C155.86,18.12 155.95,18.96 156.1,19.69 L157.21,24.84 L159.55,24.84 L161.24,15.84 L159.24,15.84 L158.4,21.42 C158.32,21.97 158.26,22.81 158.26,22.81 C158.26,22.81 158.13,21.81 158.03,21.31 L156.84,15.84 Z M146.93,20.62 C146.93,19 146.14,18.12 144.93,18.12 C144.076429,18.0896845 143.288027,18.5745518 142.93,19.35 L143.02,18.27 L141.2,18.27 L141.2,24.81 L143,24.81 L143,21 C142.96299,20.6775776 143.065156,20.3546647 143.280887,20.1122062 C143.496617,19.8697477 143.805461,19.7307297 144.13,19.73 C144.82,19.73 145.13,20.19 145.13,21.05 L145.13,24.88 L146.97,24.88 L146.93,20.62 Z M138.11,15.55 C137.557715,15.55 137.11,15.9977153 137.11,16.55 C137.11,17.1022847 137.557715,17.55 138.11,17.55 C138.662285,17.55 139.11,17.1022847 139.11,16.55 C139.11,15.9977153 138.662285,15.55 138.11,15.55 Z M135.53,15.55 C134.977715,15.55 134.53,15.9977153 134.53,16.55 C134.53,17.1022847 134.977715,17.55 135.53,17.55 C136.082285,17.55 136.53,17.1022847 136.53,16.55 C136.53,15.9977153 136.082285,15.55 135.53,15.55 Z M135.53,21.55 C135.53,20.38 135.93,19.55 136.84,19.55 C137.75,19.55 138.13,20.4 138.13,21.55 C138.13,22.7 137.73,23.55 136.84,23.55 C135.95,23.55 135.53,22.7 135.53,21.55 Z M136.84,24.98 C138.251559,25.0911338 139.587026,24.3260026 140.205034,23.0520659 C140.823042,21.7781293 140.597336,20.2556462 139.636311,19.2157996 C138.675287,18.175953 137.175277,17.8311785 135.856673,18.3470564 C134.538068,18.8629342 133.670252,20.1340732 133.67,21.55 C133.58764,22.4370193 133.885927,23.3172733 134.490558,23.9714959 C135.095189,24.6257185 135.949251,24.9923265 136.84,24.98 Z M132.56,23.08 C132.48,23.25 132.32,23.5 132.05,23.5 C131.78,23.5 131.6,23.33 131.6,22.82 L131.6,19.7 L133.08,19.7 L133.08,18.3 L131.6,18.3 L131.6,16 L129.78,17 L129.78,18.32 L128.78,18.32 L128.78,19.72 L129.78,19.72 L129.78,23 C129.689091,23.5315842 129.852774,24.0750314 130.222147,24.4679815 C130.59152,24.8609315 131.123814,25.0578849 131.66,25 C132.241164,24.9965742 132.803131,24.7915802 133.25,24.42 L132.56,23.08 Z M125.32,19.45 C125.669043,19.4594853 125.998499,19.6133866 126.229769,19.8749872 C126.461039,20.1365877 126.573383,20.4824281 126.54,20.83 L123.96,20.83 C124.1,19.93 124.65,19.45 125.32,19.45 Z M128.15,22.04 C128.213182,21.7476316 128.243371,21.4490986 128.24,21.15 C128.291495,20.3537207 128.003237,19.5728998 127.446682,19.0010966 C126.890126,18.4292935 126.11738,18.1200408 125.32,18.15 C123.671716,18.1299462 122.242265,19.2852303 121.916091,20.9010435 C121.589917,22.5168566 122.459274,24.1361869 123.986264,24.7571061 C125.513255,25.3780253 127.26599,24.8249146 128.16,23.44 L126.62,22.57 C126.538294,23.1994122 125.994504,23.6655181 125.36,23.65 C124.6,23.65 124,23.13 123.92,22.06 L128.15,22.04 Z M118.4,19.45 C118.749043,19.4594853 119.078499,19.6133866 119.309769,19.8749872 C119.541039,20.1365877 119.653383,20.4824281 119.62,20.83 L117,20.83 C117.14,19.93 117.68,19.45 118.36,19.45 L118.4,19.45 Z M121.18,22.04 C121.243182,21.7476316 121.273371,21.4490986 121.27,21.15 C121.321277,20.3555198 121.034342,19.5763809 120.480028,19.004923 C119.925714,18.4334652 119.155673,18.1229385 118.36,18.15 C116.711716,18.1299462 115.282265,19.2852303 114.956091,20.9010435 C114.629917,22.5168566 115.499274,24.1361869 117.026264,24.7571061 C118.553255,25.3780253 120.30599,24.8249146 121.2,23.44 L119.65,22.57 C119.573035,23.1978682 119.03239,23.6649853 118.4,23.65 C117.63,23.65 117.03,23.13 116.96,22.06 L121.18,22.04 Z M114.12,23.04 C114.04,23.21 113.88,23.46 113.61,23.46 C113.34,23.46 113.16,23.29 113.16,22.78 L113.16,19.7 L114.64,19.7 L114.64,18.3 L113.16,18.3 L113.16,16 L111.34,17 L111.34,18.32 L110.29,18.32 L110.29,19.72 L111.34,19.72 L111.34,23 C111.249091,23.5315842 111.412774,24.0750314 111.782147,24.4679815 C112.15152,24.8609315 112.683814,25.0578849 113.22,25 C113.798327,24.9976011 114.357476,24.7923439 114.8,24.42 L114.12,23.04 Z M107.12,23.6 C106.344527,23.6230568 105.657734,23.1027589 105.47,22.35 L103.88,23.25 C104.56351,24.3855264 105.828349,25.0392201 107.15,24.94 C108.56,24.94 109.78,24.16 109.78,22.85 C109.78,21.54 108.85,21.19 107.78,20.85 C106.71,20.51 105.95,20.49 105.95,20 C105.95,19.51 106.34,19.41 106.81,19.41 C107.43812,19.3948682 107.997171,19.8059354 108.17,20.41 L109.74,19.53 C109.056772,18.5574347 107.927774,17.9966991 106.74,18.04 C105.34,18.04 104.16,18.82 104.16,20.04 C104.16,21.26 105.39,21.78 106.38,22.04 C107.37,22.3 107.95,22.39 107.95,22.9 C107.95,23.41 107.59,23.54 107.08,23.54 L107.12,23.6 Z M97,24.84 L103.21,24.84 L103.21,23.21 L98.89,23.21 L98.89,21.07 L102.89,21.07 L102.89,19.46 L98.89,19.46 L98.89,17.46 L103.11,17.46 L103.11,15.83 L97,15.83 L97,24.84 Z" id="Shape"></path>
            </g>
            <path d="M492.52,25.57 C492.52,24.4 492.92,23.57 493.83,23.57 C494.74,23.57 495.13,24.42 495.13,25.57 C495.13,26.72 494.73,27.57 493.83,27.57 C492.93,27.57 492.52,26.72 492.52,25.57 Z M493.83,28.99 C495.237499,29.1011392 496.569312,28.3384586 497.185776,27.0682709 C497.802239,25.7980832 497.577399,24.279908 496.619246,23.2429191 C495.661092,22.2059302 494.165391,21.862001 492.850522,22.3763194 C491.535653,22.8906378 490.670265,24.1581204 490.67,25.57 C490.587622,26.4543628 490.884845,27.332082 491.487605,27.9844354 C492.090364,28.6367888 492.941894,29.0023415 493.83,28.99 Z M489.53,20.67 C489.97,20.67 490.16,21.07 490.19,21.46 L491.77,20.46 C491.244894,19.6932365 490.369164,19.2422167 489.44,19.26 C488.801433,19.1938569 488.166176,19.4125419 487.703635,19.8577374 C487.241094,20.302933 486.9983,20.929372 487.04,21.57 L487.04,22.27 L486.04,22.27 L486.04,23.67 L487.04,23.67 L487.04,28.81 L488.85,28.81 L488.85,23.7 L490.28,23.7 L490.28,22.3 L488.85,22.3 L488.85,21.59 C488.85,21.02 489.07,20.67 489.53,20.67 Z M485.32,24.67 C485.32,23.05 484.53,22.17 483.32,22.17 C482.465712,22.13696 481.675918,22.6226832 481.32,23.4 L481.41,22.32 L479.58,22.32 L479.58,28.86 L481.41,28.86 L481.41,25 C481.37299,24.6775776 481.475156,24.3546647 481.690887,24.1122062 C481.906617,23.8697477 482.215461,23.7307297 482.54,23.73 C483.22,23.73 483.54,24.18 483.54,25.05 L483.54,28.88 L485.38,28.88 L485.32,24.67 Z M476,28.84 L478,28.84 L478,19.84 L476,19.84 L476,28.84 Z" id="Shape" fill="#000000"></path>
            <path d="M689.05,60 L690.88,60 L690.88,56.27 C690.88,55.42 691.11,54.88 691.68,54.88 C692.25,54.88 692.29,55.28 692.29,55.71 C692.283311,56.0719715 692.249886,56.4329541 692.19,56.79 L693.84,55.79 C693.880105,55.5352973 693.900166,55.2778408 693.9,55.02 C693.9,54.07 693.4,53.29 692.48,53.29 C691.741019,53.3283095 691.094132,53.7987726 690.83,54.49 L690.92,53.42 L689.09,53.42 L689.05,60 Z M685,54.59 C685.349043,54.5994853 685.678499,54.7533866 685.909769,55.0149872 C686.141039,55.2765877 686.253383,55.6224281 686.22,55.97 L683.64,55.97 C683.78,55.07 684.33,54.59 685,54.59 Z M687.83,57.19 C687.89231,56.8941144 687.922485,56.5923651 687.92,56.29 C687.968323,55.4945438 687.67902,54.7155803 687.123177,54.1445081 C686.567333,53.5734359 685.796471,53.2631898 685,53.29 C683.351716,53.2699462 681.922265,54.4252303 681.596091,56.0410435 C681.269917,57.6568566 682.139274,59.2761869 683.666264,59.8971061 C685.193255,60.5180253 686.94599,59.9649146 687.84,58.58 L686.3,57.71 C686.2227,58.3417841 685.676174,58.8102356 685.04,58.79 C684.28,58.79 683.68,58.27 683.6,57.21 L687.83,57.19 Z M681.53,53.43 L679.39,53.43 L677.99,55.29 C677.62,55.8 677.2,56.51 677.2,56.51 C677.2,56.51 677.29,55.71 677.29,54.91 L677.29,50.57 L675.46,50.57 L675.46,60 L677.29,60 L677.29,58.49 L678.16,57.38 L679.77,60 L681.77,60 L679.37,56.06 L681.53,53.43 Z M671.53,54.67 C672.33,54.67 672.67,55.38 672.67,56.25 L674.34,55.4 C674.041637,54.1039109 672.858499,53.2070835 671.53,53.27 C669.762203,53.4356295 668.410897,54.919461 668.410897,56.695 C668.410897,58.470539 669.762203,59.9543705 671.53,60.12 C672.858499,60.1829165 674.041637,59.2860891 674.34,57.99 L672.67,57.14 C672.67,58 672.33,58.72 671.53,58.72 C670.73,58.72 670.27,57.86 670.27,56.72 C670.27,55.58 670.65,54.72 671.53,54.72 L671.53,54.67 Z M663.06,56.72 C663.06,55.56 663.46,54.72 664.37,54.72 C665.28,54.72 665.67,55.58 665.67,56.72 C665.67,57.86 665.27,58.72 664.37,58.72 C663.47,58.72 663.06,57.86 663.06,56.72 Z M664.37,60.15 C665.782068,60.2653183 667.120418,59.5031168 667.741655,58.2298139 C668.362891,56.956511 668.139941,55.4325609 667.179985,54.3905826 C666.220028,53.3486044 664.719424,53.0017348 663.399569,53.5167268 C662.079713,54.0317188 661.210582,55.3032308 661.21,56.72 C661.127838,57.6052646 661.424812,58.483864 662.027216,59.1377395 C662.629621,59.7916149 663.480981,60.1594674 664.37,60.15 Z M658.2,59.99 L660.04,59.99 L660.04,50.6 L658.2,50.6 L658.2,59.99 Z M651.2,54.62 C651.549043,54.6294853 651.878499,54.7833866 652.109769,55.0449872 C652.341039,55.3065877 652.453383,55.6524281 652.42,56 L649.9,56 C650.05,55.1 650.59,54.62 651.26,54.62 L651.2,54.62 Z M654.09,57.22 C654.15231,56.9241144 654.182485,56.6223651 654.18,56.32 C654.228323,55.5245438 653.93902,54.7455803 653.383177,54.1745081 C652.827333,53.6034359 652.056471,53.2931898 651.26,53.32 C649.611716,53.2999462 648.182265,54.4552303 647.856091,56.0710435 C647.529917,57.6868566 648.399274,59.3061869 649.926264,59.9271061 C651.453255,60.5480253 653.20599,59.9949146 654.1,58.61 L652.56,57.74 C652.4827,58.3717841 651.936174,58.8402356 651.3,58.82 C650.54,58.82 649.94,58.3 649.86,57.24 L654.09,57.22 Z M643.2,55.56 C643.150257,55.0983867 643.390478,54.6539435 643.803912,54.4426764 C644.217346,54.2314093 644.718262,54.2971267 645.063208,54.6078891 C645.408154,54.9186514 645.525602,55.4100188 645.35847,55.8431793 C645.191338,56.2763398 644.774283,56.5614731 644.31,56.56 C644.026304,56.5914024 643.74271,56.500079 643.530647,56.3090317 C643.318585,56.1179844 643.198267,55.8454235 643.2,55.56 Z M642.46,60.8 C642.46,60.19 643.99,60.12 644.78,60.12 C645.57,60.12 646.19,60.26 646.19,60.69 C646.19,61.12 645.49,61.47 644.29,61.47 C643.09,61.47 642.46,61.26 642.46,60.8 Z M641.54,55.47 C641.512838,56.3128149 642.047295,57.0716617 642.85,57.33 C642.08,57.49 641.33,57.89 641.33,58.63 C641.387105,59.1312361 641.764218,59.5367335 642.26,59.63 C641.6,59.74 640.89,60.16 640.89,60.86 C640.89,62.01 642.52,62.52 644.31,62.52 C646.25,62.52 647.96,61.91 647.96,60.38 C647.96,59.11 647.02,58.54 645.61,58.54 C644.9,58.54 644.29,58.64 643.73,58.64 C643.17,58.64 642.95,58.52 642.95,58.25 C642.95,57.98 643.56,57.68 644.27,57.68 C645.82,57.68 647.06,56.86 647.06,55.57 C647.045919,54.9687919 646.749512,54.4093241 646.26,54.06 C646.429054,54.1094482 646.6039,54.1363476 646.78,54.14 C647.52,54.14 647.91,53.74 647.93,52.88 L646.26,51.88 C646.293319,52.0851604 646.313361,52.2922576 646.32,52.5 C646.32,53 646.12,53.31 645.57,53.31 C645.02,53.31 644.79,53.19 644.21,53.19 C642.67,53.19 641.54,54.07 641.54,55.36 L641.54,55.47 Z M638.54,57.42 C638.557227,57.7520927 638.433528,58.0760384 638.199342,58.3121292 C637.965155,58.5482199 637.642221,58.6745371 637.31,58.66 C636.74,58.66 636.45,58.39 636.45,57.99 C636.45,57.59 636.96,57.33 637.52,57.19 C637.897091,57.1245959 638.24564,56.946836 638.52,56.68 L638.54,57.42 Z M637.54,54.59 C638.08,54.59 638.48,54.88 638.48,55.3 C638.48,55.72 637.97,55.88 637.08,56.07 C636.03,56.28 634.68,56.65 634.68,58.12 C634.672444,58.6563642 634.891965,59.1709311 635.284369,59.5366669 C635.676773,59.9024028 636.205492,60.0852252 636.74,60.04 C637.488734,60.0515796 638.189556,59.6727566 638.59,59.04 C638.656286,59.3325823 638.782247,59.6083346 638.96,59.85 L640.33,59.85 C640.206702,59.3125303 640.15625,58.7609193 640.18,58.21 L640.18,55.6 C640.20194,54.908733 639.922098,54.2421114 639.413308,53.7736409 C638.904518,53.3051705 638.21711,53.0811914 637.53,53.16 C636.226915,53.1089067 635.015958,53.8299942 634.44,55 L636.05,55.86 C636.1441,55.1270605 636.761174,54.5738218 637.5,54.56 L637.54,54.59 Z M629,60 L630.83,60 L630.83,56.27 C630.83,55.42 631.07,54.88 631.64,54.88 C632.21,54.88 632.25,55.28 632.25,55.71 C632.241067,56.0722872 632.204292,56.4333513 632.14,56.79 L633.79,55.79 C633.830105,55.5352973 633.850166,55.2778408 633.85,55.02 C633.85,54.07 633.35,53.29 632.43,53.29 C631.691019,53.3283095 631.044132,53.7987726 630.78,54.49 L630.87,53.42 L629,53.42 L629,60 Z M623.38,56.73 C623.38,55.57 623.78,54.73 624.69,54.73 C625.6,54.73 625.98,55.59 625.98,56.73 C625.98,57.87 625.58,58.73 624.69,58.73 C623.8,58.73 623.38,57.87 623.38,56.73 Z M624.69,60.16 C626.101559,60.2711338 627.437026,59.5060026 628.055034,58.2320659 C628.673042,56.9581293 628.447336,55.4356462 627.486311,54.3957996 C626.525287,53.355953 625.025277,53.0111785 623.706673,53.5270564 C622.388068,54.0429342 621.520252,55.3140732 621.52,56.73 C621.43764,57.6170193 621.735927,58.4972733 622.340558,59.1514959 C622.945189,59.8057185 623.799251,60.1723265 624.69,60.16 Z M620.41,58.26 C620.33,58.43 620.17,58.68 619.9,58.68 C619.63,58.68 619.45,58.51 619.45,58.01 L619.45,54.87 L620.92,54.87 L620.92,53.47 L619.45,53.47 L619.45,51.13 L617.63,52.13 L617.63,53.46 L616.63,53.46 L616.63,54.86 L617.63,54.86 L617.63,58.18 C617.539091,58.7115842 617.702774,59.2550314 618.072147,59.6479815 C618.44152,60.0409315 618.973814,60.2378849 619.51,60.18 C620.086935,60.1795657 620.645667,59.9779978 621.09,59.61 L620.41,58.26 Z M611.74,56 C613.03,56.39 614.34,56.51 614.34,57.47 C614.34,58.13 613.77,58.56 612.87,58.56 C611.69737,58.5730684 610.694585,57.7196342 610.52,56.56 L608.79,57.65 C609.462301,59.2474812 611.058529,60.2570951 612.79,60.18 C614.79,60.18 616.2,59 616.2,57.38 C616.2,55.76 614.81,55.11 613.39,54.68 C612.17,54.3 611.01,54.17 611.01,53.38 C611.01,52.83 611.56,52.46 612.3,52.46 C613.321701,52.3942689 614.228064,53.1107273 614.4,54.12 L616.08,53.06 C615.35223,51.6845332 613.90542,50.8428233 612.35,50.89 C610.42,50.89 609.15,52.05 609.15,53.55 C609.15,55.05 610.39,55.65 611.73,56.05 L611.74,56 Z" id="Shape" fill="#000000"></path>
            <path d="M692.5,37.87 L690.58,37.87 L690.04,39.05 C689.74,39.69 689.51,40.25 689.51,40.25 L688.96,39.03 L688.43,37.87 L686.48,37.87 L688.2,41.03 L686.33,44.4 L688.27,44.4 L689,43 C689.179422,42.6523675 689.339662,42.2951655 689.48,41.93 C689.625662,42.2994633 689.799507,42.6571836 690,43 L690.71,44.39 L692.71,44.39 L690.78,41 L692.5,37.87 Z M681.61,41.13 C681.61,39.97 682.01,39.13 682.92,39.13 C683.83,39.13 684.21,39.99 684.21,41.13 C684.21,42.27 683.81,43.13 682.92,43.13 C682.03,43.13 681.61,42.27 681.61,41.13 Z M682.92,44.56 C684.331559,44.6711338 685.667026,43.9060026 686.285034,42.6320659 C686.903042,41.3581293 686.677336,39.8356462 685.716311,38.7957996 C684.755287,37.755953 683.255277,37.4111785 681.936673,37.9270564 C680.618068,38.4429342 679.750252,39.7140732 679.75,41.13 C679.66764,42.0170193 679.965927,42.8972733 680.570558,43.5514959 C681.175189,44.2057185 682.029251,44.5723265 682.92,44.56 Z M674.39,41.13 C674.39,39.97 674.85,39.13 675.7,39.13 C676.55,39.13 677,39.93 677,41.13 C677,42.33 676.54,43.13 675.7,43.13 C674.86,43.13 674.39,42.34 674.39,41.13 Z M674.39,43.39 C674.745238,44.1039132 675.472595,44.5565772 676.27,44.56 C677.66,44.56 678.83,43.22 678.83,41.13 C678.83,39.04 677.66,37.71 676.27,37.71 C675.447376,37.7105126 674.700801,38.191291 674.36,38.94 C674.36,38.94 674.45,38.15 674.45,37.33 L674.45,35 L672.62,35 L672.62,44.39 L674.38,44.39 L674.39,43.39 Z M668.85,43.22 C668.081149,43.2393982 667.400864,42.725036 667.21,41.98 L665.61,42.87 C666.29351,44.0055264 667.558349,44.6592201 668.88,44.56 C670.29,44.56 671.51,43.78 671.51,42.47 C671.51,41.16 670.58,40.81 669.51,40.47 C668.44,40.13 667.68,40.11 667.68,39.62 C667.68,39.13 668.07,39.04 668.53,39.04 C669.161536,39.0138508 669.726669,39.4293902 669.89,40.04 L671.46,39.16 C670.779265,38.1845381 669.648577,37.6229631 668.46,37.67 C667.06,37.67 665.88,38.45 665.88,39.67 C665.88,40.89 667.11,41.41 668.09,41.67 C669.07,41.93 669.66,42.02 669.66,42.54 C669.66,43.06 669.3,43.17 668.79,43.17 L668.85,43.22 Z M660.69,40 C660.640361,39.5392957 660.879548,39.0955925 661.291697,38.8838248 C661.703847,38.6720571 662.203847,38.7359561 662.549493,39.0445684 C662.895138,39.3531806 663.015052,39.8427763 662.851146,40.27619 C662.687241,40.7096037 662.273363,40.9973335 661.81,41 C661.52469,41.034494 661.238331,40.9445714 661.023958,40.7531669 C660.809585,40.5617624 660.687922,40.2873798 660.69,40 Z M659.95,45.24 C659.95,44.63 661.48,44.56 662.27,44.56 C663.06,44.56 663.69,44.7 663.69,45.13 C663.69,45.56 662.99,45.91 661.78,45.91 C660.72,45.91 659.95,45.7 659.95,45.24 Z M659.03,39.91 C659.009524,40.7508004 659.541444,41.5060452 660.34,41.77 C659.58,41.93 658.82,42.33 658.82,43.07 C658.875109,43.5757326 659.25864,43.9837435 659.76,44.07 C659.1,44.19 658.38,44.61 658.38,45.31 C658.38,46.46 660.02,46.97 661.81,46.97 C663.6,46.97 665.45,46.36 665.45,44.83 C665.45,43.56 664.52,42.99 663.1,42.99 C662.39,42.99 661.78,43.09 661.22,43.09 C660.66,43.09 660.44,42.97 660.44,42.7 C660.44,42.43 661.05,42.13 661.77,42.13 C663.31,42.13 664.56,41.31 664.56,40.02 C664.545181,39.416578 664.244525,38.8560961 663.75,38.51 L663.75,38.46 C663.919054,38.5094482 664.0939,38.5363476 664.27,38.54 C665.01,38.54 665.4,38.14 665.42,37.28 L663.75,36.28 C663.792121,36.4841108 663.815551,36.6916359 663.82,36.9 C663.82,37.4 663.61,37.71 663.06,37.71 C662.51,37.71 662.29,37.59 661.7,37.59 C660.16,37.59 659.03,38.47 659.03,39.76 L659.03,39.91 Z M657.71,40.09 C657.71,38.47 656.92,37.59 655.66,37.59 C654.806429,37.5596845 654.018027,38.0445518 653.66,38.82 L653.75,37.75 L651.92,37.75 L651.92,44.28 L653.75,44.28 L653.75,40.4 C653.71299,40.0775776 653.815156,39.7546647 654.030887,39.5122062 C654.246617,39.2697477 654.555461,39.1307297 654.88,39.13 C655.57,39.13 655.88,39.59 655.88,40.46 L655.88,44.28 L657.72,44.28 L657.71,40.09 Z M649.5,35 C648.956729,35.032656 648.539327,35.4937836 648.560779,36.0376126 C648.58223,36.5814416 649.034656,37.0082589 649.578812,36.9980214 C650.122968,36.9877838 650.559019,36.544251 650.56,36 C650.560497,35.7240529 650.446945,35.4601655 650.246222,35.2708046 C650.0455,35.0814438 649.77545,34.9834427 649.5,35 Z M648.58,44.36 L650.42,44.36 L650.42,37.83 L648.58,37.83 L648.58,44.36 Z M642.81,44.36 L644.64,44.36 L644.64,40.63 C644.64,39.78 644.87,39.24 645.44,39.24 C646.01,39.24 646.05,39.64 646.05,40.07 C646.03885,40.428393 646.005453,40.7857475 645.95,41.14 L647.59,40.2 C647.63668,39.9459933 647.66011,39.6882604 647.66,39.43 C647.66,38.43 647.15,37.7 646.23,37.7 C645.491911,37.7408231 644.846248,38.2103961 644.58,38.9 L644.67,37.83 L642.84,37.83 L642.81,44.36 Z M639.66,41.9 C639.674128,42.2312453 639.549425,42.5533668 639.315938,42.7887528 C639.08245,43.0241387 638.761349,43.1514456 638.43,43.14 C637.85,43.14 637.57,42.87 637.57,42.47 C637.57,42.07 638.07,41.81 638.63,41.66 C639.005936,41.5973981 639.354357,41.4231874 639.63,41.16 L639.66,41.9 Z M638.66,39.07 C639.19,39.07 639.6,39.36 639.6,39.78 C639.6,40.2 639.09,40.35 638.19,40.55 C637.14,40.76 635.8,41.13 635.8,42.55 C635.792444,43.0863642 636.011965,43.6009311 636.404369,43.9666669 C636.796773,44.3324028 637.325492,44.5152252 637.86,44.47 C638.609215,44.4835521 639.310943,44.1042398 639.71,43.47 C639.774864,43.7643623 639.897203,44.0430232 640.07,44.29 L641.45,44.29 C641.322323,43.7497617 641.268499,43.194704 641.29,42.64 L641.29,40.04 C641.318413,39.3486296 641.041977,38.6796215 640.533822,38.2099632 C640.025667,37.7403049 639.336997,37.5173202 638.65,37.6 C637.346253,37.5462997 636.133981,38.2681706 635.56,39.44 L637.17,40.3 C637.2641,39.5670605 637.881174,39.0138218 638.62,39 L638.66,39.07 Z M631.52,40.61 L630.72,37.76 L628.79,37.76 L630.89,44.29 L633.08,44.29 L635.18,37.76 L633.31,37.76 L632.51,40.61 C632.29,41.43 632.03,42.61 632.03,42.61 C632.03,42.61 631.77,41.47 631.55,40.61 L631.52,40.61 Z M623.55,44.29 L625.38,44.29 L625.38,40.56 C625.38,39.71 625.61,39.17 626.18,39.17 C626.75,39.17 626.79,39.57 626.79,40 C626.784135,40.3587022 626.750703,40.7164228 626.69,41.07 L628.34,40.13 C628.380105,39.8752973 628.400166,39.6178408 628.4,39.36 C628.4,38.36 627.9,37.63 626.98,37.63 C626.241019,37.6683095 625.594132,38.1387726 625.33,38.83 L625.42,37.76 L623.59,37.76 L623.55,44.29 Z M620.55,35.03 C619.997715,35.03 619.55,35.4777153 619.55,36.03 C619.55,36.5822847 619.997715,37.03 620.55,37.03 C621.102285,37.03 621.55,36.5822847 621.55,36.03 C621.55,35.4777153 621.102285,35.03 620.55,35.03 Z M617.97,35.03 C617.417715,35.03 616.97,35.4777153 616.97,36.03 C616.97,36.5822847 617.417715,37.03 617.97,37.03 C618.522285,37.03 618.97,36.5822847 618.97,36.03 C618.97,35.4777153 618.522285,35.03 617.97,35.03 Z M617.97,41.03 C617.97,39.87 618.38,39.03 619.28,39.03 C620.18,39.03 620.58,39.89 620.58,41.03 C620.58,42.17 620.18,43.03 619.28,43.03 C618.38,43.03 617.97,42.17 617.97,41.03 Z M619.28,44.46 C620.692068,44.5753183 622.030418,43.8131168 622.651655,42.5398139 C623.272891,41.266511 623.049941,39.7425609 622.089985,38.7005826 C621.130028,37.6586044 619.629424,37.3117348 618.309569,37.8267268 C616.989713,38.3417188 616.120582,39.6132308 616.12,41.03 C616.037838,41.9152646 616.334812,42.793864 616.937216,43.4477395 C617.539621,44.1016149 618.390981,44.4694674 619.28,44.46 Z M609.39,44.3 L611.29,44.3 L611.29,40.64 L615.12,40.64 L615.12,39.02 L611.29,39.02 L611.29,37.02 L615.37,37.02 L615.37,35.38 L609.37,35.38 L609.39,44.3 Z" id="Shape" fill="#000000"></path>
            <path d="M695.22,27.1 C695.150779,27.3263763 694.954927,27.4908928 694.72,27.52 C694.42,27.52 694.27,27.35 694.27,26.84 L694.27,23.7 L695.74,23.7 L695.74,22.3 L694.27,22.3 L694.27,20 L692.45,21 L692.45,22.32 L691.4,22.32 L691.4,23.72 L692.45,23.72 L692.45,27 C692.359091,27.5315842 692.522774,28.0750314 692.892147,28.4679815 C693.26152,28.8609315 693.793814,29.0578849 694.33,29 C694.908327,28.9976011 695.467476,28.7923439 695.91,28.42 L695.22,27.1 Z M686.63,25.57 C686.63,24.4 687.03,23.57 687.94,23.57 C688.85,23.57 689.23,24.42 689.23,25.57 C689.23,26.72 688.83,27.57 687.94,27.57 C687.05,27.57 686.63,26.72 686.63,25.57 Z M687.94,29 C689.351559,29.1111338 690.687026,28.3460026 691.305034,27.0720659 C691.923042,25.7981293 691.697336,24.2756462 690.736311,23.2357996 C689.775287,22.195953 688.275277,21.8511785 686.956673,22.3670564 C685.638068,22.8829342 684.770252,24.1540732 684.77,25.57 C684.68764,26.4570193 684.985927,27.3372733 685.590558,27.9914959 C686.195189,28.6457185 687.049251,29.0123265 687.94,29 Z M679.24,28.84 L681.06,28.84 L681.06,25.1 C681.06,24.26 681.3,23.72 681.87,23.72 C682.44,23.72 682.48,24.12 682.48,24.55 C682.47177,24.9090196 682.434988,25.2668153 682.37,25.62 L684.02,24.68 C684.06668,24.4259933 684.09011,24.1682604 684.09,23.91 C684.09,22.91 683.58,22.17 682.66,22.17 C681.918549,22.2099765 681.270992,22.6848516 681.01,23.38 L681.1,22.3 L679.28,22.3 L679.24,28.84 Z M675.18,23.47 C675.529043,23.4794853 675.858499,23.6333866 676.089769,23.8949872 C676.321039,24.1565877 676.433383,24.5024281 676.4,24.85 L673.81,24.85 C673.96,23.95 674.5,23.47 675.18,23.47 Z M678,26.06 C678.063182,25.7676316 678.093371,25.4690986 678.09,25.17 C678.141277,24.3755198 677.854342,23.5963809 677.300028,23.024923 C676.745714,22.4534652 675.975673,22.1429385 675.18,22.17 C673.531716,22.1499462 672.102265,23.3052303 671.776091,24.9210435 C671.449917,26.5368566 672.319274,28.1561869 673.846264,28.7771061 C675.373255,29.3980253 677.12599,28.8449146 678.02,27.46 L676.47,26.59 C676.393035,27.2178682 675.85239,27.6849853 675.22,27.67 C674.45,27.67 673.85,27.15 673.78,26.08 L678,26.06 Z M671.7,22.3 L669.56,22.3 L668.16,24.17 C667.8,24.68 667.37,25.39 667.37,25.39 C667.37,25.39 667.46,24.59 667.46,23.78 L667.46,19.45 L665.63,19.45 L665.63,28.84 L667.46,28.84 L667.46,27.32 L668.33,26.22 L669.94,28.84 L671.94,28.84 L669.54,24.9 L671.7,22.3 Z M660,25.57 C660,24.4 660.41,23.57 661.31,23.57 C662.21,23.57 662.61,24.42 662.61,25.57 C662.61,26.72 662.21,27.57 661.31,27.57 C660.41,27.57 660,26.72 660,25.57 Z M661.31,29 C662.722068,29.1153183 664.060418,28.3531168 664.681655,27.0798139 C665.302891,25.806511 665.079941,24.2825609 664.119985,23.2405826 C663.160028,22.1986044 661.659424,21.8517348 660.339569,22.3667268 C659.019713,22.8817188 658.150582,24.1532308 658.15,25.57 C658.067838,26.4552646 658.364812,27.333864 658.967216,27.9877395 C659.569621,28.6416149 660.420981,29.0094674 661.31,29 Z M655.14,28.84 L656.98,28.84 L656.98,19.45 L655.1,19.45 L655.14,28.84 Z M651.37,27.66 C650.594527,27.6830568 649.907734,27.1627589 649.72,26.41 L648.13,27.31 C648.808526,28.4456772 650.070854,29.1000742 651.39,29 C652.81,29 654.03,28.22 654.03,26.91 C654.03,25.6 653.09,25.25 652.03,24.91 C650.97,24.57 650.2,24.55 650.2,24.06 C650.2,23.57 650.59,23.47 651.06,23.47 C651.68812,23.4548682 652.247171,23.8659354 652.42,24.47 L653.99,23.59 C653.306772,22.6174347 652.177774,22.0566991 650.99,22.1 C649.59,22.1 648.41,22.88 648.41,24.1 C648.41,25.32 649.64,25.84 650.63,26.1 C651.62,26.36 652.2,26.45 652.2,26.96 C652.2,27.47 651.83,27.6 651.33,27.6 L651.37,27.66 Z M644.81,26.72 C644.81,26.72 644.53,25.6 644.3,24.82 L643.53,22.24 L641.53,22.24 L643.91,28.77 L643.91,28.87 C643.628833,29.6249666 642.957499,30.1658704 642.16,30.28 L643.64,31.48 C644.684088,31.0493736 645.450286,30.1336737 645.69,29.03 L647.93,22.24 L646,22.24 L645.3,25 C645.08,25.8 644.84,26.83 644.84,26.83 L644.81,26.72 Z M640.63,27.04 C640.55,27.21 640.4,27.46 640.12,27.46 C639.84,27.46 639.67,27.29 639.67,26.78 L639.67,23.7 L641.15,23.7 L641.15,22.3 L639.67,22.3 L639.67,20 L637.85,21 L637.85,22.32 L636.8,22.32 L636.8,23.72 L637.85,23.72 L637.85,27 C637.759091,27.5315842 637.922774,28.0750314 638.292147,28.4679815 C638.66152,28.8609315 639.193814,29.0578849 639.73,29 C640.311614,28.9990931 640.874409,28.7937972 641.32,28.42 L640.63,27.04 Z M633.29,26.72 C633.29,26.72 633.02,25.6 632.78,24.82 L632,22.3 L630,22.3 L632.37,28.83 L632.37,28.93 C632.087152,29.687812 631.411265,30.2292897 630.61,30.34 L632.09,31.54 C633.117974,31.1005573 633.865254,30.1851393 634.09,29.09 L636.34,22.3 L634.44,22.3 L633.7,24.95 C633.48,25.75 633.25,26.78 633.25,26.78 L633.29,26.72 Z M627.43,28.78 L629.27,28.78 L629.27,19.39 L627.43,19.39 L627.43,28.78 Z M625,19.48 C624.447715,19.48 624,19.9277153 624,20.48 C624,21.0322847 624.447715,21.48 625,21.48 C625.552285,21.48 626,21.0322847 626,20.48 C626,19.9277153 625.552285,19.48 625,19.48 Z M624.08,28.84 L625.92,28.84 L625.92,22.3 L624.08,22.3 L624.08,28.84 Z M621.17,19.58 C620.617715,19.58 620.17,20.0277153 620.17,20.58 C620.17,21.1322847 620.617715,21.58 621.17,21.58 C621.722285,21.58 622.17,21.1322847 622.17,20.58 C622.17,20.0277153 621.722285,19.58 621.17,19.58 Z M618.58,19.58 C618.027715,19.58 617.58,20.0277153 617.58,20.58 C617.58,21.1322847 618.027715,21.58 618.58,21.58 C619.132285,21.58 619.58,21.1322847 619.58,20.58 C619.58,20.0277153 619.132285,19.58 618.58,19.58 Z M620.93,26.38 C620.947227,26.7120927 620.823528,27.0360384 620.589342,27.2721292 C620.355155,27.5082199 620.032221,27.6345371 619.7,27.62 C619.13,27.62 618.84,27.35 618.84,26.95 C618.84,26.55 619.35,26.28 619.91,26.14 C620.285936,26.0773981 620.634357,25.9031874 620.91,25.64 L620.93,26.38 Z M619.93,23.55 C620.46,23.55 620.86,23.83 620.86,24.26 C620.86,24.69 620.35,24.83 619.46,25.03 C618.41,25.23 617.06,25.61 617.06,27.08 C617.052444,27.6163642 617.271965,28.1309311 617.664369,28.4966669 C618.056773,28.8624028 618.585492,29.0452252 619.12,29 C619.87038,29.0073515 620.572276,28.6299883 620.98,28 C621.036475,28.2970312 621.15956,28.5773922 621.34,28.82 L622.71,28.82 C622.586167,28.2792257 622.535714,27.7242396 622.56,27.17 L622.56,24.57 C622.585369,23.8777005 622.306561,23.2089602 621.796926,22.7397114 C621.287291,22.2704627 620.597857,22.0476898 619.91,22.13 C618.60848,22.0750883 617.398515,22.797925 616.83,23.97 L618.43,24.83 C618.528697,24.0954961 619.149012,23.5431614 619.89,23.53 L619.93,23.55 Z M611.68,24.85 C612.97,25.24 614.28,25.36 614.28,26.32 C614.28,26.98 613.71,27.41 612.81,27.41 C611.638941,27.4187381 610.638609,26.5673917 610.46,25.41 L608.73,26.5 C609.402301,28.0974812 610.998529,29.1070951 612.73,29.03 C614.73,29.03 616.14,27.84 616.14,26.22 C616.14,24.6 614.75,23.95 613.33,23.53 C612.11,23.15 610.95,23.02 610.95,22.23 C610.95,21.67 611.5,21.31 612.24,21.31 C613.261701,21.2442689 614.168064,21.9607273 614.34,22.97 L616.02,21.91 C615.29223,20.5345332 613.84542,19.6928233 612.29,19.74 C610.36,19.74 609.09,20.89 609.09,22.4 C609.09,23.91 610.33,24.5 611.67,24.9 L611.68,24.85 Z" id="Shape" fill="#000000"></path>
            <path d="M452.71,58.34 C446.59126,64.4724099 437.820147,67.1545496 429.318094,65.4930674 C420.816041,63.8315852 413.699947,58.0447472 410.34,50.06 C405.273665,38.0201076 409.926863,24.090323 421.212318,17.5126907 C432.497774,10.9350584 446.911553,13.7518176 454.890492,24.0941228 C462.869432,34.4364281 461.936212,49.0931755 452.71,58.34 M434.31,8.71 C417.062147,8.71 403.08,22.6921473 403.08,39.94 C403.08,57.1878527 417.062147,71.17 434.31,71.17 C451.557853,71.17 465.54,57.1878527 465.54,39.94 C465.54,31.657289 462.249706,23.7138163 456.392945,17.8570552 C450.536184,12.0002941 442.592711,8.71 434.31,8.71" id="Shape" fill="#000000"></path>
            <path d="M434.31,26.92 C435.892351,26.9240469 437.321145,25.9739762 437.929491,24.5132343 C438.537837,23.0524924 438.205787,21.3690942 437.088325,20.2487676 C435.970864,19.128441 434.288322,18.7920811 432.826027,19.3966842 C431.363732,20.0012873 430.410005,21.4276437 430.41,23.01 C430.409993,25.1655341 432.154473,26.9144871 434.31,26.92" id="Shape" fill="#000000"></path>
            <polygon id="Shape" fill="#000000" points="438.27 31.77 425.73 31.77 425.73 36.9 432.75 36.9 432.75 52.07 425.73 52.07 425.73 57.2 444.13 57.2 444.13 52.07 438.27 52.07"></polygon>
            <path d="M554.73,5.32 C557.126916,5.32 559.07,7.26308419 559.07,9.66 C559.07,12.0569158 557.126916,14 554.73,14 C552.333084,14 550.39,12.0569158 550.39,9.66 C550.39,7.26308419 552.333084,5.32 554.73,5.32 M545.19,9.66 C545.195521,14.4134089 548.699514,18.4375403 553.406996,19.0967387 C558.114478,19.7559371 562.589035,16.8490586 563.9,12.28 L576.41,12.28 L576.41,18.78 L581.62,18.78 L581.62,12.28 L585.09,12.28 L585.09,18.78 L590.29,18.78 L590.29,7.07 L563.91,7.07 C562.614369,2.48836057 558.138933,-0.436526469 553.422549,0.216007428 C548.706165,0.868541325 545.19299,4.89869035 545.19,9.66" id="Shape" fill="#000000"></path>
            <path d="M549.92,35.49 C549.184501,35.4737419 548.512333,35.904277 548.219533,36.5791774 C547.926733,37.2540778 548.071559,38.0390595 548.585917,38.5650421 C549.100276,39.0910247 549.881826,39.2533541 550.5631,38.9757067 C551.244374,38.6980593 551.68982,38.0356783 551.69,37.3 C551.695334,36.8252537 551.511842,36.367836 551.179896,36.0283886 C550.847951,35.6889413 550.394747,35.4952748 549.92,35.49" id="Shape" fill="#000000"></path>
            <path d="M549.92,58.63 C550.654684,58.6421788 551.323827,58.2089919 551.613458,57.5336969 C551.903088,56.858402 551.755725,56.0750199 551.240513,55.5511249 C550.725302,55.0272299 549.944492,54.8667956 549.264451,55.1451002 C548.58441,55.4234047 548.140101,56.085215 548.14,56.82 C548.134669,57.2964648 548.319529,57.7553913 548.653634,58.0951276 C548.98774,58.4348639 549.443513,58.6273678 549.92,58.63" id="Shape" fill="#000000"></path>
            <path d="M566.69,35.49 C565.954501,35.4737419 565.282333,35.904277 564.989533,36.5791774 C564.696733,37.2540778 564.841559,38.0390595 565.355917,38.5650421 C565.870276,39.0910247 566.651826,39.2533541 567.3331,38.9757067 C568.014374,38.6980593 568.45982,38.0356783 568.46,37.3 C568.465334,36.8252537 568.281842,36.367836 567.949896,36.0283886 C567.617951,35.6889413 567.164747,35.4952748 566.69,35.49" id="Shape" fill="#000000"></path>
            <path d="M566.69,55 C565.954501,54.9837419 565.282333,55.414277 564.989533,56.0891774 C564.696733,56.7640778 564.841559,57.5490595 565.355917,58.0750421 C565.870276,58.6010247 566.651826,58.7633541 567.3331,58.4857067 C568.014374,58.2080593 568.45982,57.5456783 568.46,56.81 C568.465334,56.3352537 568.281842,55.877836 567.949896,55.5383886 C567.617951,55.1989413 567.164747,55.0052748 566.69,55" id="Shape" fill="#000000"></path>
            <path d="M583.45,35.49 C582.715316,35.4778212 582.046173,35.9110081 581.756542,36.5863031 C581.466912,37.261598 581.614275,38.0449801 582.129487,38.5688751 C582.644698,39.0927701 583.425508,39.2532044 584.105549,38.9748998 C584.78559,38.6965953 585.229899,38.034785 585.23,37.3 C585.235331,36.8235352 585.050471,36.3646087 584.716366,36.0248724 C584.38226,35.6851361 583.926487,35.4926322 583.45,35.49" id="Shape" fill="#000000"></path>
            <path d="M563.26,49.57 L574.82,49.57 L574.82,63.89 L563.26,63.89 L563.26,49.57 Z M558.05,63.89 L546.49,63.89 L546.49,49.57 L558.05,49.57 L558.05,63.89 Z M546.49,30.06 L558.05,30.06 L558.05,44.37 L546.49,44.37 L546.49,30.06 Z M563.26,30.06 L574.82,30.06 L574.82,44.37 L563.26,44.37 L563.26,30.06 Z M580.03,30.06 L591.59,30.06 L591.59,44.37 L580,44.37 L580.03,30.06 Z M591.59,63.89 L580,63.89 L580,49.57 L591.56,49.57 L591.59,63.89 Z M580,69.09 L596.8,69.09 L596.8,24.85 L541.29,24.85 L541.29,69.09 L580,69.09 Z" id="Shape" fill="#000000"></path>
            <path d="M583.45,58.63 C584.185499,58.6462581 584.857667,58.215723 585.150467,57.5408226 C585.443267,56.8659222 585.298441,56.0809405 584.784083,55.5549579 C584.269724,55.0289753 583.488174,54.8666459 582.8069,55.1442933 C582.125626,55.4219407 581.68018,56.0843217 581.68,56.82 C581.674666,57.2947463 581.858158,57.752164 582.190104,58.0916114 C582.522049,58.4310587 582.975253,58.6247252 583.45,58.63" id="Shape" fill="#000000"></path>
            <path d="M901.61,56.69 C901.61,55.53 902.07,54.69 902.92,54.69 C903.77,54.69 904.23,55.48 904.23,56.69 C904.23,57.9 903.76,58.69 902.92,58.69 C902.08,58.69 901.61,57.9 901.61,56.69 Z M901.61,54.5 L901.69,53.43 L899.86,53.43 L899.86,62.5 L901.69,62.5 L901.69,59 C902.066054,59.6679953 902.773427,60.0809483 903.54,60.08 C904.92,60.08 906.09,58.74 906.09,56.65 C906.09,54.56 904.92,53.23 903.54,53.23 C902.713756,53.2265835 901.962297,53.7079873 901.62,54.46 L901.61,54.5 Z M894.23,56.69 C894.23,55.53 894.63,54.69 895.54,54.69 C896.45,54.69 896.84,55.55 896.84,56.69 C896.84,57.83 896.44,58.69 895.54,58.69 C894.64,58.69 894.23,57.83 894.23,56.69 Z M895.54,60.12 C896.952068,60.2353183 898.290418,59.4731168 898.911655,58.1998139 C899.532891,56.926511 899.309941,55.4025609 898.349985,54.3605826 C897.390028,53.3186044 895.889424,52.9717348 894.569569,53.4867268 C893.249713,54.0017188 892.380582,55.2732308 892.38,56.69 C892.297838,57.5752646 892.594812,58.453864 893.197216,59.1077395 C893.799621,59.7616149 894.650981,60.1294674 895.54,60.12 Z M887,56.69 C887,55.53 887.4,54.69 888.31,54.69 C889.22,54.69 889.61,55.55 889.61,56.69 C889.61,57.83 889.21,58.69 888.31,58.69 C887.41,58.69 887,57.83 887,56.69 Z M888.31,60.12 C889.722068,60.2353183 891.060418,59.4731168 891.681655,58.1998139 C892.302891,56.926511 892.079941,55.4025609 891.119985,54.3605826 C890.160028,53.3186044 888.659424,52.9717348 887.339569,53.4867268 C886.019713,54.0017188 885.150582,55.2732308 885.15,56.69 C885.067838,57.5752646 885.364812,58.453864 885.967216,59.1077395 C886.569621,59.7616149 887.420981,60.1294674 888.31,60.12 Z M882.14,59.96 L884,59.96 L884,50.57 L882.16,50.57 L882.14,59.96 Z M877.77,55.77 C877.77,54.15 876.98,53.27 875.77,53.27 C874.917847,53.245026 874.132154,53.7282271 873.77,54.5 L873.86,53.43 L872,53.43 L872,60 L873.82,60 L873.82,56.13 C873.779903,55.805969 873.880666,55.4802978 874.09675,55.2355297 C874.312835,54.9907616 874.623498,54.8503926 874.95,54.85 C875.64,54.85 875.95,55.31 875.95,56.18 L875.95,60 L877.79,60 L877.77,55.77 Z M866.36,56.69 C866.36,55.53 866.76,54.69 867.67,54.69 C868.58,54.69 868.96,55.55 868.96,56.69 C868.96,57.83 868.56,58.69 867.67,58.69 C866.78,58.69 866.36,57.83 866.36,56.69 Z M867.67,60.12 C869.081559,60.2311338 870.417026,59.4660026 871.035034,58.1920659 C871.653042,56.9181293 871.427336,55.3956462 870.466311,54.3557996 C869.505287,53.315953 868.005277,52.9711785 866.686673,53.4870564 C865.368068,54.0029342 864.500252,55.2740732 864.5,56.69 C864.41764,57.5770193 864.715927,58.4572733 865.320558,59.1114959 C865.925189,59.7657185 866.779251,60.1323265 867.67,60.12 Z M862.41,50.6 C861.868463,50.6380024 861.456153,51.1011225 861.481056,51.6434198 C861.505959,52.1857171 861.958979,52.6091 862.501719,52.597311 C863.04446,52.5855219 863.478668,52.1428671 863.48,51.6 C863.480682,51.3221975 863.365771,51.0566312 863.162808,50.8669458 C862.959844,50.6772604 862.687122,50.5805529 862.41,50.6 Z M861.49,59.96 L863.34,59.96 L863.34,53.43 L861.49,53.43 L861.49,59.96 Z M859.99,58.22 C859.91,58.39 859.76,58.64 859.48,58.64 C859.2,58.64 859.03,58.47 859.03,57.97 L859.03,54.83 L860.51,54.83 L860.51,53.43 L859,53.43 L859,51.09 L857.18,52.09 L857.18,53.42 L856.13,53.42 L856.13,54.82 L857.18,54.82 L857.18,58.14 C857.089091,58.6715842 857.252774,59.2150314 857.622147,59.6079815 C857.99152,60.0009315 858.523814,60.1978849 859.06,60.14 C859.640223,60.1410555 860.202599,59.9394491 860.65,59.57 L859.99,58.22 Z M852.9,54.67 C853.7,54.67 854.04,55.38 854.04,56.25 L855.71,55.4 C855.411637,54.1039109 854.228499,53.2070835 852.9,53.27 C851.132203,53.4356295 849.780897,54.919461 849.780897,56.695 C849.780897,58.470539 851.132203,59.9543705 852.9,60.12 C854.221803,60.1789365 855.398199,59.2882361 855.7,58 L854.03,57.15 C854.03,58.01 853.69,58.73 852.89,58.73 C852.09,58.73 851.63,57.87 851.63,56.73 C851.63,55.59 852,54.73 852.89,54.73 L852.9,54.67 Z M842.89,57.73 C842.89,59.35 843.64,60.23 844.89,60.23 C845.719249,60.2438825 846.475954,59.7591183 846.81,59 L846.72,60.07 L848.56,60.07 L848.56,53.54 L846.72,53.54 L846.72,57.43 C846.72,58.18 846.32,58.68 845.63,58.68 C844.94,58.68 844.63,58.23 844.63,57.36 L844.63,53.54 L842.9,53.54 L842.89,57.73 Z M838.35,58.73 C837.51,58.73 837.04,57.94 837.04,56.73 C837.04,55.52 837.51,54.73 838.35,54.73 C839.19,54.73 839.65,55.52 839.65,56.73 C839.65,57.94 839.18,58.73 838.35,58.73 Z M839.7,58.97 L839.6,60.04 L841.43,60.04 L841.43,50.65 L839.6,50.65 L839.6,54.4 C839.224388,53.7451954 838.524861,53.3438275 837.77,53.35 C836.4,53.35 835.23,54.69 835.23,56.77 C835.23,58.85 836.4,60.2 837.77,60.2 C838.596986,60.2059802 839.349722,59.7237593 839.69,58.97 L839.7,58.97 Z M834.06,55.85 C834.06,54.23 833.27,53.35 832.01,53.35 C831.157847,53.325026 830.372154,53.8082271 830.01,54.58 L830.1,53.51 L828.28,53.51 L828.28,60 L830.1,60 L830.1,56.13 C830.06319,55.8066387 830.165116,55.482822 830.380504,55.2388431 C830.595891,54.9948643 830.90457,54.8535716 831.23,54.85 C831.92,54.85 832.23,55.31 832.23,56.18 L832.23,60 L834.07,60 L834.06,55.85 Z M824.78,60 L826.72,60 L826.72,51 L824.78,51 L824.78,60 Z" id="Shape" fill="#000000"></path>
            <path d="M879,41.94 C879.017227,42.2720927 878.893528,42.5960384 878.659342,42.8321292 C878.425155,43.0682199 878.102221,43.1945371 877.77,43.18 C877.2,43.18 876.92,42.91 876.92,42.51 C876.92,42.11 877.42,41.85 877.98,41.7 C878.355936,41.6373981 878.704357,41.4631874 878.98,41.2 L879,41.94 Z M878,39.11 C878.53,39.11 878.93,39.4 878.93,39.82 C878.93,40.24 878.43,40.39 877.53,40.59 C876.48,40.8 875.13,41.17 875.13,42.59 C875.122444,43.1263642 875.341965,43.6409311 875.734369,44.0066669 C876.126773,44.3724028 876.655492,44.5552252 877.19,44.51 C877.941792,44.5231249 878.646313,44.1443502 879.05,43.51 C879.106475,43.8070312 879.22956,44.0873922 879.41,44.33 L880.78,44.33 C880.656167,43.7892257 880.605714,43.2342396 880.63,42.68 L880.63,40.08 C880.655369,39.3877005 880.376561,38.7189602 879.866926,38.2497114 C879.357291,37.7804627 878.667857,37.5576898 877.98,37.64 C876.67848,37.5850883 875.468515,38.307925 874.9,39.48 L876.5,40.34 C876.602649,39.6076032 877.220648,39.0573302 877.96,39.04 L878,39.11 Z M869.96,39.9 C869.910361,39.4392957 870.149548,38.9955925 870.561697,38.7838248 C870.973847,38.5720571 871.473847,38.6359561 871.819493,38.9445684 C872.165138,39.2531806 872.285052,39.7427763 872.121146,40.17619 C871.957241,40.6096037 871.543363,40.8973335 871.08,40.9 C870.79469,40.934494 870.508331,40.8445714 870.293958,40.6531669 C870.079585,40.4617624 869.957922,40.1873798 869.96,39.9 Z M869.22,45.14 C869.22,44.53 870.75,44.46 871.54,44.46 C872.33,44.46 872.96,44.6 872.96,45.03 C872.96,45.46 872.26,45.81 871.05,45.81 C869.84,45.81 869.22,45.6 869.22,45.14 Z M868.3,39.81 C868.279524,40.6508004 868.811444,41.4060452 869.61,41.67 C868.84,41.83 868.09,42.23 868.09,42.97 C868.145109,43.4757326 868.52864,43.8837435 869.03,43.97 C868.37,44.09 867.65,44.51 867.65,45.21 C867.65,46.36 869.29,46.87 871.08,46.87 C872.87,46.87 874.72,46.26 874.72,44.73 C874.72,43.46 873.79,42.89 872.37,42.89 C871.66,42.89 871.05,42.99 870.49,42.99 C869.93,42.99 869.71,42.87 869.71,42.6 C869.71,42.33 870.32,42.03 871.04,42.03 C872.58,42.03 873.82,41.21 873.82,39.92 C873.809092,39.3179683 873.511976,38.7571617 873.02,38.41 L873.02,38.36 C873.189054,38.4094482 873.3639,38.4363476 873.54,38.44 C874.28,38.44 874.67,38.04 874.69,37.18 L873.02,36.18 C873.062121,36.3841108 873.085551,36.5916359 873.09,36.8 C873.09,37.3 872.88,37.61 872.33,37.61 C871.78,37.61 871.56,37.49 870.97,37.49 C869.43,37.49 868.3,38.37 868.3,39.66 L868.3,39.81 Z M866.98,39.99 C866.98,38.37 866.19,37.49 864.98,37.49 C864.125712,37.45696 863.335918,37.9426832 862.98,38.72 L863.07,37.65 L861.24,37.65 L861.24,44.18 L863.07,44.18 L863.07,40.3 C863.03299,39.9775776 863.135156,39.6546647 863.350887,39.4122062 C863.566617,39.1697477 863.875461,39.0307297 864.2,39.03 C864.89,39.03 865.2,39.49 865.2,40.36 L865.2,44.18 L867.04,44.18 L866.98,39.99 Z M858.84,35 C858.296729,35.032656 857.879327,35.4937836 857.900779,36.0376126 C857.92223,36.5814416 858.374656,37.0082589 858.918812,36.9980214 C859.462968,36.9877838 859.899019,36.544251 859.9,36 C859.900497,35.7240529 859.786945,35.4601655 859.586222,35.2708046 C859.3855,35.0814438 859.11545,34.9834427 858.84,35 Z M857.92,44.36 L859.76,44.36 L859.76,37.83 L857.92,37.83 L857.92,44.36 Z M854.57,44.36 L856.41,44.36 L856.41,35 L854.57,35 L854.57,44.36 Z M850.8,43.18 C850.027456,43.2041454 849.341682,42.6887756 849.15,41.94 L847.56,42.83 C848.238526,43.9656772 849.500854,44.6200742 850.82,44.52 C852.24,44.52 853.46,43.74 853.46,42.43 C853.46,41.12 852.52,40.77 851.46,40.43 C850.4,40.09 849.63,40.07 849.63,39.58 C849.63,39.09 850.02,39 850.49,39 C851.119244,38.9812799 851.680261,39.3937927 851.85,40 L853.42,39.12 C852.736772,38.1474347 851.607774,37.5866991 850.42,37.63 C849.02,37.63 847.84,38.41 847.84,39.63 C847.84,40.85 849.07,41.37 850.06,41.63 C851.05,41.89 851.63,41.98 851.63,42.5 C851.63,43.02 851.26,43.13 850.76,43.13 L850.8,43.18 Z M844,39 C844.348016,39.0123822 844.675681,39.1671256 844.906332,39.4280257 C845.136982,39.6889257 845.250382,40.0330914 845.22,40.38 L842.64,40.38 C842.78,39.48 843.32,39 844,39 Z M846.82,41.6 C846.889087,41.3050582 846.922659,41.0029135 846.92,40.7 C846.971495,39.9037207 846.683237,39.1228998 846.126682,38.5510966 C845.570126,37.9792935 844.79738,37.6700408 844,37.7 C842.351716,37.6799462 840.922265,38.8352303 840.596091,40.4510435 C840.269917,42.0668566 841.139274,43.6861869 842.666264,44.3071061 C844.193255,44.9280253 845.94599,44.3749146 846.84,42.99 L845.29,42.12 C845.213035,42.7478682 844.67239,43.2149853 844.04,43.2 C843.27,43.2 842.67,42.68 842.6,41.62 L846.82,41.6 Z M837.82,44.37 L839.67,44.37 L839.67,35 L837.82,35 L837.82,44.37 Z M833.78,39 C834.129043,39.0094853 834.458499,39.1633866 834.689769,39.4249872 C834.921039,39.6865877 835.033383,40.0324281 835,40.38 L832.42,40.38 C832.57,39.48 833.11,39 833.78,39 Z M836.61,41.6 C836.67231,41.3041144 836.702485,41.0023651 836.7,40.7 C836.751495,39.9037207 836.463237,39.1228998 835.906682,38.5510966 C835.350126,37.9792935 834.57738,37.6700408 833.78,37.7 C832.131716,37.6799462 830.702265,38.8352303 830.376091,40.4510435 C830.049917,42.0668566 830.919274,43.6861869 832.446264,44.3071061 C833.973255,44.9280253 835.72599,44.3749146 836.62,42.99 L835.08,42.12 C835.0027,42.7517841 834.456174,43.2202356 833.82,43.2 C833.06,43.2 832.46,42.68 832.38,41.62 L836.61,41.6 Z M824.05,37.1 L826.67,37.1 L826.67,44.37 L828.58,44.37 L828.58,37.1 L831.2,37.1 L831.2,35.4 L824.05,35.4 L824.05,37.1 Z" id="Shape" fill="#000000"></path>
            <path d="M920.89,26.38 C920.907227,26.7120927 920.783528,27.0360384 920.549342,27.2721292 C920.315155,27.5082199 919.992221,27.6345371 919.66,27.62 C919.09,27.62 918.8,27.35 918.8,26.95 C918.8,26.55 919.31,26.28 919.87,26.14 C920.245936,26.0773981 920.594357,25.9031874 920.87,25.64 L920.89,26.38 Z M919.89,23.55 C920.43,23.55 920.83,23.83 920.83,24.26 C920.83,24.69 920.32,24.83 919.43,25.03 C918.38,25.23 917.03,25.61 917.03,27.08 C917.018976,27.6192555 917.238874,28.1375298 917.634323,28.5043235 C918.029773,28.8711173 918.563094,29.0514811 919.1,29 C919.848734,29.0115796 920.549556,28.6327566 920.95,28 C921.016079,28.29572 921.141997,28.5747821 921.32,28.82 L922.69,28.82 C922.566167,28.2792257 922.515714,27.7242396 922.54,27.17 L922.54,24.57 C922.565369,23.8777005 922.286561,23.2089602 921.776926,22.7397114 C921.267291,22.2704627 920.577857,22.0476898 919.89,22.13 C918.586915,22.0789067 917.375958,22.7999942 916.8,23.97 L918.41,24.83 C918.5041,24.0970605 919.121174,23.5438218 919.86,23.53 L919.89,23.55 Z M916.38,22.28 L914.24,22.28 L912.84,24.15 C912.47,24.66 912.04,25.37 912.04,25.37 C912.04,25.37 912.13,24.57 912.13,23.76 L912.13,19.43 L910.3,19.43 L910.3,28.82 L912.13,28.82 L912.13,27.3 L913,26.2 L914.6,28.82 L916.6,28.82 L914.2,24.88 L916.38,22.28 Z M909.38,22.28 L907.3,22.28 L905.9,24.15 C905.54,24.66 905.11,25.37 905.11,25.37 C905.11,25.37 905.2,24.57 905.2,23.76 L905.2,19.43 L903.37,19.43 L903.37,28.82 L905.2,28.82 L905.2,27.3 L906.07,26.2 L907.68,28.82 L909.68,28.82 L907.28,24.88 L909.38,22.28 Z M896.06,26.47 C896.06,28.09 896.81,28.97 898.06,28.97 C898.893933,29.0007105 899.659283,28.5104083 899.98,27.74 L899.89,28.82 L901.73,28.82 L901.73,22.3 L900,22.3 L900,26.19 C900,26.95 899.6,27.45 898.91,27.45 C898.22,27.45 897.91,27 897.91,26.13 L897.91,22.3 L896.08,22.3 L896.06,26.47 Z M885.36,28.82 L887.17,28.82 L887.17,24.89 C887.17,24.12 887.57,23.67 888.17,23.67 C888.77,23.67 889.08,24.07 889.08,24.83 L889.08,28.83 L891,28.83 L891,25 C891,24.17 891.38,23.66 892,23.66 C892.62,23.66 892.91,24.06 892.91,24.82 L892.91,28.82 L894.72,28.82 L894.72,24.5 C894.72,22.98 893.98,22.13 892.72,22.13 C891.879983,22.1193639 891.105917,22.5838034 890.72,23.33 C890.525264,22.5842021 889.829247,22.0810574 889.06,22.13 C888.252648,22.1483647 887.526594,22.6259297 887.19,23.36 L887.29,22.28 L885.48,22.28 L885.36,28.82 Z M882.02,28.82 L883.86,28.82 L883.86,19.43 L882.02,19.43 L882.02,28.82 Z M879.59,19.46 C879.037715,19.46 878.59,19.9077153 878.59,20.46 C878.59,21.0122847 879.037715,21.46 879.59,21.46 C880.142285,21.46 880.59,21.0122847 880.59,20.46 C880.59,19.9077153 880.142285,19.46 879.59,19.46 Z M878.67,28.82 L880.51,28.82 L880.51,22.3 L878.67,22.3 L878.67,28.82 Z M875,27.66 C874.224527,27.6830568 873.537734,27.1627589 873.35,26.41 L871.76,27.31 C872.433545,28.4406738 873.68732,29.0946491 875,29 C876.42,29 877.64,28.23 877.64,26.92 C877.64,25.61 876.7,25.26 875.64,24.92 C874.58,24.58 873.81,24.56 873.81,24.07 C873.81,23.58 874.2,23.48 874.67,23.48 C875.29812,23.4648682 875.857171,23.8759354 876.03,24.48 L877.6,23.6 C876.916772,22.6274347 875.787774,22.0666991 874.6,22.11 C873.2,22.11 872.02,22.89 872.02,24.11 C872.02,25.33 873.25,25.85 874.24,26.11 C875.23,26.37 875.81,26.46 875.81,26.97 C875.81,27.48 875.44,27.61 874.94,27.61 L875,27.66 Z M866.63,25.52 C866.63,24.35 867.03,23.52 867.93,23.52 C868.83,23.52 869.23,24.37 869.23,25.52 C869.23,26.67 868.83,27.52 867.93,27.52 C867.03,27.52 866.63,26.67 866.63,25.52 Z M868,29 C869.407499,29.1111392 870.739312,28.3484586 871.355776,27.0782709 C871.972239,25.8080832 871.747399,24.289908 870.789246,23.2529191 C869.831092,22.2159302 868.335391,21.872001 867.020522,22.3863194 C865.705653,22.9006378 864.840265,24.1681204 864.84,25.58 C864.760843,26.4636211 865.059168,27.3394924 865.661228,27.991088 C866.263287,28.6426837 867.112888,29.0091892 868,29 Z M862.75,19.49 C862.197715,19.49 861.75,19.9377153 861.75,20.49 C861.75,21.0422847 862.197715,21.49 862.75,21.49 C863.302285,21.49 863.75,21.0422847 863.75,20.49 C863.75,19.9377153 863.302285,19.49 862.75,19.49 Z M861.83,28.85 L863.67,28.85 L863.67,22.3 L861.83,22.3 L861.83,28.85 Z M860.33,27.11 C860.25,27.28 860.09,27.53 859.82,27.53 C859.55,27.53 859.37,27.36 859.37,26.85 L859.37,23.7 L860.85,23.7 L860.85,22.3 L859.37,22.3 L859.37,20 L857.55,21 L857.55,22.32 L856.55,22.32 L856.55,23.72 L857.55,23.72 L857.55,27 C857.459091,27.5315842 857.622774,28.0750314 857.992147,28.4679815 C858.36152,28.8609315 858.893814,29.0578849 859.43,29 C860.009934,28.9993898 860.571764,28.797979 861.02,28.43 L860.33,27.11 Z M856.27,22.31 L854.13,22.31 L852.73,24.18 C852.37,24.69 851.94,25.4 851.94,25.4 C851.94,25.4 852.03,24.6 852.03,23.79 L852.03,19.46 L850.2,19.46 L850.2,28.85 L852.03,28.85 L852.03,27.33 L852.9,26.23 L854.51,28.85 L856.51,28.85 L854,24.9 L856.27,22.31 Z M842.95,26.5 C842.95,28.12 843.7,29 844.95,29 C845.783933,29.0307105 846.549283,28.5404083 846.87,27.77 L846.78,28.85 L848.62,28.85 L848.62,22.3 L846.78,22.3 L846.78,26.19 C846.78,26.95 846.38,27.45 845.69,27.45 C845,27.45 844.69,27 844.69,26.13 L844.69,22.3 L842.9,22.3 L842.95,26.5 Z M838.41,27.5 C837.57,27.5 837.1,26.71 837.1,25.5 C837.1,24.29 837.57,23.5 838.41,23.5 C839.25,23.5 839.71,24.29 839.71,25.5 C839.71,26.71 839.24,27.5 838.41,27.5 Z M839.76,27.73 L839.66,28.81 L841.49,28.81 L841.49,19.42 L839.66,19.42 L839.66,23.17 C839.287526,22.512067 838.585979,22.1095401 837.83,22.12 C836.46,22.12 835.29,23.45 835.29,25.54 C835.29,27.63 836.46,28.96 837.83,28.96 C838.658489,28.9712125 839.413847,28.4873117 839.75,27.73 L839.76,27.73 Z M834.12,24.62 C834.12,23 833.33,22.12 832.07,22.12 C831.216429,22.0896845 830.428027,22.5745518 830.07,23.35 L830.16,22.27 L828.34,22.27 L828.34,28.81 L830.16,28.81 L830.16,25 C830.12299,24.6775776 830.225156,24.3546647 830.440887,24.1122062 C830.656617,23.8697477 830.965461,23.7307297 831.29,23.73 C831.98,23.73 832.29,24.18 832.29,25.05 L832.29,28.88 L834.13,28.88 L834.12,24.62 Z M824.83,28.81 L826.77,28.81 L826.77,19.81 L824.83,19.81 L824.83,28.81 Z" id="Shape" fill="#000000"></path>
            <polygon id="Shape" fill="#000000" points="766.1 46.54 744.48 68.17 744.49 74.79 751.11 74.79 775.17 50.73"></polygon>
            <polygon id="Shape" fill="#000000" points="794.01 60.15 797.85 60.15 797.85 69.22 802.04 69.22 802.04 60.15 805.87 60.15 805.87 56.66 794.01 56.66"></polygon>
            <path d="M789.13,37.12 C789.381964,32.8495919 787.246847,28.7912087 783.584864,26.5799307 C779.92288,24.3686527 775.33712,24.3686527 771.675136,26.5799307 C768.013153,28.7912087 765.878036,32.8495919 766.13,37.12 L770.32,39.12 L770.32,37.12 C770.220905,34.4384786 771.594964,31.9171324 773.90212,30.5469461 C776.209275,29.1767599 779.080725,29.1767599 781.38788,30.5469461 C783.695036,31.9171324 785.069095,34.4384786 784.97,37.12 C784.963548,39.0595865 784.178046,40.9152436 782.79,42.27 L781.4,43.67 L785.75,45.23 C787.926968,43.0924735 789.155384,40.1709321 789.16,37.12" id="Shape" fill="#000000"></path>
            <path d="M804.83,7.83 L792.18,20.48 C792.42,20.7 792.65,20.93 792.88,21.16 C794.904549,23.175856 796.574634,25.5187091 797.82,28.09 L811.44,14.46 L811.44,7.83 L804.83,7.83 Z" id="Shape" fill="#000000"></path>
            <path d="M796.8,36.88 C796.779509,35.0385218 796.493222,33.2096511 795.95,31.45 C795.756667,30.85 795.536667,30.25 795.29,29.65 C794.571466,27.9458579 793.607971,26.3557542 792.43,24.93 C792.037151,24.4521576 791.619931,23.9948842 791.18,23.56 C787.654014,20.0046664 782.86709,17.9849583 777.86,17.94 L777.62,17.94 C772.529682,17.9373453 767.647088,19.9582906 764.047689,23.5576893 C760.448291,27.1570881 758.427345,32.0396822 758.43,37.13 L762.61,39.13 L762.61,37.13 C762.611295,31.0627743 766.267443,25.5938073 771.873448,23.273477 C777.479454,20.9531468 783.931199,22.2384488 788.22,26.53 L788.48,26.79 C791.144771,29.5718935 792.628545,33.277746 792.62,37.13 C792.62,41.95 790.69,45.06 788.01,49.36 C787.32,50.46 786.61,51.61 785.88,52.87 C785.36,53.77 784.88,54.66 784.42,55.53 C783.524151,57.4703143 782.359368,59.2747187 780.96,60.89 C779.690024,62.2041488 777.915426,62.9074288 776.09,62.82 C774.030301,62.882982 772.032498,62.1112676 770.55,60.68 L767.55,63.68 C769.816283,65.8973622 772.880135,67.108485 776.05,67.04 C778.990634,67.1315522 781.834786,65.9851848 783.89,63.88 C785.591272,61.9808491 787.003131,59.8411582 788.08,57.53 C788.52,56.7 788.98,55.84 789.46,55.01 C790.16,53.81 790.85,52.69 791.53,51.61 C794.34,47.09 796.76,43.19 796.76,37.17 L796.76,36.93" id="Shape" fill="#000000"></path>
            <path d="M1094.36,54.59 C1094.70802,54.6023822 1095.03568,54.7571256 1095.26633,55.0180257 C1095.49698,55.2789257 1095.61038,55.6230914 1095.58,55.97 L1093,55.97 C1093.14,55.07 1093.69,54.59 1094.36,54.59 Z M1097.19,57.19 C1097.25231,56.8941144 1097.28248,56.5923651 1097.28,56.29 C1097.32832,55.4945438 1097.03902,54.7155803 1096.48318,54.1445081 C1095.92733,53.5734359 1095.15647,53.2631898 1094.36,53.29 C1092.71172,53.2699462 1091.28227,54.4252303 1090.95609,56.0410435 C1090.62992,57.6568566 1091.49927,59.2761869 1093.02626,59.8971061 C1094.55326,60.5180253 1096.30599,59.9649146 1097.2,58.58 L1095.66,57.71 C1095.5827,58.3417841 1095.03617,58.8102356 1094.4,58.79 C1093.63,58.79 1093.04,58.27 1092.96,57.21 L1097.19,57.19 Z M1085.7,60 L1087.53,60 L1087.53,56.27 C1087.53,55.42 1087.76,54.88 1088.33,54.88 C1088.9,54.88 1088.94,55.28 1088.94,55.71 C1088.92822,56.071671 1088.89482,56.4323143 1088.84,56.79 L1090.48,55.79 C1090.52668,55.5359933 1090.55011,55.2782604 1090.55,55.02 C1090.55,54.07 1090.04,53.29 1089.12,53.29 C1088.38191,53.3308231 1087.73625,53.8003961 1087.47,54.49 L1087.57,53.42 L1085.74,53.42 L1085.7,60 Z M1081.64,54.63 C1081.98802,54.6423822 1082.31568,54.7971256 1082.54633,55.0580257 C1082.77698,55.3189257 1082.89038,55.6630914 1082.86,56.01 L1080.28,56.01 C1080.42,55.11 1080.96,54.63 1081.64,54.63 Z M1084.47,57.23 C1084.53231,56.9341144 1084.56248,56.6323651 1084.56,56.33 C1084.60832,55.5345438 1084.31902,54.7555803 1083.76318,54.1845081 C1083.20733,53.6134359 1082.43647,53.3031898 1081.64,53.33 C1079.99172,53.3099462 1078.56227,54.4652303 1078.23609,56.0810435 C1077.90992,57.6968566 1078.77927,59.3161869 1080.30626,59.9371061 C1081.83326,60.5580253 1083.58599,60.0049146 1084.48,58.62 L1082.94,57.75 C1082.85829,58.3794122 1082.3145,58.8455181 1081.68,58.83 C1080.91,58.83 1080.32,58.31 1080.24,57.25 L1084.47,57.23 Z M1077.38,55.81 C1077.38,54.19 1076.59,53.31 1075.38,53.31 C1074.52714,53.282373 1073.7401,53.7663996 1073.38,54.54 C1073.38,54.54 1073.47,53.75 1073.47,52.94 L1073.47,50.61 L1071.64,50.61 L1071.64,60 L1073.47,60 L1073.47,56.13 C1073.4299,55.805969 1073.53067,55.4802978 1073.74675,55.2355297 C1073.96283,54.9907616 1074.2735,54.8503926 1074.6,54.85 C1075.28,54.85 1075.6,55.31 1075.6,56.18 L1075.6,60 L1077.44,60 L1077.38,55.81 Z M1064.64,54.63 C1064.98802,54.6423822 1065.31568,54.7971256 1065.54633,55.0580257 C1065.77698,55.3189257 1065.89038,55.6630914 1065.86,56.01 L1063.28,56.01 C1063.42,55.11 1063.96,54.63 1064.64,54.63 Z M1067.46,57.23 C1067.52909,56.9350582 1067.56266,56.6329135 1067.56,56.33 C1067.60832,55.5345438 1067.31902,54.7555803 1066.76318,54.1845081 C1066.20733,53.6134359 1065.43647,53.3031898 1064.64,53.33 C1062.99172,53.3099462 1061.56227,54.4652303 1061.23609,56.0810435 C1060.90992,57.6968566 1061.77927,59.3161869 1063.30626,59.9371061 C1064.83326,60.5580253 1066.58599,60.0049146 1067.48,58.62 L1065.93,57.75 C1065.85751,58.3802437 1065.31409,58.8497554 1064.68,58.83 C1063.91,58.83 1063.31,58.31 1063.24,57.25 L1067.46,57.23 Z M1056,60 L1057.82,60 L1057.82,56.27 C1057.82,55.42 1058.06,54.88 1058.63,54.88 C1059.2,54.88 1059.24,55.28 1059.24,55.71 C1059.23107,56.0722872 1059.19429,56.4333513 1059.13,56.79 L1060.78,55.79 C1060.82668,55.5359933 1060.85011,55.2782604 1060.85,55.02 C1060.85,54.07 1060.34,53.29 1059.42,53.29 C1058.68191,53.3308231 1058.03625,53.8003961 1057.77,54.49 L1057.86,53.42 L1056,53.42 L1056,60 Z M1052.84,57.54 C1052.85723,57.8720927 1052.73353,58.1960384 1052.49934,58.4321292 C1052.26515,58.6682199 1051.94222,58.7945371 1051.61,58.78 C1051.04,58.78 1050.76,58.51 1050.76,58.11 C1050.76,57.71 1051.26,57.45 1051.82,57.31 C1052.19709,57.2445959 1052.54564,57.066836 1052.82,56.8 L1052.84,57.54 Z M1051.84,54.71 C1052.37,54.71 1052.77,55 1052.77,55.42 C1052.77,55.84 1052.27,56 1051.37,56.19 C1050.47,56.38 1048.97,56.77 1048.97,58.24 C1048.96244,58.7763642 1049.18196,59.2909311 1049.57437,59.6566669 C1049.96677,60.0224028 1050.49549,60.2052252 1051.03,60.16 C1051.78085,60.1692531 1052.4836,59.7914271 1052.89,59.16 C1052.95244,59.4520743 1053.07504,59.7279361 1053.25,59.97 L1054.63,59.97 C1054.50286,59.4330658 1054.44904,58.8813835 1054.47,58.33 L1054.47,55.72 C1054.49194,55.028733 1054.2121,54.3621114 1053.70331,53.8936409 C1053.19452,53.4251705 1052.50711,53.2011914 1051.82,53.28 C1050.51848,53.2250883 1049.30851,53.947925 1048.74,55.12 L1050.35,55.98 C1050.4441,55.2470605 1051.06117,54.6938218 1051.8,54.68 L1051.84,54.71 Z M1039.04,57.68 C1039.04,59.3 1039.79,60.18 1041.04,60.18 C1041.86699,60.1859802 1042.61972,59.7037593 1042.96,58.95 L1043,60 L1044.84,60 L1044.84,53.47 L1043,53.47 L1043,57.36 C1043,58.11 1042.59,58.62 1041.91,58.62 C1041.23,58.62 1040.91,58.16 1040.91,57.29 L1040.91,53.47 L1039.08,53.47 L1039.04,57.68 Z M1033.45,56.75 C1033.45,55.59 1033.85,54.75 1034.76,54.75 C1035.67,54.75 1036.06,55.61 1036.06,56.75 C1036.06,57.89 1035.65,58.75 1034.76,58.75 C1033.87,58.75 1033.45,57.89 1033.45,56.75 Z M1034.76,60.18 C1036.17156,60.2911338 1037.50703,59.5260026 1038.12503,58.2520659 C1038.74304,56.9781293 1038.51734,55.4556462 1037.55631,54.4157996 C1036.59529,53.375953 1035.09528,53.0311785 1033.77667,53.5470564 C1032.45807,54.0629342 1031.59025,55.3340732 1031.59,56.75 C1031.50764,57.6370193 1031.80593,58.5172733 1032.41056,59.1714959 C1033.01519,59.8257185 1033.86925,60.1923265 1034.76,60.18 Z M1027.2,60.02 L1029.12,60.02 L1029.12,56.68 L1032.12,51.05 L1030.12,51.05 L1028.69,53.88 C1028.49786,54.2633917 1028.32759,54.6573557 1028.18,55.06 C1028.04352,54.6545495 1027.87637,54.2600765 1027.68,53.88 L1026.25,51.05 L1024.17,51.05 L1027.17,56.7 L1027.2,60.02 Z" id="Shape" fill="#000000"></path>
            <path d="M1073.26,44.4 L1075.09,44.4 L1075.09,40.67 C1075.09,39.82 1075.32,39.28 1075.89,39.28 C1076.46,39.28 1076.5,39.68 1076.5,40.11 C1076.49413,40.4687022 1076.4607,40.8264228 1076.4,41.18 L1078.05,40.24 C1078.0901,39.9852973 1078.11017,39.7278408 1078.11,39.47 C1078.11,38.47 1077.61,37.74 1076.68,37.74 C1075.94291,37.7770706 1075.29837,38.2486856 1075.04,38.94 L1075.13,37.87 L1073.3,37.87 L1073.26,44.4 Z M1070.34,35.14 C1069.78772,35.14 1069.34,35.5877153 1069.34,36.14 C1069.34,36.6922847 1069.78772,37.14 1070.34,37.14 C1070.89228,37.14 1071.34,36.6922847 1071.34,36.14 C1071.34,35.5877153 1070.89228,35.14 1070.34,35.14 Z M1067.76,35.14 C1067.20772,35.14 1066.76,35.5877153 1066.76,36.14 C1066.76,36.6922847 1067.20772,37.14 1067.76,37.14 C1068.31228,37.14 1068.76,36.6922847 1068.76,36.14 C1068.76,35.5877153 1068.31228,35.14 1067.76,35.14 Z M1070.11,41.94 C1070.12723,42.2720927 1070.00353,42.5960384 1069.76934,42.8321292 C1069.53515,43.0682199 1069.21222,43.1945371 1068.88,43.18 C1068.31,43.18 1068.02,42.91 1068.02,42.51 C1068.02,42.11 1068.53,41.85 1069.09,41.7 C1069.46594,41.6373981 1069.81436,41.4631874 1070.09,41.2 L1070.11,41.94 Z M1069.11,39.11 C1069.65,39.11 1070.05,39.4 1070.05,39.82 C1070.05,40.24 1069.54,40.39 1068.65,40.59 C1067.6,40.8 1066.25,41.17 1066.25,42.59 C1066.24244,43.1263642 1066.46196,43.6409311 1066.85437,44.0066669 C1067.24677,44.3724028 1067.77549,44.5552252 1068.31,44.51 C1069.06179,44.5231249 1069.76631,44.1443502 1070.17,43.51 C1070.23413,43.8063666 1070.36022,44.0858164 1070.54,44.33 L1072,44.33 C1071.87617,43.7892257 1071.82571,43.2342396 1071.85,42.68 L1071.85,40.08 C1071.87537,39.3877005 1071.59656,38.7189602 1071.08693,38.2497114 C1070.57729,37.7804627 1069.88786,37.5576898 1069.2,37.64 C1067.89691,37.5889067 1066.68596,38.3099942 1066.11,39.48 L1067.72,40.34 C1067.8141,39.6070605 1068.43117,39.0538218 1069.17,39.04 L1069.11,39.11 Z M1065.06,40.14 C1065.06,38.52 1064.27,37.64 1063.06,37.64 C1062.20571,37.60696 1061.41592,38.0926832 1061.06,38.87 C1061.06,38.87 1061.15,38.08 1061.15,37.26 L1061.15,35 L1059.32,35 L1059.32,44.39 L1061.15,44.39 L1061.15,40.51 C1061.11299,40.1875776 1061.21516,39.8646647 1061.43089,39.6222062 C1061.64662,39.3797477 1061.95546,39.2407297 1062.28,39.24 C1062.96,39.24 1063.28,39.7 1063.28,40.57 L1063.28,44.39 L1065,44.39 L1065.06,40.14 Z M1050.94,44.33 L1052.77,44.33 L1052.77,40.6 C1052.77,39.75 1053,39.21 1053.57,39.21 C1054.14,39.21 1054.18,39.61 1054.18,40.04 C1054.17413,40.3987022 1054.1407,40.7564228 1054.08,41.11 L1055.73,40.17 C1055.7701,39.9152973 1055.79017,39.6578408 1055.79,39.4 C1055.79,38.4 1055.29,37.67 1054.37,37.67 C1053.63102,37.7083095 1052.98413,38.1787726 1052.72,38.87 L1052.81,37.8 L1050.98,37.8 L1050.94,44.33 Z M1048.02,35.07 C1047.46772,35.07 1047.02,35.5177153 1047.02,36.07 C1047.02,36.6222847 1047.46772,37.07 1048.02,37.07 C1048.57228,37.07 1049.02,36.6222847 1049.02,36.07 C1049.02,35.5177153 1048.57228,35.07 1048.02,35.07 Z M1045.44,35.07 C1044.88772,35.07 1044.44,35.5177153 1044.44,36.07 C1044.44,36.6222847 1044.88772,37.07 1045.44,37.07 C1045.99228,37.07 1046.44,36.6222847 1046.44,36.07 C1046.44,35.5177153 1045.99228,35.07 1045.44,35.07 Z M1047.79,41.87 C1047.80723,42.2020927 1047.68353,42.5260384 1047.44934,42.7621292 C1047.21515,42.9982199 1046.89222,43.1245371 1046.56,43.11 C1045.99,43.11 1045.7,42.84 1045.7,42.44 C1045.7,42.04 1046.21,41.78 1046.77,41.63 C1047.14594,41.5673981 1047.49436,41.3931874 1047.77,41.13 L1047.79,41.87 Z M1046.79,39.04 C1047.32,39.04 1047.72,39.33 1047.72,39.75 C1047.72,40.17 1047.21,40.32 1046.32,40.52 C1045.32,40.73 1043.92,41.1 1043.92,42.52 C1043.91244,43.0563642 1044.13196,43.5709311 1044.52437,43.9366669 C1044.91677,44.3024028 1045.44549,44.4852252 1045.98,44.44 C1046.73179,44.4531249 1047.43631,44.0743502 1047.84,43.44 C1047.90413,43.7363666 1048.03022,44.0158164 1048.21,44.26 L1049.58,44.26 C1049.45617,43.7192257 1049.40571,43.1642396 1049.43,42.61 L1049.43,40.01 C1049.45537,39.3177005 1049.17656,38.6489602 1048.66693,38.1797114 C1048.15729,37.7104627 1047.46786,37.4876898 1046.78,37.57 C1045.47691,37.5189067 1044.26596,38.2399942 1043.69,39.41 L1045.3,40.27 C1045.3987,39.5354961 1046.01901,38.9831614 1046.76,38.97 L1046.79,39.04 Z M1034,42.05 C1034,43.67 1034.76,44.56 1036,44.56 C1036.83164,44.5721701 1037.58901,44.0830343 1037.92,43.32 L1037.83,44.4 L1039.67,44.4 L1039.67,37.87 L1037.83,37.87 L1037.83,41.76 C1037.83,42.51 1037.43,43.01 1036.74,43.01 C1036.05,43.01 1035.74,42.56 1035.74,41.69 L1035.74,37.87 L1034,37.87 L1034,42.05 Z M1030.89,39.89 C1030.89,41.46 1030.19,42.75 1028.67,42.75 L1027,42.75 L1027,37.07 L1028.67,37.07 C1030.19,37.07 1030.89,38.36 1030.89,39.89 Z M1025.1,35.43 L1025.1,44.43 L1028.47,44.43 C1030.95528,44.43 1032.97,42.4152814 1032.97,39.93 C1032.97,37.4447186 1030.95528,35.43 1028.47,35.43 L1025.1,35.43 Z" id="Shape" fill="#000000"></path>
            <path d="M1080.54,19.58 C1079.98772,19.58 1079.54,20.0277153 1079.54,20.58 C1079.54,21.1322847 1079.98772,21.58 1080.54,21.58 C1081.09228,21.58 1081.54,21.1322847 1081.54,20.58 C1081.54,20.0277153 1081.09228,19.58 1080.54,19.58 Z M1077.96,19.58 C1077.40772,19.58 1076.96,20.0277153 1076.96,20.58 C1076.96,21.1322847 1077.40772,21.58 1077.96,21.58 C1078.51228,21.58 1078.96,21.1322847 1078.96,20.58 C1078.96,20.0277153 1078.51228,19.58 1077.96,19.58 Z M1080.3,26.38 C1080.31723,26.7120927 1080.19353,27.0360384 1079.95934,27.2721292 C1079.72515,27.5082199 1079.40222,27.6345371 1079.07,27.62 C1078.5,27.62 1078.22,27.35 1078.22,26.95 C1078.22,26.55 1078.72,26.28 1079.28,26.14 C1079.65594,26.0773981 1080.00436,25.9031874 1080.28,25.64 L1080.3,26.38 Z M1079.3,23.55 C1079.83,23.55 1080.23,23.83 1080.23,24.26 C1080.23,24.69 1079.73,24.83 1078.83,25.03 C1077.93,25.23 1076.43,25.61 1076.43,27.08 C1076.42244,27.6163642 1076.64196,28.1309311 1077.03437,28.4966669 C1077.42677,28.8624028 1077.95549,29.0452252 1078.49,29 C1079.24038,29.0073515 1079.94228,28.6299883 1080.35,28 C1080.40648,28.2970312 1080.52956,28.5773922 1080.71,28.82 L1082.08,28.82 C1081.96121,28.2784355 1081.91081,27.7241084 1081.93,27.17 L1081.93,24.57 C1081.95537,23.8777005 1081.67656,23.2089602 1081.16693,22.7397114 C1080.65729,22.2704627 1079.96786,22.0476898 1079.28,22.13 C1077.97848,22.0750883 1076.76851,22.797925 1076.2,23.97 L1077.81,24.83 C1077.9041,24.0970605 1078.52117,23.5438218 1079.26,23.53 L1079.3,23.55 Z M1072.81,27.64 C1072.03575,27.6659941 1071.35017,27.1434461 1071.17,26.39 L1069.57,27.29 C1070.25351,28.4255264 1071.51835,29.0792201 1072.84,28.98 C1074.25,28.98 1075.47,28.2 1075.47,26.89 C1075.47,25.58 1074.54,25.23 1073.47,24.89 C1072.4,24.55 1071.64,24.53 1071.64,24.04 C1071.64,23.55 1072.03,23.45 1072.5,23.45 C1073.12924,23.4312799 1073.69026,23.8437927 1073.86,24.45 L1075.43,23.57 C1074.74926,22.5945381 1073.61858,22.0329631 1072.43,22.08 C1071.02,22.08 1069.84,22.86 1069.84,24.08 C1069.84,25.3 1071.08,25.82 1072.06,26.08 C1073.04,26.34 1073.63,26.43 1073.63,26.94 C1073.63,27.45 1073.27,27.58 1072.76,27.58 L1072.81,27.64 Z M1066.27,27.58 C1065.49453,27.6030568 1064.80773,27.0827589 1064.62,26.33 L1063.02,27.23 C1063.70516,28.363769 1064.96883,29.0168612 1066.29,28.92 C1067.71,28.92 1068.92,28.14 1068.92,26.83 C1068.92,25.52 1067.99,25.17 1066.92,24.83 C1065.85,24.49 1065.09,24.47 1065.09,23.98 C1065.09,23.49 1065.48,23.39 1065.94,23.39 C1066.5718,23.3702321 1067.13625,23.7822432 1067.31,24.39 L1068.87,23.51 C1068.1918,22.5316035 1067.05938,21.9691718 1065.87,22.02 C1064.47,22.02 1063.29,22.8 1063.29,24.02 C1063.29,25.24 1064.52,25.76 1065.51,26.02 C1066.35,26.25 1067.07,26.37 1067.07,26.88 C1067.07,27.39 1066.71,27.52 1066.21,27.52 L1066.27,27.58 Z M1060.53,19.44 C1059.97772,19.44 1059.53,19.8877153 1059.53,20.44 C1059.53,20.9922847 1059.97772,21.44 1060.53,21.44 C1061.08228,21.44 1061.53,20.9922847 1061.53,20.44 C1061.53,19.8877153 1061.08228,19.44 1060.53,19.44 Z M1057.95,19.44 C1057.39772,19.44 1056.95,19.8877153 1056.95,20.44 C1056.95,20.9922847 1057.39772,21.44 1057.95,21.44 C1058.50228,21.44 1058.95,20.9922847 1058.95,20.44 C1058.95,19.8877153 1058.50228,19.44 1057.95,19.44 Z M1060.29,26.24 C1060.30723,26.5720927 1060.18353,26.8960384 1059.94934,27.1321292 C1059.71515,27.3682199 1059.39222,27.4945371 1059.06,27.48 C1058.49,27.48 1058.2,27.21 1058.2,26.81 C1058.2,26.41 1058.71,26.14 1059.27,26 C1059.64594,25.9373981 1059.99436,25.7631874 1060.27,25.5 L1060.29,26.24 Z M1059.29,23.41 C1059.82,23.41 1060.22,23.69 1060.22,24.12 C1060.22,24.55 1059.71,24.69 1058.82,24.89 C1057.82,25.09 1056.42,25.47 1056.42,26.94 C1056.41244,27.4763642 1056.63196,27.9909311 1057.02437,28.3566669 C1057.41677,28.7224028 1057.94549,28.9052252 1058.48,28.86 C1059.23038,28.8673515 1059.93228,28.4899883 1060.34,27.86 C1060.39648,28.1570312 1060.51956,28.4373922 1060.7,28.68 L1062.07,28.68 C1061.94617,28.1392257 1061.89571,27.5842396 1061.92,27.03 L1061.92,24.43 C1061.94537,23.7377005 1061.66656,23.0689602 1061.15693,22.5997114 C1060.64729,22.1304627 1059.95786,21.9076898 1059.27,21.99 C1057.96848,21.9350883 1056.75851,22.657925 1056.19,23.83 L1057.79,24.69 C1057.8887,23.9554961 1058.50901,23.4031614 1059.25,23.39 L1059.29,23.41 Z M1054.97,26.94 C1054.89,27.11 1054.73,27.36 1054.46,27.36 C1054.19,27.36 1054.01,27.19 1054.01,26.68 L1054.01,23.7 L1055.49,23.7 L1055.49,22.3 L1054.01,22.3 L1054.01,20 L1052.19,21 L1052.19,22.32 L1051.14,22.32 L1051.14,23.72 L1052.19,23.72 L1052.19,27 C1052.09909,27.5315842 1052.26277,28.0750314 1052.63215,28.4679815 C1053.00152,28.8609315 1053.53381,29.0578849 1054.07,29 C1054.64833,28.9976011 1055.20748,28.7923439 1055.65,28.42 L1054.97,26.94 Z M1047.37,26.94 C1047.29,27.11 1047.13,27.36 1046.86,27.36 C1046.59,27.36 1046.41,27.19 1046.41,26.68 L1046.41,23.7 L1047.89,23.7 L1047.89,22.3 L1046.41,22.3 L1046.41,20 L1044.59,21 L1044.59,22.32 L1043.59,22.32 L1043.59,23.72 L1044.59,23.72 L1044.59,27 C1044.49909,27.5315842 1044.66277,28.0750314 1045.03215,28.4679815 C1045.40152,28.8609315 1045.93381,29.0578849 1046.47,29 C1047.05116,28.9965742 1047.61313,28.7915802 1048.06,28.42 L1047.37,26.94 Z M1040.13,23.31 C1040.47904,23.3194853 1040.8085,23.4733866 1041.03977,23.7349872 C1041.27104,23.9965877 1041.38338,24.3424281 1041.35,24.69 L1039,24.69 C1039.14,23.79 1039.69,23.31 1040.36,23.31 L1040.13,23.31 Z M1043.19,25.9 C1043.25318,25.6076316 1043.28337,25.3090986 1043.28,25.01 C1043.3315,24.2137207 1043.04324,23.4328998 1042.48668,22.8610966 C1041.93013,22.2892935 1041.15738,21.9800408 1040.36,22.01 C1038.71172,21.9899462 1037.28227,23.1452303 1036.95609,24.7610435 C1036.62992,26.3768566 1037.49927,27.9961869 1039.02626,28.6171061 C1040.55326,29.2380253 1042.30599,28.6849146 1043.2,27.3 L1041.66,26.43 C1041.57829,27.0594122 1041.0345,27.5255181 1040.4,27.51 C1039.64,27.51 1039.04,26.99 1038.96,25.92 L1043.19,25.9 Z M1034.19,28.68 L1036.03,28.68 L1036.03,19.29 L1034.19,19.29 L1034.19,28.68 Z M1031.05,24.17 C1031.05,25.8 1030.34,27.17 1028.83,27.17 C1027.32,27.17 1026.61,25.82 1026.61,24.17 C1026.61,22.52 1027.32,21.24 1028.83,21.24 C1030.34,21.24 1031.05,22.53 1031.05,24.17 Z M1028.83,28.84 C1031.15,28.84 1033,27.07 1033,24.17 C1033,21.27 1031.15,19.55 1028.83,19.55 C1026.51,19.55 1024.67,21.26 1024.67,24.17 C1024.67,27.08 1026.51,28.84 1028.83,28.84 Z" id="Shape" fill="#000000"></path>
            <polygon id="Shape" fill="#EC2027" points="974.12 60.4 993.7 18.7 1013.28 60.4"></polygon>
            <g id="WC" transform="translate(242.000000, 19.000000)" fill="#000000">
                <path d="M106.31,39.22 C106.23,39.39 106.07,39.64 105.8,39.64 C105.53,39.64 105.35,39.47 105.35,38.97 L105.35,35.83 L106.82,35.83 L106.82,34.43 L105.35,34.43 L105.35,32.09 L103.53,33.09 L103.53,34.42 L102.53,34.42 L102.53,35.82 L103.53,35.82 L103.53,39.14 C103.439091,39.6715842 103.602774,40.2150314 103.972147,40.6079815 C104.34152,41.0009315 104.873814,41.1978849 105.41,41.14 C105.986935,41.1395657 106.545667,40.9379978 106.99,40.57 L106.31,39.22 Z M99.07,35.59 C99.4180163,35.6023822 99.7456808,35.7571256 99.9763316,36.0180257 C100.206982,36.2789257 100.320382,36.6230914 100.29,36.97 L97.71,36.97 C97.85,36.07 98.4,35.59 99.07,35.59 Z M101.9,38.19 C101.96231,37.8941144 101.992485,37.5923651 101.99,37.29 C102.038323,36.4945438 101.74902,35.7155803 101.193177,35.1445081 C100.637333,34.5734359 99.8664715,34.2631898 99.07,34.29 C97.4217162,34.2699462 95.9922651,35.4252303 95.6660909,37.0410435 C95.3399167,38.6568566 96.2092736,40.2761869 97.7362644,40.8971061 C99.2632552,41.5180253 101.01599,40.9649146 101.91,39.58 L100.37,38.71 C100.2927,39.3417841 99.7461737,39.8102356 99.11,39.79 C98.34,39.79 97.75,39.27 97.67,38.21 L101.9,38.19 Z M92.9,40.96 L94.74,40.96 L94.74,31.57 L92.9,31.57 L92.9,40.96 Z M90.47,31.6 C89.9267287,31.632656 89.5093273,32.0937836 89.5307787,32.6376126 C89.55223,33.1814416 90.0046563,33.6082589 90.5488119,33.5980214 C91.0929675,33.5877838 91.5290194,33.144251 91.53,32.6 C91.5304972,32.3240529 91.4169446,32.0601655 91.216222,31.8708046 C91.0154995,31.6814438 90.7454504,31.5834427 90.47,31.6 Z M89.55,40.96 L91.39,40.96 L91.39,34.43 L89.55,34.43 L89.55,40.96 Z M84,37.69 C84,36.53 84.4,35.69 85.31,35.69 C86.22,35.69 86.61,36.55 86.61,37.69 C86.61,38.83 86.21,39.69 85.31,39.69 C84.41,39.69 84,38.83 84,37.69 Z M85.31,41.12 C86.7220684,41.2353183 88.0604179,40.4731168 88.6816547,39.1998139 C89.3028914,37.926511 89.0799413,36.4025609 88.1199847,35.3605826 C87.160028,34.3186044 85.6594241,33.9717348 84.3395686,34.4867268 C83.019713,35.0017188 82.1505825,36.2732308 82.15,37.69 C82.0678381,38.5752646 82.3648121,39.453864 82.9672163,40.1077395 C83.5696205,40.7616149 84.4209813,41.1294674 85.31,41.12 Z M75.53,33.69 L78.15,33.69 L78.15,41 L80,41 L80,33.73 L82.62,33.73 L82.62,32 L75.46,32 L75.53,33.69 Z" id="Shape"></path>
                <path d="M109.74,23.66 C109.66,23.83 109.51,24.08 109.24,24.08 C108.97,24.08 108.78,23.91 108.78,23.4 L108.78,20.27 L110,20.27 L110,18.87 L108.76,18.87 L108.76,16.53 L106.95,17.53 L106.95,18.86 L105.9,18.86 L105.9,20.26 L107,20.26 L107,23.58 C106.909091,24.1115842 107.072774,24.6550314 107.442147,25.0479815 C107.81152,25.4409315 108.343814,25.6378849 108.88,25.58 C109.456067,25.574676 110.013213,25.3736803 110.46,25.01 L109.74,23.66 Z M114.27,23.66 C114.201674,23.890981 113.999797,24.0572329 113.76,24.08 C113.48,24.08 113.31,23.91 113.31,23.4 L113.31,20.27 L114.8,20.27 L114.8,18.87 L113.31,18.87 L113.31,16.53 L111.51,17.53 L111.51,18.86 L110.56,18.86 L110.56,20.26 L111.51,20.26 L111.51,23.58 C111.419091,24.1115842 111.582774,24.6550314 111.952147,25.0479815 C112.32152,25.4409315 112.853814,25.6378849 113.39,25.58 C113.977599,25.5787145 114.546577,25.3737411 115,25 L114.27,23.66 Z M102.51,20 C102.858016,20.0123822 103.185681,20.1671256 103.416332,20.4280257 C103.646982,20.6889257 103.760382,21.0330914 103.73,21.38 L101.15,21.38 C101.29,20.48 101.83,20 102.51,20 Z M105.33,22.6 C105.39231,22.3041144 105.422485,22.0023651 105.42,21.7 C105.471277,20.9055198 105.184342,20.1263809 104.630028,19.554923 C104.075714,18.9834652 103.305673,18.6729385 102.51,18.7 C100.861716,18.6799462 99.4322651,19.8352303 99.1060909,21.4510435 C98.7799167,23.0668566 99.6492736,24.6861869 101.176264,25.3071061 C102.703255,25.9280253 104.45599,25.3749146 105.35,23.99 L103.8,23.12 C103.723035,23.7478682 103.18239,24.2149853 102.55,24.2 C101.78,24.2 101.18,23.68 101.11,22.62 L105.33,22.6 Z M96.33,25.37 L98.17,25.37 L98.17,16 L96.33,16 L96.33,25.37 Z M93.18,22.91 C93.1972267,23.2420927 93.0735284,23.5660384 92.8393416,23.8021292 C92.6051548,24.0382199 92.2822213,24.1645371 91.95,24.15 C91.38,24.15 91.09,23.88 91.09,23.48 C91.09,23.08 91.6,22.82 92.16,22.67 C92.5359357,22.6073981 92.884357,22.4331874 93.16,22.17 L93.18,22.91 Z M92.18,20.08 C92.71,20.08 93.11,20.37 93.11,20.79 C93.11,21.21 92.6,21.36 91.71,21.56 C90.71,21.77 89.31,22.14 89.31,23.56 C89.3024436,24.0963642 89.5219646,24.6109311 89.9143687,24.9766669 C90.3067728,25.3424028 90.8354924,25.5252252 91.37,25.48 C92.121792,25.4931249 92.8263129,25.1143502 93.23,24.48 C93.2864751,24.7770312 93.4095604,25.0573922 93.59,25.3 L94.96,25.3 C94.8361674,24.7592257 94.7857141,24.2042396 94.81,23.65 L94.81,21.05 C94.8353686,20.3577005 94.556561,19.6889602 94.0469261,19.2197114 C93.5372912,18.7504627 92.8478569,18.5276898 92.16,18.61 C90.8584803,18.5550883 89.6485146,19.277925 89.08,20.45 L90.68,21.31 C90.7786972,20.5754961 91.3990115,20.0231614 92.14,20.01 L92.18,20.08 Z M83.86,22.01 C83.86,20.85 84.26,20.01 85.17,20.01 C86.08,20.01 86.47,20.87 86.47,22.01 C86.47,23.15 86.07,24.01 85.17,24.01 C84.27,24.01 83.86,23.15 83.86,22.01 Z M85.17,25.44 C86.5820684,25.5553183 87.9204179,24.7931168 88.5416547,23.5198139 C89.1628914,22.246511 88.9399413,20.7225609 87.9799847,19.6805826 C87.020028,18.6386044 85.5194241,18.2917348 84.1995686,18.8067268 C82.879713,19.3217188 82.0105825,20.5932308 82.01,22.01 C81.9278381,22.8952646 82.2248121,23.773864 82.8272163,24.4277395 C83.4296205,25.0816149 84.2809813,25.4494674 85.17,25.44 Z M75.39,18.01 L78.01,18.01 L78.01,25.28 L80,25.28 L80,18.01 L82.62,18.01 L82.62,16.31 L75.46,16.31 L75.39,18.01 Z" id="Shape"></path>
                <path d="M91,10 C92.7427644,9.99056382 94.2630405,8.81450117 94.71,7.13 L92.94,6 C92.88,7.22 92.26,8.3 91,8.3 C89.51,8.3 88.84,6.95 88.84,5.3 C88.84,3.65 89.51,2.37 91,2.37 C92.26,2.37 92.88,3.37 92.94,4.61 L94.71,3.49 C94.2555783,1.81908802 92.731535,0.664758736 91,0.68 C88.71,0.68 86.89,2.39 86.89,5.3 C86.89,8.21 88.71,10 91,10 Z M82,0.87 L80,0.87 L78.87,6.34 C78.77,6.87 78.64,7.84 78.64,7.84 C78.64,7.84 78.58,7 78.5,6.45 L77.66,0.87 L75.66,0.87 L77.33,9.87 L79.68,9.87 L80.76,4.72 C80.92,3.99 81.02,3.15 81.02,3.15 C81.02,3.15 81.11,3.99 81.27,4.72 L82.37,9.87 L84.72,9.87 L86.4,0.87 L84.4,0.87 L83.55,6.45 C83.48,7 83.41,7.84 83.41,7.84 C83.41,7.84 83.28,6.84 83.18,6.34 L82,0.87 Z" id="Shape"></path>
                <path d="M26.27,25.22 C26.16,25.79 26.06,26.49 25.98,27.16 C25.85,26.42 25.7,25.64 25.58,25.04 L21.09,4.9 L14.91,4.9 L10.38,25 C10.25,25.6 10.11,26.38 9.98,27.12 C9.89,26.45 9.8,25.75 9.69,25.18 L5.99,5.18 L5.94,4.87 L0,4.87 L6.24,35.03 L13,35.03 L17.44,15.53 C17.64,14.66 17.82,13.73 17.96,12.92 C18.1,13.73 18.27,14.66 18.47,15.53 L22.92,35.03 L29.7,35.03 L35.89,4.87 L30,4.87 L26.27,25.22 Z" id="Shape"></path>
                <path d="M57.53,24.58 C56.86,27.67 54.87,30.43 50.9,30.43 C48.5684037,30.494455 46.3655756,29.3628652 45.06,27.43 C43.6573133,25.1866929 42.9605615,22.5738739 43.06,19.93 C43.06,14.93 45.11,9.56 50.87,9.56 C54.39,9.56 56.79,11.69 57.53,15.34 L62.53,12.07 C61.808275,10.2897477 60.6697036,8.70877962 59.21,7.46 C56.88153,5.48229138 53.9147013,4.41636489 50.86,4.46 C47.2105191,4.41352994 43.7118916,5.91397973 41.23,8.59 C38.5037986,11.7399973 37.0742651,15.8070199 37.23,19.97 C37.0801593,24.1593047 38.5075557,28.252364 41.23,31.44 C43.6933762,34.1503493 47.1976622,35.6786984 50.86,35.64 C55.9458389,35.6629428 60.5426931,32.6141701 62.5,27.92 L57.53,24.58 Z" id="Shape"></path>
            </g>
        </g>
    </g>
</svg>