<?xml version="1.0" encoding="UTF-8"?>
<svg width="1664px" height="421px" viewBox="0 0 1664 421" version="1.1" xmlns="http://www.w3.org/2000/svg" xmlns:xlink="http://www.w3.org/1999/xlink">
    <!-- Generator: Sketch 51.3 (57544) - http://www.bohemiancoding.com/sketch -->
    <title>Oodi_Pohjakartta_2krs</title>
    <desc>Created with Sketch.</desc>
    <defs></defs>
    <g id="Page-1" stroke="none" stroke-width="1" fill="none" fill-rule="evenodd">
        <g id="Oodi_Pohjakartta_2krs" transform="translate(-96.000000, -6.000000)" fill="#FFFFFF" fill-rule="nonzero" stroke="#000000" stroke-width="3">
            <g id="varattavat_tilat" transform="translate(99.000000, 9.000000)">
                <path d="M238.184072,262.12 L256.6,277.137688 L256.6,294.06 L214.14,294.06 L214.14,262.12 L238.184072,262.12 Z" id="center-8"></path>
                <path d="M205.86,244.088878 L205.86,294.06 L113.091004,294.06 L117.060215,249.32881 L205.86,244.088878 Z" id="center-7"></path>
                <path d="M285.74,209.819227 L285.74,206.73 L284.18,206.73 L284.09657,209.727678 L285.74,209.819227 Z M284.18,208.23 L284.24,208.23 L284.24,209.73 L284.18,209.73 L284.18,208.23 Z M284.18,208.23 L284.26343,206.732322 L344.713735,210.09977 L345.766202,266.448864 L295.652182,270.238737 L282.74,256.91767 L282.74,208.23 L284.18,208.23 Z" id="center-6"></path>
                <path d="M240.513924,255 L214.14,255 L214.14,209.06104 L273.69,206.586371 L273.69,256.900696 L259.956315,270.345016 L258.920555,269.527341 L240.927094,255.322474 L240.513924,255 Z" id="center-5"></path>
                <path d="M114.532366,202.683274 L114.286557,200.859627 L111.3,201.06 L111.3,202.513112 L114.532366,202.683274 Z M112.801579,201.06 L114.3,201.06 L114.3,201.09 L112.8,201.09 L112.801579,201.06 Z M112.801579,201.06 L112.878855,199.592074 L205.86,204.486888 L205.86,238.327362 L116.988888,243.36618 L111.313443,201.260373 L112.8,201.06 L112.801579,201.06 Z" id="center-3"></path>
                <path d="M347.223505,166.5 L344.304526,203.353476 L296.5,198.618775 L296.5,166.5 L347.223505,166.5 Z" id="center-4"></path>
                <path d="M289.63,151.22 L289.63,198.439832 L213.37,201.562682 L213.37,151.22 L289.63,151.22 Z" id="center-2"></path>
                <path d="M205.86,151.22 L205.86,198.2503 L110.946312,193.298371 L113.911999,151.22 L205.86,151.22 Z" id="center-1"></path>
                <path d="M69.83,144.2 L69.83,199.5 L14.43,199.5 L14.43,144.2 L69.83,144.2 Z" id="top-left"></path>
                <path d="M66.83,202.21 L66.83,251.5 L17.43,251.5 L17.43,202.21 L66.83,202.21 Z" id="top-left-2"></path>
                <path d="M428.7,193.26 L428.7,227.531316 L381.36,229.421073 L381.36,193.26 L428.7,193.26 Z" id="top-right-1"></path>
                <path d="M481.83,193.26 L481.83,225.531081 L434.92,227.411327 L434.92,193.26 L481.83,193.26 Z" id="top-right-2"></path>
                <path d="M535.61,193.26 L535.61,223.5316 L488.05,225.420765 L488.05,193.26 L535.61,193.26 Z" id="top-right-3"></path>
                <path d="M59.39,308.5 L59.39,385.76 L-0.93,385.76 L-0.93,308.5 L59.39,308.5 Z" id="bottom-left-1"></path>
                <path d="M139.86,327.5 L139.86,385.75 L64.5,385.75 L64.5,327.5 L139.86,327.5 Z" id="bottom-left-2"></path>
                <path d="M214.06,327.5 L214.06,409.77 L144.98,409.77 L144.98,327.5 L214.06,327.5 Z" id="bottom-left-3"></path>
                <path d="M257.67,327.5 L257.67,395.41 L219.17,395.41 L219.17,327.5 L257.67,327.5 Z" id="bottom-left-4"></path>
                <path d="M299.89,327.5 L299.89,395.41 L262.78,395.41 L262.78,327.5 L299.89,327.5 Z" id="bottom-left-5"></path>
                <path d="M374.64,327.5 L374.64,416.29 L305.01,416.29 L305.01,327.5 L374.64,327.5 Z" id="bottom-left-6"></path>
                <path d="M460.75,255.575382 L460.75,368.75 L381.36,368.75 L381.36,259.431082 L460.75,255.575382 Z" id="lower-right-1"></path>
                <path d="M535.61,278.08 L535.61,368.75 L467.07,368.75 L467.07,278.08 L535.61,278.08 Z" id="lower-right-2"></path>
                <path d="M609.8,247.679487 L609.8,416.25 L543.27,416.25 L543.27,252.41293 L609.8,247.679487 Z" id="lower-right-3"></path>
                <path d="M702.9,-0.83 L702.9,67.5 L668.15,67.5 L668.15,-0.83 L702.9,-0.83 Z" id="north-3"></path>
                <path d="M801.36,-0.83 L801.36,67.5 L708.83,67.5 L708.83,-0.83 L801.36,-0.83 Z" id="north-4"></path>
                <path d="M662.21,-0.83 L662.21,67.5 L626.16,67.5 L626.16,-0.83 L662.21,-0.83 Z" id="north-2"></path>
                <path d="M620.22,-0.83 L620.22,67.5 L584.17,67.5 L584.17,-0.83 L620.22,-0.83 Z" id="north-1"></path>
                <path d="M1659.2,245.91 L1523.2,245.91 L1523.2,127.5 L1659.2,127.5 L1659.2,245.91 Z" id="far-east-1"></path>
            </g>
        </g>
    </g>
</svg>