<?xml version="1.0" encoding="UTF-8"?>
<svg width="2000px" height="456px" viewBox="0 0 2000 456" version="1.1" xmlns="http://www.w3.org/2000/svg" xmlns:xlink="http://www.w3.org/1999/xlink">
    <!-- Generator: Sketch 51.3 (57544) - http://www.bohemiancoding.com/sketch -->
    <title>Oodi_Pohjakartta_2krs</title>
    <desc>Created with Sketch.</desc>
    <defs></defs>
    <g id="Page-1" stroke="none" stroke-width="1" fill="none" fill-rule="evenodd">
        <g id="Oodi_Pohjakartta_2krs" fill-rule="nonzero">
            <g id="werklig_pohjapiirros" fill="#231F20">
                <path d="M1865.74,223.91 L1718.16,0.81 L1717.63,2.84217094e-14 L0,2.84217094e-14 L0,423.48 L1.65,423.61 C5.65,423.93 406.07,455.95 677.79,455.95 C947.26,455.95 1055.6,412.76 1127.29,384.19 C1163.58,369.72 1189.8,359.27 1223.04,359.27 C1261.98,359.27 1285.95,370.11 1316.31,383.83 C1366.63,406.56 1435.54,437.71 1620.19,437.71 L1676.81,437.71 C1861.06,437.71 1995.63,427.21 1996.97,427.1 L1999.97,426.86 L1865.74,223.91 Z M1925.34,320.49 L1859.46,386.38 L1855.14,379.66 L1920.95,313.86 L1925.34,320.49 Z M1920.52,313.2 L1854.72,379 L1850.4,372.29 L1916.13,306.57 L1920.52,313.2 Z M1915.69,305.91 L1850,371.63 L1845.68,364.92 L1911.32,299.28 L1915.69,305.91 Z M1910.87,298.62 L1845.24,364.26 L1840.93,357.55 L1906.48,292 L1910.87,298.62 Z M1906.05,291.33 L1840.5,356.88 L1836.19,350.17 L1901.66,284.7 L1906.05,291.33 Z M1901.23,284.05 L1835.76,349.51 L1831.45,342.8 L1896.84,277.41 L1901.23,284.05 Z M1896.4,276.76 L1831,342.14 L1826.69,335.43 L1892,270.12 L1896.4,276.76 Z M1891.58,269.47 L1826.28,334.77 L1821.97,328.05 L1887.19,262.83 L1891.58,269.47 Z M1886.76,262.18 L1821.54,327.39 L1817.23,320.68 L1882.37,255.54 L1886.76,262.18 Z M1881.94,254.89 L1816.81,320 L1812.49,313.29 L1877.55,248.23 L1881.94,254.89 Z M1877.12,247.6 L1812.12,312.6 L1807.8,305.89 L1872.8,240.89 L1877.12,247.6 Z M1872.29,240.31 L1807.29,305.31 L1802.97,298.6 L1867.86,233.71 L1872.29,240.31 Z M1867.47,233.02 L1802.59,297.9 L1798.27,291.19 L1858.85,230.61 L1863.74,227.38 L1867.47,233.02 Z M1823.07,254.28 L1855.64,232.74 L1797.85,290.53 L1793.54,283.82 L1823.07,254.28 Z M1793.07,283.16 L1789,276.8 L1819.83,256.41 L1793.07,283.16 Z M1592.84,3.59 L1715.7,3.59 L1784.78,108 L1592.84,108 L1592.84,3.59 Z M1166.29,3.59 L1274,3.59 L1274,72.72 L1083.57,72.72 L1083.57,39.94 L1166.29,39.94 L1166.29,3.59 Z M1153.59,36.36 L1142.59,36.36 L1162.73,16.21 L1162.73,27.21 L1153.59,36.36 Z M1162.71,28.36 L1162.71,36.36 L1154.71,36.36 L1162.71,28.36 Z M1162.71,15.16 L1141.48,36.39 L1130.48,36.39 L1162.74,4.13 L1162.71,15.16 Z M1162.14,3.62 L1129.37,36.39 L1118.37,36.39 L1151.14,3.62 L1162.14,3.62 Z M1150.03,3.62 L1117.26,36.39 L1106.26,36.39 L1139,3.59 L1150.03,3.62 Z M1137.91,3.62 L1105.14,36.39 L1094.14,36.39 L1126.91,3.62 L1137.91,3.62 Z M1125.8,3.62 L1093,36.36 L1082,36.36 L1114.77,3.59 L1125.8,3.62 Z M1113.69,3.62 L1080.92,36.39 L1080,36.39 L1080,37.32 L1044.57,72.75 L1033.57,72.75 L1102.69,3.62 L1113.69,3.62 Z M1068.79,72.75 L1057.79,72.75 L1080,50.49 L1080,61.49 L1068.79,72.75 Z M1080,62.6 L1080,72.72 L1069.88,72.72 L1080,62.6 Z M1056.68,72.72 L1045.68,72.72 L1080,38.38 L1080,49.38 L1056.68,72.72 Z M1101.59,3.59 L1032.46,72.72 L1021.46,72.72 L1090.58,3.59 L1101.59,3.59 Z M1089.48,3.59 L1020.35,72.72 L1009.35,72.72 L1078.48,3.59 L1089.48,3.59 Z M1077.36,3.59 L1008.24,72.72 L997.24,72.72 L1066.37,3.59 L1077.36,3.59 Z M1065.25,3.59 L996.12,72.72 L985.12,72.72 L1054.25,3.59 L1065.25,3.59 Z M1053.14,3.59 L984,72.72 L973,72.72 L1042.13,3.59 L1053.14,3.59 Z M1041.03,3.59 L971.9,72.72 L960.9,72.72 L1030,3.59 L1041.03,3.59 Z M1028.92,3.59 L959.79,72.72 L948.79,72.72 L1017.92,3.59 L1028.92,3.59 Z M1016.81,3.59 L947.68,72.72 L936.68,72.72 L1005.81,3.59 L1016.81,3.59 Z M1004.69,3.59 L935.57,72.72 L924.57,72.72 L993.7,3.59 L1004.69,3.59 Z M992.58,3.59 L923.45,72.72 L912.45,72.72 L981.58,3.59 L992.58,3.59 Z M908.83,3.59 L908.89,3.59 L919.89,3.59 L908.81,14.67 L908.83,3.59 Z M908.83,15.71 L921,3.59 L932,3.59 L908.81,26.78 L908.83,15.71 Z M908.83,27.82 L933.11,3.54 L944.11,3.54 L908.8,38.84 L908.83,27.82 Z M908.83,39.93 L945.22,3.54 L956.22,3.54 L908.82,51 L908.83,39.93 Z M908.83,52.04 L957.33,3.54 L968.33,3.54 L908.8,63.07 L908.83,52.04 Z M908.83,64.15 L969.45,3.54 L980.45,3.54 L911.32,72.67 L908.81,72.67 L908.83,64.15 Z M674.59,3.59 L674.59,10.09 L582,102.66 L582,91.66 L670,3.66 L674.59,3.59 Z M668.42,125.26 L657.42,125.26 L674.61,108.07 L674.61,119.07 L668.42,125.26 Z M674.59,120.18 L674.59,125.26 L669.51,125.26 L674.59,120.18 Z M656.31,125.26 L645.31,125.26 L674.59,96 L674.59,107 L656.31,125.26 Z M644.2,125.26 L633.2,125.26 L674.62,83.85 L674.62,94.85 L644.2,125.26 Z M632.09,125.26 L621.09,125.26 L674.62,71.73 L674.62,82.73 L632.09,125.26 Z M619.97,125.26 L609,125.26 L674.64,59.62 L674.64,70.62 L619.97,125.26 Z M607.86,125.26 L596.86,125.26 L674.61,47.51 L674.61,58.51 L607.86,125.26 Z M595.75,125.26 L584.75,125.26 L674.62,35.4 L674.62,46.4 L595.75,125.26 Z M583.64,125.26 L582,125.26 L582,115.86 L674.57,23.29 L674.57,34.29 L583.64,125.26 Z M582,114.77 L582,103.77 L674.57,11.19 L674.57,22.19 L582,114.77 Z M669,3.59 L582,90.59 L582,79.59 L658,3.59 L669,3.59 Z M656.89,3.59 L582,78.43 L582,67.43 L645.82,3.61 L656.89,3.59 Z M644.77,3.59 L582,66.32 L582,65.63 L571.69,65.63 L633.69,3.63 L644.77,3.59 Z M578.45,69.21 L578.45,125.21 L522.45,125.21 L522.45,69.21 L578.45,69.21 Z M632.66,3.59 L570.66,65.59 L559.66,65.59 L621.66,3.59 L632.66,3.59 Z M620.55,3.59 L558.55,65.59 L547.55,65.59 L609.55,3.59 L620.55,3.59 Z M608.44,3.59 L546.44,65.59 L535.44,65.59 L597.44,3.59 L608.44,3.59 Z M596.33,3.59 L534.33,65.59 L523.33,65.59 L585.33,3.59 L596.33,3.59 Z M584.22,3.59 L522.17,65.59 L518.8,65.59 L518.8,69 L462.52,125.28 L451.52,125.28 L573.17,3.59 L584.22,3.59 Z M511,125.26 L500,125.26 L518.86,106.41 L518.86,117.41 L511,125.26 Z M518.83,118.52 L518.83,125.26 L512.08,125.26 L518.83,118.52 Z M498.89,125.26 L487.89,125.26 L518.89,94.26 L518.89,105.26 L498.89,125.26 Z M486.77,125.26 L475.77,125.26 L518.85,82.18 L518.85,93.18 L486.77,125.26 Z M474.66,125.26 L463.66,125.26 L518.85,70.07 L518.85,81.07 L474.66,125.26 Z M572.11,3.59 L450.41,125.26 L439.41,125.26 L561.06,3.59 L572.11,3.59 Z M560,3.59 L438.3,125.26 L427.3,125.26 L549,3.59 L560,3.59 Z M547.89,3.59 L426.19,125.26 L415.19,125.26 L536.84,3.59 L547.89,3.59 Z M535.78,3.59 L414.07,125.26 L403.07,125.26 L524.72,3.59 L535.78,3.59 Z M523.67,3.59 L402,125.26 L391,125.26 L512.61,3.59 L523.67,3.59 Z M511.55,3.59 L389.85,125.26 L378.85,125.26 L500.5,3.59 L511.55,3.59 Z M499.44,3.59 L377.74,125.26 L366.74,125.26 L488.39,3.59 L499.44,3.59 Z M487.33,3.59 L365.63,125.26 L354.63,125.26 L476.28,3.59 L487.33,3.59 Z M475.22,3.59 L353.51,125.26 L342.51,125.26 L464.16,3.59 L475.22,3.59 Z M463.11,3.59 L341.4,125.26 L330.4,125.26 L452.05,3.59 L463.11,3.59 Z M451,3.59 L329.29,125.26 L318.29,125.26 L439.94,3.59 L451,3.59 Z M438.88,3.59 L317.18,125.26 L306.18,125.26 L427.83,3.59 L438.88,3.59 Z M426.77,3.59 L305.07,125.26 L294,125.26 L415.72,3.59 L426.77,3.59 Z M414.66,3.59 L293,125.26 L282,125.26 L403.61,3.59 L414.66,3.59 Z M402.55,3.59 L280.84,125.26 L269.84,125.26 L391.49,3.59 L402.55,3.59 Z M390.44,3.59 L268.73,125.26 L257.73,125.26 L379.38,3.59 L390.44,3.59 Z M378.32,3.59 L256.62,125.26 L245.62,125.26 L367.27,3.59 L378.32,3.59 Z M366.21,3.59 L244.51,125.26 L238,125.26 L238,120.76 L355.16,3.59 L366.21,3.59 Z M354.1,3.59 L238,119.68 L238,108.68 L343.05,3.59 L354.1,3.59 Z M341.99,3.59 L237.99,107.59 L237.99,96.59 L330.94,3.64 L341.99,3.59 Z M329.88,3.59 L238,95.45 L238,84.45 L318.84,3.61 L329.88,3.59 Z M317.77,3.59 L238,83.34 L238,72.34 L306.73,3.61 L317.77,3.59 Z M305.65,3.59 L238,71.23 L238,65.28 L232.93,65.28 L294.62,3.59 L305.65,3.59 Z M234.4,68.87 L234.4,125.26 L112.79,125.26 L112.79,68.87 L234.4,68.87 Z M293.51,3.59 L231.82,65.28 L220.82,65.28 L282.51,3.59 L293.51,3.59 Z M281.4,3.59 L219.71,65.28 L208.71,65.28 L270.41,3.59 L281.4,3.59 Z M269.29,3.59 L207.6,65.28 L196.6,65.28 L258.29,3.59 L269.29,3.59 Z M257.18,3.59 L195.48,65.28 L184.48,65.28 L246.17,3.59 L257.18,3.59 Z M245.07,3.59 L183.37,65.28 L172.37,65.28 L234,3.59 L245.07,3.59 Z M232.95,3.59 L171.26,65.28 L160.26,65.28 L221.95,3.59 L232.95,3.59 Z M220.84,3.59 L159.15,65.28 L148.15,65.28 L209.85,3.59 L220.84,3.59 Z M208.73,3.59 L147,65.28 L136,65.28 L197.7,3.59 L208.73,3.59 Z M196.62,3.59 L134.93,65.28 L123.93,65.28 L185.62,3.59 L196.62,3.59 Z M184.51,3.59 L122.81,65.28 L111.81,65.28 L173.5,3.59 L184.51,3.59 Z M3.59,3.92 L3.92,3.59 L14.92,3.59 L3.59,14.94 L3.59,3.92 Z M3.59,16.03 L16,3.59 L27,3.59 L3.59,27.06 L3.59,16.03 Z M3.59,28.14 L28.14,3.59 L39.14,3.59 L3.59,39.17 L3.59,28.14 Z M3.59,40.25 L40.25,3.59 L51.25,3.59 L3.59,51.28 L3.59,40.25 Z M3.59,52.37 L52.36,3.59 L63.36,3.59 L3.56,63.39 L3.59,52.37 Z M3.59,64.48 L64.48,3.59 L75.48,3.59 L3.59,75.5 L3.59,64.48 Z M3.59,76.59 L76.59,3.59 L87.59,3.59 L3.59,87.59 L3.59,76.59 Z M3.59,88.7 L88.7,3.59 L99.7,3.59 L3.59,99.73 L3.59,88.7 Z M3.59,100.81 L100.81,3.59 L111.81,3.59 L3.59,111.84 L3.59,100.81 Z M3.59,112.93 L112.92,3.59 L123.92,3.59 L3.59,124 L3.59,112.93 Z M3.59,125.04 L125,3.59 L136,3.59 L3.59,136.06 L3.59,125.04 Z M3.59,137.15 L137.15,3.59 L148.15,3.59 L3.59,148.17 L3.59,137.15 Z M3.59,149.26 L149.26,3.59 L160.26,3.59 L3.59,160.29 L3.59,149.26 Z M3.59,161.37 L161.37,3.59 L172.37,3.59 L110.7,65.28 L109.2,65.28 L109.2,66.78 L3.59,172.4 L3.59,161.37 Z M3.59,173.48 L109.2,67.87 L109.2,78.87 L3.59,184.51 L3.59,173.48 Z M3.59,185.6 L109.2,80 L109.2,91 L3.59,196.62 L3.59,185.6 Z M3.59,197.71 L109.2,92.09 L109.2,103.09 L3.59,208.73 L3.59,197.71 Z M3.59,209.82 L109.2,104.2 L109.2,115.2 L3.59,220.84 L3.59,209.82 Z M3.59,221.93 L109.2,116.31 L109.2,127.31 L3.59,233 L3.59,221.93 Z M3.59,234.04 L109.2,128.43 L109.2,139.43 L3.59,245.07 L3.59,234.04 Z M3.59,246.15 L109.2,140.54 L109.2,151.54 L3.59,257.18 L3.59,246.15 Z M3.59,258.27 L109.2,152.65 L109.2,163.65 L14.26,258.62 L3.59,258.62 L3.59,258.27 Z M99.04,258.62 L88,258.62 L109.19,237.43 L109.19,248.43 L99.04,258.62 Z M109.2,249.54 L109.2,258.62 L100.13,258.62 L109.2,249.54 Z M86.93,258.62 L75.93,258.62 L109.23,225.32 L109.23,236.32 L86.93,258.62 Z M74.81,258.62 L63.81,258.62 L109.22,213.21 L109.22,224.21 L74.81,258.62 Z M62.7,258.62 L51.7,258.62 L109.2,201.1 L109.2,212.1 L62.7,258.62 Z M50.59,258.62 L39.59,258.62 L109.2,189 L109.2,200 L50.59,258.62 Z M38.48,258.62 L27.48,258.62 L109.23,176.87 L109.23,187.87 L38.48,258.62 Z M26.37,258.62 L15.37,258.62 L109.23,164.76 L109.23,175.76 L26.37,258.62 Z M3.59,262.21 L112.79,262.21 L112.79,155.66 L112.79,128.85 L678.17,128.85 L678.17,4.3 L904.82,4.3 L904.82,76.3 L1316.77,76.3 L1316.77,135.93 L1380,135.93 L1380,72.71 L1277.56,72.71 L1277.56,3.59 L1589.26,3.59 L1589.26,72.37 L1460.91,72.37 L1460.91,111.56 L1589.26,111.56 L1787.15,111.56 L1861.76,224.35 L1784.1,275.73 L1856.39,388.19 L1757.39,388.19 L1757.39,344.42 L1618.39,344.42 L1618.39,363.2 L1550.39,363.2 C1475.73,324.94 1426.16,275.56 1382.39,231.98 C1329.32,179.1 1287.39,137.33 1223.04,137.33 C1158.69,137.33 1117.2,178.53 1064.71,230.69 C1020.4,274.69 970.19,324.61 892.94,363.2 L713.94,363.2 L713.94,429.56 L637.5,429.56 L637.5,381.75 L477.17,382 L477.17,429.55 L400.75,429.55 L400.75,408.87 L316.48,408.87 L316.48,423.06 L240.67,423.06 L240.67,399 L94,399 L94,316.16 L3.59,316.16 L3.59,262.21 Z M1320.36,132.35 L1320.36,76.35 L1376.41,76.35 L1376.41,132.35 L1320.36,132.35 Z M1589.26,76 L1589.26,108 L1464.49,108 L1464.49,76 L1589.26,76 Z M1717.26,348 L1728.26,348 L1713.36,362.91 L1713.36,351.91 L1717.26,348 Z M1713.38,350.79 L1713.38,348 L1716.17,348 L1713.38,350.79 Z M1729.38,348 L1740.38,348 L1713.38,375 L1713.38,364 L1729.38,348 Z M1741.49,348 L1752.49,348 L1713.36,387.13 L1713.36,376.13 L1741.49,348 Z M1753.6,348 L1753.89,348 L1753.89,358.75 L1713.39,399.24 L1713.39,388.24 L1753.6,348 Z M1709.81,348 L1709.81,403.92 L1622,403.92 L1622,348 L1709.81,348 Z M1346.37,273.52 C1303.58,239.45 1269.79,212.52 1222.85,212.52 C1175.67,212.52 1141.32,239.25 1097.85,273.1 C1059.27,303.1 1015.55,337.15 950.5,362.66 C945.42,362.99 940.23,363.17 934.91,363.17 L928.5,363.17 C997.73,331.3 1044.77,290.01 1086.5,253.42 C1134.16,211.58 1171.81,178.53 1223.09,178.53 C1274.37,178.53 1312.09,211.97 1359.92,254.31 C1400.92,290.57 1447.15,331.48 1514.19,363.17 L1504.19,363.17 C1499.29,363.17 1494.51,363.04 1489.85,362.78 C1426.5,337.33 1383.91,303.43 1346.34,273.52 L1346.37,273.52 Z M1478.3,361.87 C1414.76,355.31 1372.17,325.27 1334.09,298.38 C1299.09,273.67 1266,250.32 1223.09,250.32 C1179.84,250.32 1144.38,273.95 1106.85,298.96 C1067.43,325.23 1023.42,354.55 962.67,361.61 C1022.26,336.49 1063.46,304.44 1100.05,275.96 C1143.05,242.54 1176.92,216.13 1222.87,216.13 C1268.56,216.13 1301.87,242.69 1344.15,276.32 C1379.82,304.75 1420,336.76 1478.27,361.87 L1478.3,361.87 Z M1362.3,251.66 C1313.83,208.82 1275.58,175 1223,175 C1170.42,175 1132.27,208.44 1084,250.78 C1041.08,288.46 992.43,331.16 919.71,363.22 L900.86,363.22 C975.06,324.85 1023.96,276.27 1067.24,233.22 C1119.14,181.65 1160.13,140.91 1223.04,140.91 C1285.95,140.91 1327.37,182.21 1379.86,234.51 C1422.59,277.08 1470.86,325.15 1542.6,363.19 L1522.67,363.19 C1452.28,331.31 1404.45,289 1362.25,251.66 L1362.3,251.66 Z M729.51,366.79 L740.51,366.79 L717.13,390.17 L717.13,379.17 L729.51,366.79 Z M717.16,378.05 L717.16,367 L717.4,366.76 L728.4,366.76 L717.16,378.05 Z M741.62,366.79 L752.62,366.79 L717.13,402.28 L717.13,391.28 L741.62,366.79 Z M753.74,366.79 L764.74,366.79 L717.14,414.39 L717.14,403.39 L753.74,366.79 Z M765.85,366.79 L776.85,366.79 L717.16,426.5 L717.16,415.5 L765.85,366.79 Z M493.5,384.79 L504.5,384.79 L480.43,408.87 L480.43,397.87 L493.5,384.79 Z M480.45,396.79 L480.45,385.79 L481.38,384.85 L492.38,384.85 L480.45,396.79 Z M505.61,384.79 L516.61,384.79 L480.45,421 L480.45,410 L505.61,384.79 Z M321.15,411.79 L332.15,411.79 L319.7,424.27 L319.7,413.27 L321.15,411.79 Z M319.7,412.15 L319.7,411.79 L320.06,411.79 L319.7,412.15 Z M3.59,319.74 L12.43,319.74 L3.59,328.59 L3.59,319.74 Z M3.59,329.67 L13.52,319.74 L24.52,319.74 L3.57,340.74 L3.59,329.67 Z M3.59,341.78 L25.59,319.78 L36.59,319.78 L3.59,352.81 L3.59,341.78 Z M3.59,353.9 L37.74,319.74 L48.74,319.74 L3.59,364.92 L3.59,353.9 Z M3.59,366.01 L49.85,319.74 L60.85,319.74 L3.59,377 L3.59,366.01 Z M3.59,378.12 L62,319.74 L73,319.74 L3.6,389.14 L3.59,378.12 Z M3.59,390.23 L74.08,319.74 L85.08,319.74 L3.59,401.26 L3.59,390.23 Z M3.59,402.34 L86.19,319.74 L90.44,319.74 L90.44,326.51 L3.59,413.37 L3.59,402.34 Z M3.59,420.17 L3.59,414.45 L90.44,327.6 L90.44,338.6 L8.51,420.55 L3.59,420.17 Z M9.52,420.63 L90.44,339.71 L90.44,350.71 L19.76,421.42 L9.52,420.63 Z M20.76,421.5 L90.44,351.82 L90.44,362.82 L31,422.28 L20.76,421.5 Z M32.02,422.35 L90.44,363.93 L90.44,374.93 L42.28,423.12 L32.02,422.35 Z M43.29,423.19 L90.44,376 L90.44,387 L53.56,424 L43.29,423.19 Z M54.57,424.03 L90.44,388.16 L90.44,399.16 L64.85,424.77 L54.57,424.03 Z M65.86,424.85 L90.44,400.27 L90.44,402.4 L99.33,402.4 L76.15,425.59 L65.86,424.85 Z M77.16,425.66 L100.42,402.4 L111.42,402.4 L87.42,426.4 L77.16,425.66 Z M88.47,426.46 L112.53,402.4 L123.53,402.4 L98.74,427.19 L88.47,426.46 Z M99.79,427.26 L124.64,402.4 L135.64,402.4 L110.1,428 L99.79,427.26 Z M111.11,428.04 L136.76,402.4 L147.76,402.4 L121.41,428.75 L111.11,428.04 Z M122.45,428.82 L148.87,402.4 L159.87,402.4 L132.75,429.52 L122.45,428.82 Z M133.79,429.59 L161,402.4 L172,402.4 L144.12,430.28 L133.79,429.59 Z M145.14,430.35 L173.14,402.35 L184.14,402.35 L155.48,431 L145.14,430.35 Z M156.5,431.1 L185.2,402.4 L196.2,402.4 L166.82,431.78 L156.5,431.1 Z M167.87,431.85 L197.31,402.4 L208.31,402.4 L178.2,432.52 L167.87,431.85 Z M179.25,432.58 L209.43,402.4 L220.43,402.4 L189.59,433.24 L179.25,432.58 Z M190.63,433.31 L221.54,402.4 L232.54,402.4 L201,434 L190.63,433.31 Z M202,434 L233.62,402.38 L237.18,402.38 L237.18,409.84 L212.38,434.65 L202,434 Z M213.4,434.71 L237.21,411 L237.21,422 L223.82,435.39 L213.4,434.71 Z M224.81,435.41 L237.18,423.04 L237.18,425.63 L245.62,425.63 L235.21,436.04 L224.81,435.41 Z M236.24,436.1 L246.71,425.63 L257.71,425.63 L246.62,436.72 L236.24,436.1 Z M247.66,436.78 L258.82,425.63 L269.82,425.63 L258.06,437.4 L247.66,436.78 Z M259.11,437.46 L271,425.65 L282,425.65 L269.57,438.08 L259.11,437.46 Z M270.55,438.12 L283.04,425.63 L294.04,425.63 L281,438.73 L270.55,438.12 Z M282.01,438.77 L295.15,425.63 L306.15,425.63 L292.42,439.36 L282.01,438.77 Z M293.48,439.41 L307.27,425.63 L318.27,425.63 L304,440 L293.48,439.41 Z M304.96,440.05 L319.38,425.63 L319.67,425.63 L319.67,425.34 L333.23,411.78 L344.23,411.78 L315.39,440.61 L304.96,440.05 Z M316.45,440.67 L345.34,411.78 L356.34,411.78 L327,441.24 L316.45,440.67 Z M327.95,441.28 L357.46,411.78 L368.46,411.78 L338.41,441.83 L327.95,441.28 Z M339.46,441.88 L369.57,411.78 L380.57,411.78 L350,442.44 L339.46,441.88 Z M350.99,442.47 L381.68,411.78 L392.68,411.78 L361.51,443 L350.99,442.47 Z M362.52,443.05 L393.79,411.78 L398,411.78 L398,418.66 L373.1,443.56 L362.52,443.05 Z M374.06,443.61 L398,419.77 L398,430.77 L384.65,444.11 L374.06,443.61 Z M385.62,444.17 L398,431.88 L398,432.46 L408.4,432.46 L396.18,444.68 L385.62,444.17 Z M397.19,444.71 L409.46,432.44 L420.46,432.44 L407.7,445.19 L397.19,444.71 Z M408.77,445.24 L421.57,432.44 L432.57,432.44 L419.3,445.71 L408.77,445.24 Z M420.37,445.75 L433.69,432.44 L444.69,432.44 L431,446.23 L420.37,445.75 Z M431.98,446.26 L445.8,432.44 L456.8,432.44 L442.54,446.7 L431.98,446.26 Z M443.6,446.75 L457.91,432.44 L468.91,432.44 L454.23,447.2 L443.6,446.75 Z M455.24,447.22 L470.02,432.44 L480.42,432.44 L480.42,422.04 L517.69,384.77 L528.69,384.77 L465.83,447.64 L455.24,447.22 Z M466.9,447.68 L529.8,384.77 L540.8,384.77 L477.55,448.1 L466.9,447.68 Z M478.57,448.12 L541.91,384.77 L552.91,384.77 L489.17,448.51 L478.57,448.12 Z M490.25,448.54 L554.03,384.77 L565.03,384.77 L500.88,448.92 L490.25,448.54 Z M502,449 L566.18,384.82 L577.18,384.82 L512.64,449.36 C509.1,449.21 505.54,449.1 502,449 Z M513.71,449.4 L578.29,384.82 L589.29,384.82 L524.39,449.7 L513.71,449.4 Z M525.46,449.77 L590.4,384.82 L601.4,384.82 L536.14,450.09 L525.46,449.77 Z M537.21,450.12 L602.51,384.82 L613.51,384.82 L547.9,450.42 L537.21,450.12 Z M548.99,450.45 L614.62,384.82 L625.62,384.82 L559.7,450.74 L548.99,450.45 Z M560.79,450.76 L626.79,384.82 L634.73,384.82 L634.73,387.9 L571.54,451 L560.79,450.76 Z M572.62,451.05 L634.67,389 L634.67,400 L583.39,451.28 L572.62,451.05 Z M584.46,451.32 L634.68,401.1 L634.68,412.1 L595.27,451.51 L584.46,451.32 Z M596.34,451.56 L634.68,413.21 L634.68,424.21 L607.16,451.72 L596.34,451.56 Z M608.23,451.77 L634.68,425.33 L634.68,432.49 L638.54,432.49 L619.09,451.94 L608.23,451.77 Z M620.16,451.96 L639.63,432.49 L650.63,432.49 L631,452.07 L620.16,451.96 Z M632.16,452.11 L651.78,432.49 L662.78,432.49 L643,452.2 L632.16,452.11 Z M644.16,452.23 L663.91,432.49 L674.91,432.49 L655,452.29 L644.16,452.23 Z M656.16,452.32 L676,432.46 L687,432.46 L667.11,452.34 C663.46,452.33 659.8,452.32 656.12,452.29 L656.16,452.32 Z M677.83,452.39 L668.22,452.39 L688.1,432.5 L699.1,432.5 L679.2,452.4 L677.83,452.39 Z M680.32,452.39 L700.21,432.49 L711.21,432.49 L691.35,452.35 L680.32,452.39 Z M692.47,452.39 L712.33,432.53 L717.2,432.53 L717.2,427.66 L778,366.86 L789,366.86 L703.57,452.29 L692.47,452.39 Z M704.69,452.28 L790.11,366.86 L801.11,366.86 L715.83,452.13 C712.13,452.12 708.4,452.17 704.65,452.21 L704.69,452.28 Z M716.97,452.11 L802.22,366.86 L813.22,366.86 L728.22,451.86 C724.45,451.91 720.71,452 716.93,452 L716.97,452.11 Z M729.32,451.88 L814.32,366.88 L825.32,366.88 L740.58,451.62 L729.32,451.88 Z M741.74,451.57 L826.45,366.86 L837.45,366.86 L753.09,451.22 L741.74,451.57 Z M754.24,451.18 L838.56,366.86 L849.56,366.86 L765.66,450.76 C761.87,450.84 758.05,451 754.2,451.11 L754.24,451.18 Z M766.82,450.71 L850.67,366.86 L861.67,366.86 L778.3,450.14 C774.5,450.32 770.66,450.486667 766.78,450.64 L766.82,450.71 Z M779.48,450.16 L862.78,366.86 L873.78,366.86 L791.05,449.5 C787.223333,449.713333 783.353333,449.91 779.44,450.09 L779.48,450.16 Z M792.24,449.51 L874.89,366.86 L885.89,366.86 L803.89,448.86 C800.036667,449.033333 796.14,449.226667 792.2,449.44 L792.24,449.51 Z M805.1,448.77 L887,366.79 L898,366.79 L816.86,447.93 C812.953333,448.203333 809.02,448.46 805.06,448.7 L805.1,448.77 Z M818.1,447.92 L899.17,366.86 L910.17,366.86 L829.91,447 C825.97,447.286667 822,447.57 818,447.85 L818.1,447.92 Z M831.18,446.92 L911.28,366.82 L922.28,366.82 L843.1,445.91 C839.153333,446.243333 835.15,446.57 831.09,446.89 L831.18,446.92 Z M844.38,445.83 L923.38,366.83 L934.38,366.83 L856.41,444.7 C852.423333,445.08 848.383333,445.446667 844.29,445.8 L844.38,445.83 Z M857.7,444.62 L935.51,366.81 C939.35,366.81 943.11,366.69 946.83,366.52 L869.96,443.39 C865.873333,443.796667 861.756667,444.196667 857.61,444.59 L857.7,444.62 Z M871.17,443.26 L947.96,366.47 C952.02,366.26 955.96,365.94 959.96,365.54 L883.61,441.89 C879.456667,442.343333 875.28,442.79 871.08,443.23 L871.17,443.26 Z M884.8,441.74 L961,365.39 C965.34,364.93 969.58,364.39 973.75,363.67 L897.23,440.19 C893.13,440.73 888.956667,441.236667 884.71,441.71 L884.8,441.74 Z M898.5,440 L975.07,363.44 C979.76,362.65 984.35,361.72 988.84,360.69 L911.23,438.3 C907.076667,438.9 902.833333,439.466667 898.5,440 Z M912.5,438.13 L990.29,360.34 C995.45,359.106667 1000.49333,357.736667 1005.42,356.23 L925.42,436.23 C921.18,436.896667 916.87,437.54 912.49,438.16 L912.5,438.13 Z M926.69,436.05 L1007,355.75 C1012.87333,353.896667 1018.58,351.863333 1024.12,349.65 L939.8,434 C935.513333,434.666667 931.14,435.36 926.68,436.08 L926.69,436.05 Z M941.12,433.73 L1026,348.92 C1032.92,346.12 1039.61,343.07 1046.09,339.85 L954.51,431.43 C950.116667,432.223333 945.65,433 941.11,433.76 L941.12,433.73 Z M955.8,431.16 L1048.22,338.74 C1056.83,334.38 1065.08,329.74 1073.06,324.93 L969.41,428.59 C964.97,429.476667 960.43,430.343333 955.79,431.19 L955.8,431.16 Z M970.8,428.29 L1075.86,323.23 C1086.67,316.63 1096.98,309.8 1106.98,303.14 L984.69,425.42 C980.163333,426.413333 975.523333,427.38 970.77,428.32 L970.8,428.29 Z M986.11,425.09 L1110.2,301 C1120.59,294.08 1130.83,287.29 1141.11,281.12 L1000.36,421.88 C995.72,423 991,424.06 986.08,425.12 L986.11,425.09 Z M1001.81,421.51 L1143.81,279.51 C1151.37665,275.002139 1159.17029,270.886696 1167.16,267.18 L1016.46,417.88 C1011.70667,419.12 1006.81333,420.34 1001.78,421.54 L1001.81,421.51 Z M1017.95,417.51 L1169.14,266.31 C1174.91859,263.732132 1180.84187,261.491701 1186.88,259.6 L1033.06,413.39 C1028.17333,414.776667 1023.12667,416.15 1017.92,417.51 L1017.95,417.51 Z M1034.61,412.96 L1188.45,259.12 C1193.19736,257.704834 1198.02194,256.562961 1202.9,255.7 L1050.3,408.3 C1045.22,409.86 1039.98,411.426667 1034.58,413 L1034.61,412.96 Z M1051.87,407.81 L1204.22,255.47 C1208.31946,254.794143 1212.45196,254.33683 1216.6,254.1 L1068.16,402.52 C1062.92,404.293333 1057.48,406.056667 1051.84,407.81 L1051.87,407.81 Z M1069.87,401.97 L1217.79,254.05 C1219.55,253.96 1221.32,253.91 1223.11,253.91 C1224.9,253.91 1226.92,253.97 1228.8,254.06 L1086.82,396 C1081.38,398 1075.72,400 1069.8,402 L1069.87,401.97 Z M1088.6,395.34 L1229.84,254.11 C1233.24,254.31 1236.57333,254.643333 1239.84,255.11 L1106.26,388.64 C1100.61,390.83 1094.72,393.07 1088.53,395.34 L1088.6,395.34 Z M1126.35,380.73 L1126.03,380.86 C1120.31,383.14 1114.36,385.51 1108.11,387.95 L1240.79,255.27 C1243.91,255.75 1246.98333,256.35 1250.01,257.07 L1126.35,380.73 Z M1128.16,380.01 L1250.88,257.29 C1253.78,257.996667 1256.64333,258.81 1259.47,259.73 L1146.26,372.87 C1140.44,375.1 1134.41,377.49 1128.09,380 L1128.16,380.01 Z M1148,372.2 L1260.21,260 C1262.93,260.9 1265.62,261.9 1268.28,263 L1165.23,366 C1159.63,367.88 1153.92,370 1148,372.2 Z M1166.83,365.47 L1269.03,263.27 C1271.61,264.323333 1274.16333,265.446667 1276.69,266.64 L1182.41,360.92 C1177.26,362.23 1172.1,363.75 1166.85,365.47 L1166.83,365.47 Z M1183.83,360.56 L1277.44,267 C1279.9,268.18 1282.33,269.41 1284.76,270.71 L1197.76,357.71 C1193.07,358.48 1188.47,359.43 1183.88,360.56 L1183.83,360.56 Z M1198.98,357.56 L1285.42,271.11 C1287.78,272.39 1290.14,273.71 1292.48,275.11 L1211.41,356.18 C1207.24,356.42 1203.11,356.89 1199,357.52 L1198.98,357.56 Z M1222.98,355.73 C1219.43,355.73 1215.98,355.85 1212.57,356.07 L1293.16,275.48 C1295.44,276.83 1297.73,278.22 1300.01,279.65 L1224,355.69 L1222.98,355.73 Z M1224.98,355.73 L1300.74,280 C1302.97333,281.413333 1305.20667,282.856667 1307.44,284.33 L1235.71,356.06 C1232.28,355.87 1228.74,355.74 1225.07,355.7 L1224.98,355.73 Z M1236.64,356.18 L1308,284.82 C1310.19333,286.273333 1312.39,287.753333 1314.59,289.26 L1246.68,357.17 C1243.53,356.72 1240.19,356.39 1236.73,356.15 L1236.64,356.18 Z M1247.64,357.29 L1315.24,289.7 C1317.4,291.18 1319.57,292.683333 1321.75,294.21 L1257.12,358.84 C1254.13,358.22 1251,357.7 1247.73,357.26 L1247.64,357.29 Z M1258.02,359.02 L1322.39,294.65 L1328.87,299.2 L1267,361.08 C1264.13333,360.3 1261.17,359.606667 1258.11,359 L1258.02,359.02 Z M1267.86,361.3 L1329.5,299.65 L1331.9,301.34 L1335.97,304.21 L1276.4,363.78 C1273.66,362.873333 1270.86,362.036667 1268,361.27 L1267.86,361.3 Z M1277.22,364.05 L1336.61,304.66 C1338.75,306.166667 1340.91,307.683333 1343.09,309.21 L1285.41,366.88 C1282.79,365.86 1280.07,364.91 1277.31,364 L1277.22,364.05 Z M1286.22,367.18 L1343.75,309.65 C1345.90333,311.15 1348.08,312.65 1350.28,314.15 L1294.15,370.28 C1291.55667,369.18 1288.93667,368.136667 1286.29,367.15 L1286.22,367.18 Z M1294.92,370.59 L1350.92,314.59 C1353.1,316.07 1355.29,317.59 1357.51,319.02 L1302.67,373.87 C1300.11667,372.723333 1297.56,371.62 1295,370.56 L1294.92,370.59 Z M1303.42,374.2 L1358.17,319.45 C1360.37,320.91 1362.6,322.356667 1364.86,323.79 L1311.06,377.59 C1308.54,376.41 1306.01667,375.27 1303.49,374.17 L1303.42,374.2 Z M1317.72,380.59 L1311.81,377.92 L1365.52,324.22 C1367.76,325.64 1370.03,327.04 1372.32,328.44 L1319.41,381.35 L1317.72,380.59 Z M1320.16,381.69 L1373,328.85 C1375.29,330.23 1377.59,331.6 1379.93,332.94 L1327.77,385.11 L1320.16,381.69 Z M1328.52,385.44 L1380.63,333.33 C1382.95667,334.663333 1385.32333,335.973333 1387.73,337.26 L1336.19,388.8 C1333.64,387.64 1331.09,386.52 1328.59,385.41 L1328.52,385.44 Z M1336.95,389.13 L1388.43,337.64 C1390.82,338.92 1393.25,340.16 1395.71,341.39 L1344.71,392.39 C1342.09667,391.276667 1339.52667,390.18 1337,389.1 L1336.95,389.13 Z M1345.47,392.71 L1396.47,341.71 C1398.92,342.92 1401.41,344.11 1403.94,345.26 L1353.37,395.83 C1350.72,394.79 1348.09,393.73 1345.54,392.68 L1345.47,392.71 Z M1354.12,396.17 L1404.65,345.64 C1407.18,346.79 1409.76,347.89 1412.36,348.96 L1362.12,399.2 C1359.44,398.173333 1356.79667,397.153333 1354.19,396.14 L1354.12,396.17 Z M1362.92,399.49 L1413.13,349.28 C1415.74,350.34 1418.37,351.38 1421.06,352.37 L1371.06,402.37 C1368.35,401.38 1365.63,400.42 1363,399.46 L1362.92,399.49 Z M1371.92,402.65 L1421.92,352.65 C1424.62,353.65 1427.35,354.56 1430.13,355.46 L1380.22,405.37 C1377.39,404.45 1374.64,403.53 1371.94,402.62 L1371.92,402.65 Z M1381.04,405.65 L1430.94,355.75 C1433.72667,356.643333 1436.56,357.483333 1439.44,358.27 L1389.44,408.27 C1386.59333,407.37 1383.8,406.483333 1381.06,405.61 L1381.04,405.65 Z M1390.32,408.48 L1440.32,358.48 C1443.2,359.26 1446.13,360.01 1449.12,360.7 L1398.94,410.87 C1396.01333,410.07 1393.14667,409.26 1390.34,408.44 L1390.32,408.48 Z M1399.78,411.13 L1450,360.9 C1453,361.58 1456.07,362.19 1459.17,362.76 L1408.56,413.37 C1405.56,412.62 1402.65,411.86 1399.8,411.09 L1399.78,411.13 Z M1409.4,413.62 L1460.06,362.97 C1463.17,363.53 1466.33,364.05 1469.56,364.49 L1418.3,415.75 C1415.28667,415.023333 1412.32667,414.3 1409.42,413.58 L1409.4,413.62 Z M1419.19,415.95 L1470.52,364.62 C1473.77333,365.053333 1477.07667,365.423333 1480.43,365.73 L1428.24,417.92 C1425.17333,417.253333 1422.16333,416.583333 1419.21,415.91 L1419.19,415.95 Z M1429.19,418.11 L1481.47,365.83 C1484.85,366.13 1488.3,366.35 1491.81,366.52 L1438.39,419.93 C1435.24333,419.31 1432.16667,418.69 1429.16,418.07 L1429.19,418.11 Z M1439.31,420.11 L1492.85,366.56 C1496.38,366.71 1499.96,366.81 1503.62,366.82 L1448.62,421.82 C1445.43333,421.226667 1442.32,420.643333 1439.28,420.07 L1439.31,420.11 Z M1449.57,421.95 L1504.7,366.83 L1515.7,366.83 L1459,423.46 C1455.78667,422.96 1452.63333,422.443333 1449.54,421.91 L1449.57,421.95 Z M1459.99,423.65 L1516.81,366.83 L1527.81,366.83 L1469.56,425 C1466.3,424.57 1463.1,424.09 1460,423.61 L1459.99,423.65 Z M1470.55,425.2 L1528.92,366.83 L1539.92,366.83 L1480.26,426.49 C1477,426 1473.7,425.6 1470.52,425.16 L1470.55,425.2 Z M1481.25,426.61 L1541,366.79 L1549.5,366.79 L1549.67,366.88 L1549.67,366.79 L1552,366.79 L1491,427.74 C1487.73,427.36 1484.45,427 1481.22,426.57 L1481.25,426.61 Z M1492.09,427.88 L1553.09,366.83 L1564.09,366.83 L1502,428.89 C1498.64,428.56 1495.33,428.21 1492.06,427.84 L1492.09,427.88 Z M1503.09,429.03 L1565.3,366.83 L1576.3,366.83 L1513.17,429.96 C1509.72333,429.633333 1506.33333,429.313333 1503,429 L1503.09,429.03 Z M1514.19,430.03 L1577.41,366.82 L1588.41,366.82 L1524.41,430.82 C1520.87,430.56 1517.46,430.29 1514.12,430 L1514.19,430.03 Z M1525.41,430.92 L1589.52,366.82 L1600.52,366.82 L1535.7,431.64 C1532.16,431.39 1528.73,431.14 1525.34,430.89 L1525.41,430.92 Z M1536.75,431.7 L1601.63,366.82 L1612.63,366.82 L1547.14,432.31 C1543.57,432.09 1540.09,431.89 1536.68,431.67 L1536.75,431.7 Z M1548.2,432.36 L1613.74,366.82 L1618.47,366.82 L1618.47,373.12 L1558.72,432.87 C1555.09,432.68 1551.58,432.52 1548.13,432.33 L1548.2,432.36 Z M1559.76,432.91 L1618.47,374.2 L1618.47,385.2 L1570.37,433.29 C1566.71,433.17 1563.18,433 1559.69,432.88 L1559.76,432.91 Z M1571.42,433.36 L1618.47,386.31 L1618.47,397.31 L1582.13,433.64 C1578.45,433.55 1574.87,433.45 1571.35,433.33 L1571.42,433.36 Z M1583.19,433.7 L1618.47,398.43 L1618.47,407.53 L1620.39,407.53 L1593.99,433.93 C1590.27,433.84 1586.68,433.76 1583.12,433.67 L1583.19,433.7 Z M1595.06,433.95 L1621.47,407.53 L1632.47,407.53 L1605.92,434.08 C1602.21,434 1598.57,434 1595,433.92 L1595.06,433.95 Z M1607.06,434.09 L1633.62,407.53 L1644.62,407.53 L1618.01,434.14 C1614.22,434.11 1610.57,434.09 1607,434.06 L1607.06,434.09 Z M1619.06,434.15 L1645.68,407.53 L1656.68,407.53 L1630,434.12 L1619.06,434.15 Z M1631.17,434.15 L1657.79,407.53 L1668.79,407.53 L1642.18,434.15 L1631.17,434.15 Z M1643.28,434.15 L1669.9,407.53 L1680.9,407.53 L1654.28,434.15 L1643.28,434.15 Z M1655.4,434.15 L1682,407.5 L1693,407.5 L1666.38,434.12 L1655.4,434.15 Z M1667.51,434.15 L1694.13,407.53 L1705.13,407.53 L1678.51,434.15 L1667.51,434.15 Z M1679.62,434.15 L1706.24,407.53 L1713.41,407.53 L1713.41,400.36 L1753.91,359.86 L1753.91,370.86 L1690.66,434.1 L1679.62,434.15 Z M1691.75,434.15 L1753.91,371.99 L1753.91,382.99 L1702.83,434.07 L1691.75,434.15 Z M1703.92,434.09 L1753.92,384.09 L1753.92,391.85 L1757.18,391.85 L1715,434 L1703.92,434.09 Z M1716.11,434.01 L1758.25,391.87 L1769.25,391.87 L1727.25,433.87 L1716.11,434.01 Z M1728.34,433.9 L1770.34,391.9 L1781.34,391.9 L1739.44,433.8 L1728.34,433.9 Z M1740.59,433.75 L1782.48,391.87 L1793.48,391.87 L1751.75,433.6 C1748,433.6 1744.3,433.66 1740.54,433.7 L1740.59,433.75 Z M1752.88,433.58 L1794.59,391.87 L1805.59,391.87 L1764,433.35 L1752.88,433.58 Z M1765.2,433.38 L1806.7,391.87 L1817.7,391.87 L1776.4,433.16 L1765.2,433.38 Z M1777.54,433.14 L1818.81,391.87 L1829.81,391.87 L1788.81,432.87 C1785,432.94 1781.28,433 1777.49,433.09 L1777.54,433.14 Z M1789.92,432.88 L1830.92,391.88 L1841.92,391.88 L1801.18,432.62 L1789.92,432.88 Z M1802.33,432.58 L1843,391.82 L1854,391.82 L1813.59,432.23 L1802.33,432.58 Z M1814.77,432.25 L1855.15,391.87 L1863,391.87 L1859.92,387.09 L1925.81,321.2 L1930.2,327.83 L1826.07,431.87 C1822.33,432 1818.55,432.09 1814.72,432.2 L1814.77,432.25 Z M1827.24,431.89 L1930.64,328.49 L1935.03,335.12 L1838.62,431.53 C1834.83,431.61 1831,431.72 1827.19,431.84 L1827.24,431.89 Z M1839.74,431.5 L1935.47,335.78 L1939.85,342.41 L1851.16,431.11 L1839.74,431.5 Z M1852.28,431.07 L1940.28,343.07 L1944.67,349.7 L1863.67,430.7 L1852.28,431.07 Z M1864.85,430.61 L1945.11,350.36 L1949.5,356.99 L1876.32,430.17 L1864.85,430.61 Z M1877.46,430.12 L1949.93,357.65 L1954.32,364.28 L1888.96,429.64 L1877.46,430.12 Z M1890.09,429.59 L1954.75,364.93 L1959.14,371.57 L1901.58,429 L1890.09,429.59 Z M1902.77,429.03 L1959.58,372.22 L1963.97,378.86 L1914.34,428.48 C1910.56667,428.64 1906.69333,428.813333 1902.72,429 L1902.77,429.03 Z M1915.48,428.43 L1964.4,379.51 L1968.79,386.15 L1927,427.8 L1915.48,428.43 Z M1928.24,427.79 L1969.24,386.79 L1973.63,393.43 L1939.9,427.16 L1928.24,427.79 Z M1941.03,427.11 L1974.03,394.11 L1978.42,400.75 L1952.7,426.47 L1941.03,427.11 Z M1953.86,426.38 L1978.86,401.38 L1983.25,408.02 L1965.58,425.68 C1961.93,425.85 1958,426.09 1953.81,426.33 L1953.86,426.38 Z M1966.75,425.61 L1983.69,408.67 L1988.08,415.31 L1978.53,424.86 L1966.75,425.61 Z M1979.69,424.78 L1988.51,415.96 L1992.9,422.6 L1991.54,423.96 C1988.65,424.12 1984.67,424.4 1979.64,424.73 L1979.69,424.78 Z M1992.69,423.88 L1993.31,423.25 L1993.68,423.8 L1992.69,423.88 Z" id="VoidSpace"></path>
                <path d="M1692,261.16 L1692,317.9 L1623.65,317.9 L1623.65,261.16 L1692,261.16 Z M1695,258.16 L1620.65,258.16 L1620.65,320.9 L1695,320.9 L1695,258.16 Z" id="Toilet1"></path>
                <path d="M1756.7,261.16 L1756.7,317.9 L1700.36,317.9 L1700.36,261.16 L1756.7,261.16 Z M1759.7,258.16 L1697.36,258.16 L1697.36,320.9 L1759.7,320.9 L1759.7,258.16 Z" id="Structure"></path>
                <path d="M878.09,335.25 C897.189419,335.250001 914.83801,325.060582 924.387719,308.52 C933.937429,291.979419 933.937429,271.600581 924.387719,255.06 C914.83801,238.519418 897.189419,228.329999 878.09,228.33 L876.3,228.33 L876.3,255.68 L878.09,255.68 C888.652325,255.671909 898.179115,262.028274 902.22675,271.78427 C906.274384,281.540265 904.045463,292.77392 896.57963,300.245475 C889.113798,307.71703 877.881854,309.954559 868.12276,305.914402 C858.363667,301.874245 852.000003,292.352329 852,281.79 L852,280 L824.63,280 L824.63,281.79 C824.663066,311.301435 848.578565,335.216934 878.09,335.25 Z M841.6,315.75 C837.957271,311.840803 834.962829,307.374459 832.73,302.52 L851.4,294.79 C852.583523,297.209509 854.090674,299.456778 855.88,301.47 L841.6,315.75 Z M879.89,311.43 C882.578558,311.263265 885.232413,310.735185 887.78,309.86 L895.51,328.52 C890.505149,330.390929 885.230013,331.437851 879.89,331.62 L879.89,311.43 Z M876.3,331.62 C870.959865,331.438908 865.684561,330.391952 860.68,328.52 L868.41,309.86 C870.956915,310.737671 873.61111,311.265819 876.3,311.43 L876.3,331.62 Z M914.58,247.84 C918.224818,251.743804 921.219558,256.207216 923.45,261.06 L904.78,268.79 C903.593977,266.374294 902.090693,264.127775 900.31,262.11 L914.58,247.84 Z M907.73,283.58 L927.92,283.58 C927.741253,288.922732 926.697722,294.201173 924.83,299.21 L906.16,291.47 C907.042505,288.924395 907.570786,286.26953 907.73,283.58 Z M907.73,280 C907.569813,277.307336 907.04157,274.6493 906.16,272.1 L924.82,264.37 C926.689476,269.379131 927.739601,274.656772 927.93,280 L907.73,280 Z M923.44,302.51 C921.21566,307.366822 918.224066,311.833954 914.58,315.74 L900.31,301.47 C902.093831,299.45253 903.600461,297.206037 904.79,294.79 L923.44,302.51 Z M879.89,231.94 C885.230403,232.134673 890.5046,233.188162 895.51,235.06 L887.78,253.72 C885.233866,252.839444 882.579272,252.311217 879.89,252.15 L879.89,231.94 Z M891.09,255.1 L898.82,236.43 C903.677251,238.657843 908.144354,241.652794 912.05,245.3 L897.77,259.57 C895.756472,257.7838 893.509176,256.279996 891.09,255.1 Z M897.77,304 L912.05,318.28 C908.14051,321.91972 903.674115,324.910821 898.82,327.14 L891.09,308.48 C893.511578,307.30007 895.759317,305.792604 897.77,304 Z M865.1,308.48 L857.37,327.14 C852.514535,324.913232 848.047774,321.921886 844.14,318.28 L858.41,304 C860.428566,305.787156 862.678828,307.294057 865.1,308.48 Z M848.45,283.58 C848.607461,286.270644 849.139246,288.926201 850.03,291.47 L831.37,299.2 C829.49156,294.196483 828.437854,288.921201 828.25,283.58 L848.45,283.58 Z" id="Stairs"></path>
                <polygon id="Arrow" points="832.47 261.4 830.35 263.65 839.14 271.17 847.93 263.65 845.81 261.4 840.89 265.82 840.89 254.85 837.38 254.85 837.38 265.82"></polygon>
            </g>
            <g id="varattavat_tilat" transform="translate(96.000000, 6.000000)">
                <path d="M207.36,155.72 L207.36,199.67 L115.55,194.88 L118.31,155.72 L207.36,155.72 Z M210.36,152.72 L115.51,152.72 L112.34,197.72 L210.34,202.83 L210.34,152.72 L210.36,152.72 Z" id="Shape" fill="#000000"></path>
                <path d="M207.36,248.68 L207.36,295.56 L117.73,295.56 L121.44,253.75 L207.36,248.68 Z M210.36,245.5 L118.68,250.91 L114.45,298.56 L210.36,298.56 L210.36,245.5 Z" id="Shape" fill="#000000"></path>
                <path d="M115.8,204.09 L207.36,208.91 L207.36,239.91 L121.29,244.79 L115.8,204.06 L115.8,204.09 Z M112.34,200.88 L118.68,248 L210.36,242.8 L210.36,206.06 L112.36,200.91 L112.34,200.88 Z" id="Shape" fill="#000000"></path>
                <path d="M291.13,155.72 L291.13,200 L217.87,203 L217.87,155.72 L291.13,155.72 Z M294.13,152.72 L214.87,152.72 L214.87,206.17 L294.13,202.83 L294.13,152.72 Z" id="Shape" fill="#000000"></path>
                <path d="M348.6,171 L345.93,204.71 L301,200.26 L301,171 L348.6,171 Z M351.85,168 L298,168 L298,203 L348.64,208 L351.81,168 L351.85,168 Z" id="Shape" fill="#000000"></path>
                <path d="M287.18,211.23 L346.24,214.52 L347.24,268.06 L299.24,271.69 L287.24,259.31 L287.24,211.23 L287.18,211.23 Z M284.24,208.05 L284.24,260.53 L298,274.79 L350.21,270.79 L349.15,211.63 L284.15,208 L284.24,208.05 Z" id="Shape" fill="#000000"></path>
                <path d="M275.19,211.18 L275.19,259.27 L262.85,271.35 L244.85,257.14 L244.03,256.5 L218.64,256.5 L218.64,213.5 L275.19,211.15 L275.19,211.18 Z M278.19,208.02 L215.64,210.62 L215.64,259.5 L243,259.5 L263.12,275.34 L278.24,260.53 L278.24,208.05 L278.19,208.02 Z" id="Shape" fill="#000000"></path>
                <path d="M240.65,266.62 L258.1,280.85 L258.1,295.56 L218.64,295.56 L218.64,266.62 L240.64,266.62 L240.65,266.62 Z M241.71,263.62 L215.64,263.62 L215.64,298.56 L261.1,298.56 L261.1,279.43 L241.72,263.62 L241.71,263.62 Z" id="Shape" fill="#000000"></path>
                <path d="M69.83,150.2 L69.83,199.5 L20.43,199.5 L20.43,150.2 L69.83,150.2 Z" id="t-l-1" stroke="#000000" stroke-width="3" fill="#FFFFFF"></path>
                <path d="M69.83,205.21 L69.83,254.5 L20.43,254.5 L20.43,205.21 L69.83,205.21 Z" id="t-l-2" stroke="#000000" stroke-width="3" fill="#FFFFFF"></path>
                <path d="M430.2,197.76 L430.2,229.09 L385.86,230.86 L385.86,197.76 L430.2,197.76 Z M433.2,194.76 L382.86,194.76 L382.86,234 L433.2,232 L433.2,194.76 Z" id="Shape" fill="#000000"></path>
                <path d="M483.33,197.76 L483.33,227.09 L439.42,228.85 L439.42,197.76 L483.33,197.76 Z M486.33,194.76 L436.42,194.76 L436.42,232 L486.33,230 L486.33,194.76 Z" id="Shape" fill="#000000"></path>
                <path d="M537.11,197.76 L537.11,225.09 L492.55,226.86 L492.55,197.76 L537.11,197.76 Z M540.11,194.76 L489.55,194.76 L489.55,230 L540.11,228 L540.11,194.76 Z" id="Shape" fill="#000000"></path>
                <path d="M60.89,313 L60.89,387.26 L3.57,387.26 L3.57,313 L60.89,313 Z M63.89,310 L0.57,310 L0.57,390.26 L63.89,390.26 L63.89,310 Z" id="Shape" fill="#000000"></path>
                <path d="M141.36,332 L141.36,387.25 L69,387.25 L69,332 L141.35,332 L141.36,332 Z M144.35,329 L66,329 L66,390.25 L144.35,390.25 L144.35,329 Z" id="Shape" fill="#000000"></path>
                <path d="M215.56,332 L215.56,411.27 L149.48,411.27 L149.48,332 L215.56,332 Z M218.56,329 L146.48,329 L146.48,414.27 L218.56,414.27 L218.56,329 Z" id="Shape" fill="#000000"></path>
                <path d="M259.17,332 L259.17,396.91 L223.67,396.91 L223.67,332 L259.17,332 Z M262.17,329 L220.67,329 L220.67,399.91 L262.17,399.91 L262.17,329 Z" id="Shape" fill="#000000"></path>
                <path d="M301.39,332 L301.39,396.91 L267.28,396.91 L267.28,332 L301.39,332 Z M304.39,329 L264.28,329 L264.28,399.91 L304.39,399.91 L304.39,329 Z" id="Shape" fill="#000000"></path>
                <path d="M376.14,332 L376.14,417.79 L309.51,417.79 L309.51,332 L376.14,332 Z M379.14,329 L306.51,329 L306.51,420.79 L379.14,420.79 L379.14,329 Z" id="Shape" fill="#000000"></path>
                <path d="M463.75,258.575382 L463.75,371.75 L384.36,371.75 L384.36,262.431082 L463.75,258.575382 Z" id="b-r-1" stroke="#000000" stroke-width="3" fill="#FFFFFF"></path>
                <path d="M537.11,282.58 L537.11,370.25 L471.57,370.25 L471.57,282.58 L537.11,282.58 Z M540.11,279.58 L468.57,279.58 L468.57,373.25 L540.11,373.25 L540.11,279.58 Z" id="Shape" fill="#000000"></path>
                <path d="M611.3,252.29 L611.3,417.75 L547.77,417.75 L547.77,256.81 L611.3,252.29 Z M614.3,249.07 L544.77,254 L544.77,420.75 L614.3,420.75 L614.3,249.07 Z" id="Shape" fill="#000000"></path>
                <path d="M663.71,3.67 L663.71,69 L630.66,69 L630.66,3.67 L663.71,3.67 Z M666.71,0.67 L627.66,0.67 L627.66,72 L666.71,72 L666.71,0.67 Z" id="Shape" fill="#000000"></path>
                <path d="M704.4,3.67 L704.4,69 L672.65,69 L672.65,3.67 L704.4,3.67 Z M707.4,0.67 L669.65,0.67 L669.65,72 L707.4,72 L707.4,0.67 Z" id="Shape" fill="#000000"></path>
                <path d="M802.86,3.67 L802.86,69 L713.33,69 L713.33,3.67 L802.86,3.67 Z M805.86,0.67 L710.33,0.67 L710.33,72 L805.86,72 L805.86,0.67 Z" id="Shape" fill="#000000"></path>
                <path d="M621.72,3.67 L621.72,69 L588.67,69 L588.67,3.67 L621.72,3.67 Z M624.72,0.67 L585.67,0.67 L585.67,72 L624.72,72 L624.72,0.67 Z" id="Shape" fill="#000000"></path>
                <path d="M1660.7,132 L1660.7,247.41 L1527.7,247.41 L1527.7,132 L1660.7,132 Z M1663.7,129 L1524.7,129 L1524.7,250.41 L1663.7,250.41 L1663.7,129 Z" id="Shape" fill="#000000"></path>
            </g>
            <g id="ikonit" transform="translate(119.000000, 18.000000)">
                <path d="M645.5,167.12 C648.357044,167.116303 650.867862,165.225037 651.66,162.48 L660,162.48 L660,166.83 L663.51,166.83 L663.51,162.48 L665.81,162.48 L665.81,166.84 L669.33,166.84 L669.33,159 L651.67,159 C650.766032,155.814683 647.584783,153.842049 644.329673,154.448397 C641.074563,155.054746 638.816944,158.040511 639.120506,161.337669 C639.424067,164.634827 642.188898,167.158187 645.5,167.16 L645.5,167.12 Z M645.5,157.82 C647.096103,157.82 648.39,159.113897 648.39,160.71 C648.39,162.306103 647.096103,163.6 645.5,163.6 C643.903897,163.6 642.61,162.306103 642.61,160.71 C642.615487,159.116175 643.906175,157.825487 645.5,157.82 Z" id="Shape" fill="#000000"></path>
                <path d="M642.28,180.46 C642.775183,180.468119 643.226141,180.176078 643.421291,179.720899 C643.616442,179.265719 643.517058,178.737729 643.16977,178.384652 C642.822482,178.031576 642.296206,177.92348 641.837864,178.11108 C641.379521,178.298681 641.080067,178.74475 641.08,179.24 C641.077337,179.560915 641.202272,179.869743 641.427318,180.09854 C641.652364,180.327337 641.959085,180.457359 642.28,180.46 Z" id="Shape" fill="#000000"></path>
                <path d="M653.52,180.46 C654.015992,180.4722 654.469972,180.182817 654.668294,179.728036 C654.866615,179.273255 654.769773,178.743668 654.423341,178.388503 C654.07691,178.033338 653.549897,177.923343 653.090321,178.110283 C652.630745,178.297222 652.33015,178.743858 652.33,179.24 C652.324418,179.90442 652.855647,180.449041 653.52,180.46 Z" id="Shape" fill="#000000"></path>
                <path d="M664.76,180.46 C665.255992,180.4722 665.709972,180.182817 665.908294,179.728036 C666.106615,179.273255 666.009773,178.743668 665.663341,178.388503 C665.31691,178.033338 664.789897,177.923343 664.330321,178.110283 C663.870745,178.297222 663.57015,178.743858 663.57,179.24 C663.564418,179.90442 664.095647,180.449041 664.76,180.46 Z" id="Shape" fill="#000000"></path>
                <path d="M673.72,170.94 L636.48,170.94 L636.48,200.63 L673.72,200.63 L673.72,170.94 Z M647.72,197.11 L640,197.11 L640,187.54 L647.73,187.54 L647.72,197.11 Z M647.72,184.03 L640,184.03 L640,174.46 L647.73,174.46 L647.72,184.03 Z M659,197.11 L651.27,197.11 L651.27,187.54 L659,187.54 L659,197.11 Z M659,184 L651.27,184 L651.27,174.43 L659,174.43 L659,184 Z M670.24,197.08 L662.52,197.08 L662.52,187.51 L670.24,187.51 L670.24,197.08 Z M670.24,184 L662.52,184 L662.52,174.43 L670.24,174.43 L670.24,184 Z" id="Shape" fill="#000000"></path>
                <path d="M642.28,193.54 C642.77609,193.548118 643.227684,193.25499 643.422246,192.798572 C643.616808,192.342154 643.51558,191.813369 643.166203,191.46108 C642.816826,191.108791 642.288899,191.003178 641.830882,191.193946 C641.372865,191.384714 641.076,191.833859 641.08,192.33 C641.077333,192.649989 641.202583,192.957789 641.427917,193.185 C641.65325,193.412211 641.96,193.540011 642.28,193.54 Z" id="Shape" fill="#000000"></path>
                <path d="M653.52,193.54 C654.0169,193.552207 654.471525,193.26174 654.669264,192.805716 C654.867003,192.349693 654.768317,191.8193 654.419791,191.464916 C654.071265,191.110533 653.542591,191.003021 653.083335,191.193133 C652.624079,191.383245 652.326076,191.832966 652.33,192.33 C652.327337,192.648263 652.451218,192.954548 652.674388,193.181469 C652.897559,193.408391 653.201737,193.537359 653.52,193.54 Z" id="Shape" fill="#000000"></path>
                <path d="M664.76,193.54 C665.2569,193.552207 665.711525,193.26174 665.909264,192.805716 C666.107003,192.349693 666.008317,191.8193 665.659791,191.464916 C665.311265,191.110533 664.782591,191.003021 664.323335,191.193133 C663.864079,191.383245 663.566076,191.832966 663.57,192.33 C663.567337,192.648263 663.691218,192.954548 663.914388,193.181469 C664.137559,193.408391 664.441737,193.537359 664.76,193.54 Z" id="Shape" fill="#000000"></path>
                <rect id="Rectangle-path" fill="#000000" x="451.96" y="55.59" width="3.59" height="47.76"></rect>
                <rect id="Rectangle-path" fill="#000000" x="407.66" y="55.59" width="3.59" height="47.76"></rect>
                <polygon id="Shape" fill="#000000" points="438.59 59.38 441.91 62.7 443.81 60.81 438.59 55.59 433.38 60.81 435.27 62.7"></polygon>
                <polygon id="Shape" fill="#000000" points="429.6 57.48 427.7 55.59 424.38 58.91 421.06 55.59 419.16 57.48 424.38 62.7"></polygon>
                <path d="M414.8,99.11 L448.4,99.11 L448.4,65.51 L414.8,65.51 L414.8,99.11 Z M438.16,70.45 C439.463392,70.45 440.52,71.506608 440.52,72.81 C440.52,74.113392 439.463392,75.17 438.16,75.17 C436.856608,75.17 435.8,74.113392 435.8,72.81 C435.797327,72.1832736 436.045111,71.5814442 436.488278,71.1382777 C436.931444,70.6951112 437.533274,70.4473274 438.16,70.45 Z M433.93,78 C434.179081,76.9639919 435.104474,76.2327668 436.17,76.23 L440.17,76.23 C441.236795,76.2291197 442.164174,76.9619141 442.41,78 L444.09,84.89 L442.25,85.42 L440.67,78.59 L440.15,78.59 L442.25,89.35 L440.67,89.35 L440.67,95.35 L438.56,95.35 L438.56,89.35 L437.78,89.35 L437.78,95.35 L435.68,95.35 L435.68,89.35 L434.1,89.35 L436.2,78.59 L435.68,78.59 L434.1,85.42 L432.27,84.89 L433.93,78 Z M424.78,70.46 C426.082076,70.4655173 427.133665,71.5245559 427.129991,72.8266384 C427.126316,74.1287209 426.068767,75.1818078 424.766681,75.1799765 C423.464594,75.1781452 422.410012,74.1220877 422.41,72.82 C422.407327,72.1906214 422.656165,71.5862486 423.101207,71.1412067 C423.546249,70.6961648 424.150621,70.4473274 424.78,70.45 L424.78,70.46 Z M419.94,78.26 C420.09103,77.1119188 421.072038,76.2551433 422.23,76.26 L427.12,76.26 C428.274159,76.2601761 429.249458,77.1157013 429.4,78.26 L430.4,84.96 L428.56,85.49 L427.77,78.92 L427.25,78.92 L427.25,95.46 L425.15,95.46 L425.15,88 L424.36,88 L424.36,95.35 L422.26,95.35 L422.26,78.84 L421.74,78.84 L420.95,85.41 L419.11,84.88 L419.94,78.26 Z" id="Shape" fill="#000000"></path>
                <path d="M46.5,67.46 C48.0867305,67.8144212 49.730125,67.1731675 50.6574787,65.8377488 C51.5848324,64.50233 51.6116253,62.7384609 50.7252596,61.3754921 C49.838894,60.0125233 48.2157342,59.3216511 46.6189711,59.6277157 C45.0222079,59.9337802 43.7695569,61.1758822 43.45,62.77 C43.2308826,63.7965328 43.4293591,64.8680654 44.0016084,65.7480159 C44.5738576,66.6279664 45.4728145,67.2439627 46.5,67.46 Z" id="Shape" fill="#000000"></path>
                <path d="M57.12,86.2 C56.5252164,84.8058237 55.2017182,83.8604679 53.69,83.75 L50.36,83.6 C50.3493142,83.5700315 50.3322554,83.5427374 50.31,83.52 C49.6179746,82.3227927 48.7326939,81.2482917 47.69,80.34 L48.14,77.6 L48.81,73.6 C49.1162568,71.6040498 47.8639347,69.6996565 45.91,69.19 C45.1822172,69.0190778 44.4200945,69.067798 43.72,69.33 L38.15,71 C36.6085557,71.4353882 35.4464797,72.7059247 35.15,74.28 L34.91,78.15 C29.0796938,80.3810863 25.7783002,86.5608849 27.165088,92.6475126 C28.5518759,98.7341402 34.204483,102.873844 40.4258344,102.359059 C46.6471858,101.844275 51.5424967,96.8317861 51.91,90.6 C51.959672,89.9342586 51.959672,89.2657414 51.91,88.6 L53.6,88.6 L56.6,100.09 L60.16,99.22 L57.12,86.2 Z M38.51,75.2 L40.84,74.93 L40.44,77.35 L40.23,77.35 C39.6043392,77.2997862 38.9756608,77.2997862 38.35,77.35 L38.51,75.2 Z M48.82,90.41 C48.548833,94.861348 45.1748271,98.5031973 40.7571101,99.1129575 C36.3393932,99.7227177 32.1049961,97.1310264 30.6381363,92.9195714 C29.1712766,88.7081164 30.8793778,84.0466389 34.72,81.78 L34.58,84.04 L37.86,83.79 L38.1,80.58 C38.7423075,80.4879064 39.3922909,80.461103 40.04,80.5 C45.1799241,80.8218556 49.0990966,85.2275769 48.82,90.37 L48.82,90.41 Z" id="Shape" fill="#000000"></path>
                <path d="M13.46,65.13 C13.63,66.02 13.85,67.65 13.85,67.65 L13.91,67.65 C13.91,67.65 14.02,66.24 14.15,65.33 L15.56,55.98 L18.9,55.98 L16.08,70.98 L12.16,70.98 L10.31,62.37 C10.05,61.15 9.9,59.74 9.9,59.74 L9.83,59.74 C9.83,59.74 9.66,61.15 9.4,62.37 L7.58,71 L3.65,71 L0.86,56 L4.22,56 L5.63,65.35 C5.76,66.26 5.87,67.67 5.87,67.67 L5.93,67.67 C5.93,67.67 6.15,66.04 6.32,65.15 L8.21,56 L11.57,56 L13.46,65.13 Z" id="Shape" fill="#000000"></path>
                <path d="M29.69,65.83 C29.4417433,67.3235402 28.1540072,68.4212824 26.64,68.43 C24.15,68.43 23.02,66.17 23.02,63.43 C23.02,60.69 24.15,58.53 26.64,58.53 C28.1629413,58.5155587 29.4677715,59.6163764 29.71,61.12 L32.46,59.32 C31.3663136,57.1060294 29.1093725,55.7061055 26.64,55.71 C22.8,55.71 19.77,58.57 19.77,63.43 C19.77,68.29 22.77,71.24 26.64,71.24 C29.1032302,71.2198222 31.344106,69.8110505 32.43,67.6 L29.69,65.83 Z" id="Shape" fill="#000000"></path>
                <path d="M82,82.36 C81.93,82.74 81.87,83.2 81.81,83.64 C81.72,83.15 81.63,82.64 81.54,82.24 L78.54,68.82 L74.42,68.82 L71.42,82.24 C71.34,82.64 71.24,83.15 71.16,83.64 C71.1,83.2 71.04,82.74 70.97,82.36 L68.5,69 L68.5,68.79 L64.55,68.79 L68.7,88.88 L73.18,88.88 L76.18,75.88 C76.32,75.29 76.43,74.67 76.53,74.13 C76.62,74.67 76.74,75.29 76.87,75.88 L79.87,88.88 L84.38,88.88 L88.5,68.79 L84.5,68.79 L82,82.36 Z" id="Shape" fill="#000000"></path>
                <path d="M102.82,81.93 C102.37,83.99 101.05,85.82 98.4,85.82 C96.8491328,85.8634136 95.3843739,85.1083833 94.52,83.82 C93.5903119,82.3226558 93.1305459,80.5811177 93.2,78.82 C93.2,75.48 94.57,71.92 98.4,71.92 C100.653853,71.8541356 102.581006,73.5289747 102.83,75.77 L106.17,73.59 C105.693171,72.4026025 104.934707,71.3489904 103.96,70.52 C102.41004,69.2019817 100.434386,68.4913148 98.4,68.52 C95.9703235,68.4876417 93.640865,69.4870194 91.99,71.27 C90.1811651,73.3668388 89.2373824,76.0730641 89.35,78.84 C89.2394845,81.627813 90.1819178,84.3551579 91.99,86.48 C93.6281407,88.2867663 95.9613043,89.3059329 98.4,89.28 C100.447865,89.2940025 102.428437,88.5495069 103.96,87.19 C104.911713,86.3723869 105.661273,85.3455925 106.15,84.19 L102.82,81.93 Z" id="Shape" fill="#000000"></path>
                <path d="M912.73,179.2 C924.294843,179.2 933.67,169.824843 933.67,158.26 C933.67,146.695157 924.294843,137.32 912.73,137.32 C901.165157,137.32 891.79,146.695157 891.79,158.26 C891.79,169.824843 901.165157,179.2 912.73,179.2 Z M895.28,158.26 C895.274685,153.630345 897.111455,149.18878 900.385117,145.915117 C903.65878,142.641455 908.100345,140.804685 912.73,140.81 C919.741521,140.821182 926.069502,145.016224 928.81,151.47 C931.567474,158.013557 930.087393,165.575302 925.066348,170.596348 C920.045302,175.617393 912.483557,177.097474 905.94,174.34 C903.861594,173.471292 901.975434,172.200258 900.39,170.6 C897.108238,167.333356 895.268416,162.89042 895.28,158.26 Z" id="Shape" fill="#000000"></path>
                <path d="M912.73,149.53 C913.790599,149.529992 914.746573,148.890562 915.151506,147.910307 C915.55644,146.930052 915.330445,145.802363 914.579055,145.053841 C913.827665,144.30532 912.69912,144.083639 911.720421,144.492318 C910.741721,144.900996 910.105952,145.859408 910.11,146.92 C910.109995,147.613951 910.386349,148.279335 910.877983,148.769093 C911.369618,149.258852 912.036054,149.532659 912.73,149.53 Z" id="Shape" fill="#000000"></path>
                <polygon id="Shape" fill="#000000" points="919.31 166.4 915.38 166.4 915.38 152.79 906.97 152.79 906.97 156.23 911.68 156.23 911.68 166.4 906.97 166.4 906.97 169.84 919.31 169.84"></polygon>
                <polygon id="Shape" fill="#000000" points="840.43 175.11 822.39 193.15 822.39 198.68 827.92 198.68 848 178.6"></polygon>
                <path d="M859.64,167.25 C859.753123,163.744557 857.947564,160.455879 854.929214,158.669685 C851.910863,156.883492 848.159137,156.883492 845.140786,158.669685 C842.122436,160.455879 840.316877,163.744557 840.43,167.25 L843.92,168.89 L843.92,167.25 C843.82925,165.006336 844.974507,162.893154 846.903861,161.744303 C848.833214,160.595451 851.236786,160.595451 853.166139,161.744303 C855.095493,162.893154 856.24075,165.006336 856.15,167.25 C856.146123,168.866808 855.489898,170.413625 854.33,171.54 L853.17,172.71 L856.8,174.01 C858.615045,172.228796 859.638349,169.793044 859.64,167.25 Z" id="Shape" fill="#000000"></path>
                <path d="M872.75,142.8 L862.19,153.36 L862.78,153.92 C864.465907,155.605096 865.855409,157.562571 866.89,159.71 L878.27,148.33 L878.27,142.8 L872.75,142.8 Z" id="Shape" fill="#000000"></path>
                <path d="M866.05,167 C866.031094,165.4671 865.791983,163.944873 865.34,162.48 C865.18,161.97 865,161.48 864.79,160.97 C864.185888,159.549111 863.381019,158.222257 862.4,157.03 C862.07,156.63 861.73,156.25 861.4,155.88 C859.940587,154.418898 858.212122,153.254137 856.31,152.45 C854.411068,151.644716 852.372528,151.22002 850.31,151.2 L850,151.2 C841.163444,151.2 834,158.363444 834,167.2 L837.49,168.84 L837.49,167.2 C837.488363,162.136162 840.537252,157.56995 845.214989,155.630561 C849.892726,153.691171 855.278122,154.76053 858.86,158.34 L859.08,158.57 C861.299095,160.894626 862.535025,163.986242 862.53,167.2 C862.53,171.2 860.91,173.81 858.68,177.4 C858.11,178.32 857.51,179.28 856.9,180.33 C856.47,181.08 856.07,181.82 855.69,182.55 C854.939222,184.167144 853.966514,185.671644 852.8,187.02 C851.736419,188.114637 850.254605,188.70081 848.73,188.63 C847.013566,188.680486 845.348844,188.0391 844.11,186.85 L841.64,189.32 C843.531765,191.167056 846.086659,192.176041 848.73,192.12 C851.181881,192.196574 853.553762,191.242744 855.27,189.49 C856.690525,187.904733 857.869844,186.118907 858.77,184.19 C859.14,183.49 859.52,182.77 859.92,182.08 C860.51,181.08 861.09,180.14 861.65,179.24 C863.99,175.47 866.02,172.24 866.02,167.24 L866.05,167 Z" id="Shape" fill="#000000"></path>
                <polygon id="Shape" fill="#000000" points="865.7 183.08 878.14 183.08 878.14 186 873.59 186 873.59 198.64 870.25 198.64 870.25 186 865.7 186"></polygon>
                <path d="M1321.24,151.09 C1324.09593,151.082969 1326.60497,149.193042 1327.4,146.45 L1335.76,146.45 L1335.76,150.81 L1339.27,150.81 L1339.27,146.45 L1341.57,146.45 L1341.57,150.81 L1345.09,150.81 L1345.09,142.94 L1327.4,142.94 C1326.49568,139.753454 1323.31245,137.780735 1320.0564,138.389011 C1316.80035,138.997288 1314.54401,141.986197 1314.85112,145.28431 C1315.15823,148.582423 1317.92762,151.103353 1321.24,151.1 L1321.24,151.09 Z M1321.24,141.78 C1322.84163,141.78 1324.14,143.078374 1324.14,144.68 C1324.14,146.281626 1322.84163,147.58 1321.24,147.58 C1319.63837,147.58 1318.34,146.281626 1318.34,144.68 C1318.34,143.078374 1319.63837,141.78 1321.24,141.78 Z" id="Shape" fill="#000000"></path>
                <path d="M1318,164.43 C1318.49599,164.4422 1318.94997,164.152817 1319.14829,163.698036 C1319.34662,163.243255 1319.24977,162.713668 1318.90334,162.358503 C1318.55691,162.003338 1318.0299,161.893343 1317.57032,162.080283 C1317.11074,162.267222 1316.81015,162.713858 1316.81,163.21 C1316.80442,163.87442 1317.33565,164.419041 1318,164.43 Z" id="Shape" fill="#000000"></path>
                <path d="M1329.25,164.43 C1329.74599,164.4422 1330.19997,164.152817 1330.39829,163.698036 C1330.59662,163.243255 1330.49977,162.713668 1330.15334,162.358503 C1329.80691,162.003338 1329.2799,161.893343 1328.82032,162.080283 C1328.36074,162.267222 1328.06015,162.713858 1328.06,163.21 C1328.05442,163.87442 1328.58565,164.419041 1329.25,164.43 Z" id="Shape" fill="#000000"></path>
                <path d="M1340.49,164.43 C1340.98599,164.4422 1341.43997,164.152817 1341.63829,163.698036 C1341.83662,163.243255 1341.73977,162.713668 1341.39334,162.358503 C1341.04691,162.003338 1340.5199,161.893343 1340.06032,162.080283 C1339.60074,162.267222 1339.30015,162.713858 1339.3,163.21 C1339.29442,163.87442 1339.82565,164.419041 1340.49,164.43 Z" id="Shape" fill="#000000"></path>
                <path d="M1349.45,154.91 L1312.21,154.91 L1312.21,184.59 L1349.45,184.59 L1349.45,154.91 Z M1323.45,181.08 L1315.73,181.08 L1315.73,171.51 L1323.45,171.51 L1323.45,181.08 Z M1323.45,167.99 L1315.73,167.99 L1315.73,158.43 L1323.45,158.43 L1323.45,167.99 Z M1334.69,181.08 L1327,181.08 L1327,171.51 L1334.72,171.51 L1334.69,181.08 Z M1334.69,167.99 L1327,167.99 L1327,158.43 L1334.72,158.43 L1334.69,167.99 Z M1345.93,181.08 L1338.21,181.08 L1338.21,171.51 L1345.93,171.51 L1345.93,181.08 Z M1345.93,167.99 L1338.21,167.99 L1338.21,158.43 L1345.93,158.43 L1345.93,167.99 Z" id="Shape" fill="#000000"></path>
                <path d="M1318,177.51 C1318.49599,177.5222 1318.94997,177.232817 1319.14829,176.778036 C1319.34662,176.323255 1319.24977,175.793668 1318.90334,175.438503 C1318.55691,175.083338 1318.0299,174.973343 1317.57032,175.160283 C1317.11074,175.347222 1316.81015,175.793858 1316.81,176.29 C1316.80442,176.95442 1317.33565,177.499041 1318,177.51 Z" id="Shape" fill="#000000"></path>
                <path d="M1329.25,177.51 C1329.74599,177.5222 1330.19997,177.232817 1330.39829,176.778036 C1330.59662,176.323255 1330.49977,175.793668 1330.15334,175.438503 C1329.80691,175.083338 1329.2799,174.973343 1328.82032,175.160283 C1328.36074,175.347222 1328.06015,175.793858 1328.06,176.29 C1328.05442,176.95442 1328.58565,177.499041 1329.25,177.51 Z" id="Shape" fill="#000000"></path>
                <path d="M1340.49,177.51 C1340.98599,177.5222 1341.43997,177.232817 1341.63829,176.778036 C1341.83662,176.323255 1341.73977,175.793668 1341.39334,175.438503 C1341.04691,175.083338 1340.5199,174.973343 1340.06032,175.160283 C1339.60074,175.347222 1339.30015,175.793858 1339.3,176.29 C1339.29442,176.95442 1339.82565,177.499041 1340.49,177.51 Z" id="Shape" fill="#000000"></path>
                <path d="M1212.59,106 L1246.18,106 L1246.18,72.38 L1212.59,72.38 L1212.59,106 Z M1236,77.31 C1237.30208,77.3155173 1238.35366,78.3745559 1238.34999,79.6766384 C1238.34632,80.9787209 1237.28877,82.0318078 1235.98668,82.0299765 C1234.68459,82.0281452 1233.63001,80.9720877 1233.63,79.67 C1233.62999,79.0423526 1233.88001,78.4405569 1234.32476,77.9976825 C1234.76951,77.5548081 1235.37236,77.3073405 1236,77.31 Z M1231.76,84.85 C1232.00996,83.8103634 1232.94074,83.0781472 1234.01,83.08 L1238.01,83.08 C1239.07553,83.0827668 1240.00092,83.8139919 1240.25,84.85 L1241.92,91.75 L1240.08,92.27 L1238.51,85.45 L1237.98,85.45 L1240.08,96.21 L1238.51,96.21 L1238.51,102.21 L1236.41,102.21 L1236.41,96.21 L1235.62,96.21 L1235.62,102.21 L1233.52,102.21 L1233.52,96.21 L1231.95,96.21 L1234.05,85.45 L1233.52,85.45 L1231.95,92.27 L1230.11,91.75 L1231.76,84.85 Z M1222.61,77.31 C1223.91339,77.31 1224.97,78.366608 1224.97,79.67 C1224.97,80.973392 1223.91339,82.03 1222.61,82.03 C1221.30661,82.03 1220.25,80.973392 1220.25,79.67 C1220.24971,78.3858871 1221.27618,77.3372057 1222.56,77.31 L1222.61,77.31 Z M1217.77,85.12 C1217.92926,83.9763486 1218.90532,83.1238955 1220.06,83.12 L1224.95,83.12 C1226.10631,83.1195518 1227.08482,83.9741454 1227.24,85.12 L1228.24,91.82 L1226.41,92.34 L1225.62,85.78 L1225.09,85.78 L1225.09,102.32 L1223,102.32 L1223,94.9 L1222.22,94.9 L1222.22,102.24 L1220.12,102.24 L1220.12,85.71 L1219.59,85.71 L1218.8,92.27 L1216.97,91.75 L1217.77,85.12 Z" id="Shape" fill="#000000"></path>
                <rect id="Rectangle-path" fill="#000000" x="1249.67" y="62.45" width="3.74" height="47.76"></rect>
                <rect id="Rectangle-path" fill="#000000" x="1205.36" y="62.45" width="3.74" height="47.76"></rect>
                <polygon id="Shape" fill="#000000" points="1236.38 66.25 1239.7 69.57 1241.6 67.67 1236.38 62.45 1231.16 67.67 1233.06 69.57"></polygon>
                <polygon id="Shape" fill="#000000" points="1227.38 64.35 1225.49 62.45 1222.16 65.77 1218.84 62.45 1216.95 64.35 1222.16 69.57"></polygon>
                <polygon id="Shape" fill="#000000" points="1276.43 16.49 1272 11.57 1282.97 11.57 1282.97 8.06 1272 8.06 1276.43 3.14 1274.18 1.02 1266.65 9.82 1274.18 18.61"></polygon>
                <polygon id="Shape" fill="#000000" points="1273.19 42.46 1275.44 44.58 1282.97 35.78 1275.44 26.99 1273.19 29.11 1277.62 34.03 1266.65 34.03 1266.65 37.54 1277.62 37.54"></polygon>
                <polygon id="Shape" fill="#000000" points="1353.57 42.83 1355.82 44.95 1363.34 36.16 1355.82 27.37 1353.57 29.49 1357.99 34.4 1347.03 34.4 1347.03 37.92 1357.99 37.92"></polygon>
                <polygon id="Shape" fill="#000000" points="1356.8 16.86 1352.38 11.95 1363.34 11.95 1363.34 8.43 1352.38 8.43 1356.8 3.52 1354.55 1.4 1347.03 10.19 1354.55 18.98"></polygon>
                <path d="M1397.12,8.53 C1399.38989,8.53 1401.23,6.68989032 1401.23,4.42 C1401.23,2.15010968 1399.38989,0.31 1397.12,0.31 C1394.85011,0.31 1393.01,2.15010968 1393.01,4.42 C1393.01,6.68989032 1394.85011,8.53 1397.12,8.53 Z" id="Shape" fill="#000000"></path>
                <path d="M1370,13.74 L1398.18,41.91 C1399.57048,43.3059802 1401.45967,44.0906979 1403.43,44.0906979 C1405.40033,44.0906979 1407.28952,43.3059802 1408.68,41.91 C1410.07291,40.5199237 1410.85568,38.6328719 1410.85568,36.665 C1410.85568,34.6971281 1410.07291,32.8100763 1408.68,31.42 L1401.06,23.79 L1401.06,13.79 C1400.81306,11.7851076 1399.11004,10.2789785 1397.09,10.2789785 C1395.06996,10.2789785 1393.36694,11.7851076 1393.12,13.79 L1393.12,15.87 L1380.51,3.26 C1378.6717,1.22639352 1375.86297,0.370232888 1373.20287,1.03262612 C1370.54277,1.69501935 1368.46352,3.76833645 1367.79352,6.42653495 C1367.12353,9.08473344 1367.97166,11.8958919 1370,13.74 Z M1372.46,5.69 C1374.01415,4.17195171 1376.49585,4.17195171 1378.05,5.69 L1406.23,33.86 C1407.74805,35.4141468 1407.74805,37.8958532 1406.23,39.45 C1405.48581,40.1828952 1404.48448,40.595633 1403.44,40.6 C1402.39191,40.6039379 1401.38635,40.1858544 1400.65,39.44 L1372.47,11.27 C1370.964,9.71168138 1370.97287,7.23748305 1372.49,5.69 L1372.46,5.69 Z" id="Shape" fill="#000000"></path>
                <path d="M1249.82,8.53 C1252.08989,8.53 1253.93,6.68989032 1253.93,4.42 C1253.93,2.15010968 1252.08989,0.31 1249.82,0.31 C1247.55011,0.31 1245.71,2.15010968 1245.71,4.42 C1245.71,6.68989032 1247.55011,8.53 1249.82,8.53 Z" id="Shape" fill="#000000"></path>
                <path d="M1222.73,13.74 L1250.91,41.91 C1252.30048,43.3059802 1254.18967,44.0906979 1256.16,44.0906979 C1258.13033,44.0906979 1260.01952,43.3059802 1261.41,41.91 C1264.30538,39.0127065 1264.30538,34.3172935 1261.41,31.42 L1253.78,23.79 L1253.78,13.79 C1253.53306,11.7851076 1251.83004,10.2789785 1249.81,10.2789785 C1247.78996,10.2789785 1246.08694,11.7851076 1245.84,13.79 L1245.84,15.87 L1233.23,3.26 C1230.32774,0.357744172 1225.62226,0.357744425 1222.72,3.26000056 C1219.81774,6.1622567 1219.81774,10.8677435 1222.72,13.77 L1222.73,13.74 Z M1225.19,5.69 C1226.74415,4.17195171 1229.22585,4.17195171 1230.78,5.69 L1259,33.86 C1260.51805,35.4141468 1260.51805,37.8958532 1259,39.45 C1257.45813,40.9884797 1254.96187,40.9884797 1253.42,39.45 L1225.24,11.28 C1223.70797,9.73946683 1223.68577,7.25769119 1225.19,5.69 Z" id="Shape" fill="#000000"></path>
                <path d="M1543.54,366.05 C1543.47,366.43 1543.4,366.9 1543.35,367.34 C1543.26,366.85 1543.16,366.34 1543.08,365.93 L1540.08,352.52 L1536,352.52 L1533,365.93 C1532.92,366.33 1532.82,366.85 1532.73,367.34 C1532.73,366.9 1532.61,366.43 1532.54,366.05 L1530,352.73 L1530,352.52 L1526,352.52 L1530.15,372.61 L1534.64,372.61 L1537.64,359.61 C1537.77,359.03 1537.89,358.41 1537.98,357.87 C1538.07,358.41 1538.19,359.03 1538.32,359.61 L1541.32,372.61 L1545.84,372.61 L1549.96,352.52 L1546,352.52 L1543.54,366.05 Z" id="Shape" fill="#000000"></path>
                <path d="M1564.35,365.63 C1563.91,367.68 1562.58,369.52 1559.94,369.52 C1558.38649,369.563079 1556.91888,368.808527 1556.05,367.52 C1555.12038,366.023026 1554.66383,364.280489 1554.74,362.52 C1554.74,359.18 1556.1,355.62 1559.94,355.62 C1562.19042,355.553654 1564.1162,357.222958 1564.37,359.46 L1567.71,357.29 C1567.22934,356.104713 1566.47149,355.051952 1565.5,354.22 C1563.9482,352.905167 1561.97378,352.194944 1559.94,352.22 C1557.51082,352.190161 1555.18235,353.189119 1553.53,354.97 C1551.72141,357.070924 1550.77784,359.780108 1550.89,362.55 C1550.78146,365.337522 1551.72365,368.06417 1553.53,370.19 C1555.16891,371.9957 1557.50157,373.014647 1559.94,372.99 C1561.98753,373.00211 1563.96744,372.25786 1565.5,370.9 C1566.45733,370.063551 1567.20707,369.015971 1567.69,367.84 L1564.35,365.63 Z" id="Shape" fill="#000000"></path>
                <path d="M1554,261 C1555.58562,261.374635 1557.24002,260.750111 1558.18253,259.421121 C1559.12504,258.092131 1559.1673,256.324287 1558.28937,254.951781 C1557.41143,253.579275 1555.78876,252.876415 1554.18705,253.17486 C1552.58534,253.473305 1551.32471,254.713407 1551,256.31 C1550.56947,258.426946 1551.8976,260.503266 1554,261 Z" id="Shape" fill="#000000"></path>
                <path d="M1564.59,279.7 C1564.0062,278.301372 1562.68209,277.352809 1561.17,277.25 L1557.83,277.1 L1557.83,277.01 C1557.12849,275.81949 1556.24054,274.749226 1555.2,273.84 L1555.66,271.1 L1556.33,267.1 C1556.61246,265.103858 1555.36525,263.209482 1553.42,262.68 C1552.69423,262.516662 1551.93656,262.568795 1551.24,262.83 L1545.66,264.5 C1544.1367,264.949376 1542.99594,266.217754 1542.71,267.78 L1542.46,271.65 C1536.62969,273.881086 1533.3283,280.060885 1534.71509,286.147513 C1536.10188,292.23414 1541.75448,296.373844 1547.97583,295.859059 C1554.19719,295.344275 1559.0925,290.331786 1559.46,284.1 C1559.51407,283.43443 1559.51407,282.76557 1559.46,282.1 L1561.16,282.1 L1564.16,293.59 L1567.71,292.72 L1564.59,279.7 Z M1545.98,268.7 L1548.32,268.43 L1547.92,270.84 L1547.7,270.84 C1547.07433,270.789957 1546.44567,270.789957 1545.82,270.84 L1545.98,268.7 Z M1556.29,283.91 C1556.01883,288.361348 1552.64483,292.003197 1548.22711,292.612958 C1543.80939,293.222718 1539.575,290.631026 1538.10814,286.419571 C1536.64128,282.208116 1538.34938,277.546639 1542.19,275.28 L1542.05,277.54 L1545.33,277.28 L1545.57,274.08 C1546.21231,273.987906 1546.86229,273.961103 1547.51,274 C1552.65509,274.311224 1556.58026,278.72368 1556.29,283.87 L1556.29,283.91 Z" id="Shape" fill="#000000"></path>
                <path d="M1520.93,258.63 C1521.1,259.52 1521.32,261.15 1521.32,261.15 L1521.39,261.15 C1521.39,261.15 1521.49,259.74 1521.62,258.82 L1523.03,249.48 L1526.37,249.48 L1523.55,264.48 L1519.63,264.48 L1517.79,255.86 C1517.52,254.65 1517.37,253.24 1517.37,253.24 L1517.31,253.24 C1517.31,253.24 1517.13,254.65 1516.87,255.86 L1515.05,264.48 L1511.13,264.48 L1508.33,249.48 L1511.69,249.48 L1513.1,258.82 C1513.23,259.74 1513.34,261.15 1513.34,261.15 L1513.4,261.15 C1513.4,261.15 1513.62,259.52 1513.79,258.63 L1515.68,249.48 L1519,249.48 L1520.93,258.63 Z" id="Shape" fill="#000000"></path>
                <path d="M1537.16,259.33 C1536.91885,260.807285 1535.65656,261.901268 1534.16,261.93 C1531.66,261.93 1530.53,259.67 1530.53,256.93 C1530.53,254.19 1531.66,252.03 1534.16,252.03 C1535.68071,252.01626 1536.98229,253.117925 1537.22,254.62 L1539.97,252.82 C1538.88341,250.604281 1536.6278,249.202776 1534.16,249.21 C1530.32,249.21 1527.28,252.07 1527.28,256.93 C1527.28,261.79 1530.28,264.74 1534.16,264.74 C1536.61961,264.716056 1538.85572,263.307853 1539.94,261.1 L1537.16,259.33 Z" id="Shape" fill="#000000"></path>
                <polygon id="Shape" fill="#EC2027" points="352.21 172.81 332.6 163.6 352.21 154.4"></polygon>
            </g>
        </g>
    </g>
</svg>